<svg width="124" height="20" viewBox="0 0 124 20" fill="none" xmlns="http://www.w3.org/2000/svg">
<path d="M0 19.1418H4.01671V11.3412H12.1707V19.1418H16.1782V0.258182H12.1707V8.0495H4.01671V0.258182H0V19.1418ZM45.6991 9.7C45.6991 3.52223 41.8401 0 36.803 0C31.738 0 27.9069 3.52223 27.9069 9.7C27.9069 15.85 31.738 19.4 36.803 19.4C41.8401 19.4 45.6991 15.8777 45.6991 9.7ZM41.6268 9.7C41.6268 13.7017 39.7158 15.8685 36.803 15.8685C33.8809 15.8685 31.9792 13.7017 31.9792 9.7C31.9792 5.69827 33.8809 3.53145 36.803 3.53145C39.7158 3.53145 41.6268 5.69827 41.6268 9.7ZM69.1602 0.258182V12.1803C69.1602 14.3379 67.6389 15.8961 65.3012 15.8961C62.9729 15.8961 61.4422 14.3379 61.4422 12.1803V0.258182H57.4255V12.5215C57.4255 16.6522 60.561 19.4092 65.3012 19.4092C70.0229 19.4092 73.1769 16.6522 73.1769 12.5215V0.258182H69.1602ZM95.5388 5.68904H99.3885C99.3328 2.32356 96.5499 0 92.3199 0C88.1548 0 85.1028 2.28669 85.1213 5.71671C85.112 8.5013 87.0879 10.0965 90.2976 10.8618L92.3662 11.3781C94.4349 11.876 95.5852 12.4662 95.5945 13.7386C95.5852 15.1216 94.268 16.0621 92.2271 16.0621C90.14 16.0621 88.6371 15.1032 88.5073 13.2129H84.6204C84.7224 17.2976 87.663 19.4092 92.2735 19.4092C96.9117 19.4092 99.639 17.2054 99.6483 13.7478C99.639 10.6036 97.2549 8.93468 93.9525 8.19702L92.2457 7.79132C90.5945 7.41328 89.2122 6.80473 89.24 5.44931C89.24 4.2322 90.3254 3.33782 92.2921 3.33782C94.2123 3.33782 95.3903 4.20455 95.5388 5.68904ZM111.101 19.1418H123.94V15.85H115.118V11.3412H123.244V8.0495H115.118V3.5499H123.903V0.258182H111.101V19.1418Z" fill="white"/>
</svg>
