<svg width="18" height="86" viewBox="0 0 18 86" fill="none" xmlns="http://www.w3.org/2000/svg">
<path d="M10.42 74.8798L10.42 81.8638L17.5 81.8638L17.5 85.0318L0.748 85.0318L0.747999 81.8638L7.612 81.8638L7.612 74.8798L0.747999 74.8798L0.747999 71.7118L17.5 71.7118L17.5 74.8798L10.42 74.8798ZM17.788 59.2858C17.788 60.3898 17.604 61.3898 17.236 62.2858C16.868 63.1818 16.316 63.9498 15.58 64.5898C14.844 65.2138 13.94 65.7018 12.868 66.0538C11.796 66.4058 10.548 66.5818 9.124 66.5818C7.716 66.5818 6.476 66.4058 5.404 66.0538C4.316 65.7018 3.404 65.2138 2.668 64.5898C1.932 63.9498 1.38 63.1818 1.012 62.2858C0.643998 61.3898 0.459998 60.3898 0.459998 59.2858C0.459998 58.1818 0.643998 57.1818 1.012 56.2858C1.38 55.3898 1.932 54.6218 2.668 53.9818C3.404 53.3418 4.316 52.8538 5.404 52.5178C6.476 52.1658 7.716 51.9898 9.124 51.9898C10.548 51.9898 11.796 52.1658 12.868 52.5178C13.94 52.8538 14.844 53.3418 15.58 53.9818C16.316 54.6218 16.868 55.3898 17.236 56.2858C17.604 57.1818 17.788 58.1818 17.788 59.2858ZM14.98 59.2858C14.98 58.0858 14.58 57.1338 13.78 56.4298C12.98 55.7098 11.86 55.3498 10.42 55.3498L7.828 55.3498C6.388 55.3498 5.268 55.7098 4.468 56.4298C3.668 57.1338 3.268 58.0858 3.268 59.2858C3.268 60.4858 3.668 61.4458 4.468 62.1658C5.268 62.8698 6.388 63.2218 7.828 63.2218L10.42 63.2218C11.86 63.2218 12.98 62.8698 13.78 62.1658C14.58 61.4458 14.98 60.4858 14.98 59.2858ZM0.747998 43.8558L11.044 43.8558C12.356 43.8558 13.34 43.6078 13.996 43.1118C14.652 42.5998 14.98 41.7438 14.98 40.5438C14.98 39.3438 14.652 38.4958 13.996 37.9998C13.34 37.4878 12.356 37.2318 11.044 37.2318L0.747997 37.2318L0.747997 34.1118L10.636 34.1118C11.868 34.1118 12.932 34.2318 13.828 34.4718C14.724 34.6958 15.468 35.0638 16.06 35.5758C16.652 36.0878 17.092 36.7598 17.38 37.5918C17.652 38.4078 17.788 39.3998 17.788 40.5678C17.788 41.7518 17.652 42.7518 17.38 43.5678C17.092 44.3678 16.652 45.0238 16.06 45.5358C15.468 46.0478 14.724 46.4158 13.828 46.6398C12.932 46.8638 11.868 46.9758 10.636 46.9758L0.747998 46.9758L0.747998 43.8558ZM17.788 23.1575C17.788 24.5975 17.532 25.8215 17.02 26.8295C16.508 27.8215 15.836 28.6775 15.004 29.3975L12.94 27.2615C13.612 26.6855 14.124 26.0455 14.476 25.3415C14.828 24.6215 15.004 23.8295 15.004 22.9655C15.004 21.9895 14.796 21.2535 14.38 20.7575C13.948 20.2615 13.372 20.0135 12.652 20.0135C12.092 20.0135 11.636 20.1735 11.284 20.4935C10.932 20.8135 10.676 21.4135 10.516 22.2935L10.276 23.8775C9.748 27.2215 8.124 28.8935 5.404 28.8935C4.652 28.8935 3.972 28.7575 3.364 28.4855C2.756 28.1975 2.236 27.7895 1.804 27.2615C1.372 26.7335 1.044 26.1015 0.819996 25.3655C0.579996 24.6135 0.459996 23.7655 0.459996 22.8215C0.459996 21.5575 0.667996 20.4535 1.084 19.5095C1.5 18.5655 2.116 17.7575 2.932 17.0855L4.972 19.2455C4.46 19.6615 4.044 20.1655 3.724 20.7575C3.404 21.3495 3.244 22.0935 3.244 22.9895C3.244 23.9015 3.42 24.5895 3.772 25.0535C4.108 25.5015 4.588 25.7255 5.212 25.7255C5.852 25.7255 6.324 25.5415 6.628 25.1735C6.932 24.8055 7.156 24.2135 7.3 23.3975L7.588 21.8375C7.892 20.1415 8.436 18.8935 9.22 18.0935C9.988 17.2775 11.068 16.8695 12.46 16.8695C13.26 16.8695 13.988 17.0135 14.644 17.3015C15.284 17.5735 15.844 17.9815 16.324 18.5255C16.788 19.0535 17.148 19.7095 17.404 20.4935C17.66 21.2615 17.788 22.1495 17.788 23.1575ZM17.5 11.7736L0.747996 11.7736L0.747996 0.733629L3.556 0.733629L3.556 8.60563L7.612 8.60563L7.612 1.64563L10.42 1.64563L10.42 8.60563L14.692 8.60563L14.692 0.733628L17.5 0.733628L17.5 11.7736Z" fill="white"/>
</svg>
