<svg width="183" height="29" viewBox="0 0 183 29" fill="none" xmlns="http://www.w3.org/2000/svg">
<path d="M0 28.6004H5.93077V16.9454H17.9704V28.6004H23.8874V0.38576H17.9704V12.0271H5.93077V0.38576H0V28.6004ZM67.4759 14.4931C67.4759 5.2627 61.7779 0 54.3406 0C46.8619 0 41.2052 5.2627 41.2052 14.4931C41.2052 23.6822 46.8619 28.9862 54.3406 28.9862C61.7779 28.9862 67.4759 23.7235 67.4759 14.4931ZM61.463 14.4931C61.463 20.4722 58.6413 23.7097 54.3406 23.7097C50.0261 23.7097 47.2181 20.4722 47.2181 14.4931C47.2181 8.514 50.0261 5.27647 54.3406 5.27647C58.6413 5.27647 61.463 8.514 61.463 14.4931ZM102.117 0.38576V18.199C102.117 21.4227 99.8705 23.751 96.4188 23.751C92.981 23.751 90.721 21.4227 90.721 18.199V0.38576H84.7902V18.7088C84.7902 24.8807 89.4198 29 96.4188 29C103.391 29 108.048 24.8807 108.048 18.7088V0.38576H102.117ZM141.065 8.50021H146.75C146.667 3.47172 142.558 0 136.313 0C130.163 0 125.656 3.41663 125.684 8.54155C125.67 12.7021 128.588 15.0855 133.327 16.229L136.381 17.0005C139.435 17.7444 141.134 18.6262 141.148 20.5273C141.134 22.5938 139.189 23.9989 136.176 23.9989C133.094 23.9989 130.875 22.5662 130.683 19.7419H124.944C125.095 25.845 129.437 29 136.244 29C143.093 29 147.119 25.7073 147.133 20.5411C147.119 15.8432 143.599 13.3496 138.723 12.2475L136.203 11.6413C133.765 11.0765 131.724 10.1672 131.765 8.14202C131.765 6.32349 133.368 4.98716 136.272 4.98716C139.107 4.98716 140.846 6.28218 141.065 8.50021ZM164.043 28.6004H183V23.6822H169.974V16.9454H181.973V12.0271H169.974V5.30403H182.945V0.38576H164.043V28.6004Z" fill="white"/>
</svg>
