<svg width="16" height="71" viewBox="0 0 16 71" fill="none" xmlns="http://www.w3.org/2000/svg">
<path d="M9.1 61.8998L9.1 67.7198L15 67.7198L15 70.3598L1.04 70.3598L1.04 67.7198L6.76 67.7198L6.76 61.8998L1.04 61.8998L1.04 59.2598L15 59.2598L15 61.8998L9.1 61.8998ZM15.24 48.9048C15.24 49.8248 15.0867 50.6581 14.78 51.4048C14.4733 52.1514 14.0133 52.7914 13.4 53.3248C12.7867 53.8448 12.0333 54.2514 11.14 54.5448C10.2467 54.8381 9.20667 54.9848 8.02 54.9848C6.84667 54.9848 5.81333 54.8381 4.92 54.5448C4.01333 54.2514 3.25333 53.8448 2.64 53.3248C2.02667 52.7914 1.56667 52.1514 1.26 51.4048C0.953332 50.6581 0.799998 49.8248 0.799998 48.9048C0.799998 47.9848 0.953331 47.1514 1.26 46.4048C1.56666 45.6581 2.02666 45.0181 2.64 44.4848C3.25333 43.9514 4.01333 43.5448 4.92 43.2648C5.81333 42.9714 6.84667 42.8248 8.02 42.8248C9.20667 42.8248 10.2467 42.9714 11.14 43.2648C12.0333 43.5448 12.7867 43.9514 13.4 44.4848C14.0133 45.0181 14.4733 45.6581 14.78 46.4048C15.0867 47.1514 15.24 47.9848 15.24 48.9048ZM12.9 48.9048C12.9 47.9048 12.5667 47.1114 11.9 46.5248C11.2333 45.9248 10.3 45.6248 9.1 45.6248L6.94 45.6248C5.74 45.6248 4.80666 45.9248 4.14 46.5248C3.47333 47.1114 3.14 47.9048 3.14 48.9048C3.14 49.9048 3.47333 50.7048 4.14 51.3048C4.80667 51.8914 5.74 52.1848 6.94 52.1848L9.1 52.1848C10.3 52.1848 11.2333 51.8914 11.9 51.3048C12.5667 50.7048 12.9 49.9048 12.9 48.9048ZM1.04 36.0465L9.62 36.0465C10.7133 36.0465 11.5333 35.8398 12.08 35.4265C12.6267 34.9998 12.9 34.2865 12.9 33.2865C12.9 32.2865 12.6267 31.5798 12.08 31.1665C11.5333 30.7398 10.7133 30.5265 9.62 30.5265L1.04 30.5265L1.04 27.9265L9.28 27.9265C10.3067 27.9265 11.1933 28.0265 11.94 28.2265C12.6867 28.4131 13.3067 28.7198 13.8 29.1465C14.2933 29.5731 14.66 30.1331 14.9 30.8265C15.1267 31.5065 15.24 32.3331 15.24 33.3065C15.24 34.2931 15.1267 35.1265 14.9 35.8065C14.66 36.4731 14.2933 37.0198 13.8 37.4465C13.3067 37.8731 12.6867 38.1798 11.94 38.3665C11.1933 38.5531 10.3067 38.6465 9.28 38.6465L1.04 38.6465L1.04 36.0465ZM15.24 18.7979C15.24 19.9979 15.0267 21.0179 14.6 21.8579C14.1733 22.6845 13.6133 23.3979 12.92 23.9979L11.2 22.2179C11.76 21.7379 12.1867 21.2045 12.48 20.6179C12.7733 20.0179 12.92 19.3579 12.92 18.6379C12.92 17.8245 12.7467 17.2112 12.4 16.7979C12.04 16.3845 11.56 16.1779 10.96 16.1779C10.4933 16.1779 10.1133 16.3112 9.82 16.5779C9.52666 16.8445 9.31333 17.3445 9.18 18.0779L8.98 19.3979C8.54 22.1845 7.18666 23.5779 4.92 23.5779C4.29333 23.5779 3.72666 23.4645 3.22 23.2379C2.71333 22.9979 2.28 22.6579 1.92 22.2179C1.56 21.7779 1.28666 21.2512 1.1 20.6379C0.899997 20.0112 0.799997 19.3045 0.799997 18.5179C0.799997 17.4645 0.97333 16.5445 1.32 15.7579C1.66666 14.9712 2.18 14.2979 2.86 13.7379L4.56 15.5379C4.13333 15.8845 3.78666 16.3045 3.52 16.7979C3.25333 17.2912 3.12 17.9112 3.12 18.6579C3.12 19.4179 3.26666 19.9912 3.56 20.3779C3.84 20.7512 4.24 20.9379 4.76 20.9379C5.29333 20.9379 5.68666 20.7845 5.94 20.4779C6.19333 20.1712 6.38 19.6779 6.5 18.9979L6.74 17.6979C6.99333 16.2845 7.44666 15.2445 8.1 14.5779C8.74 13.8979 9.64 13.5579 10.8 13.5579C11.4667 13.5579 12.0733 13.6779 12.62 13.9179C13.1533 14.1445 13.62 14.4845 14.02 14.9379C14.4067 15.3779 14.7067 15.9245 14.92 16.5779C15.1333 17.2179 15.24 17.9579 15.24 18.7979ZM15 9.31132L1.04 9.31132L1.04 0.111316L3.38 0.111315L3.38 6.67132L6.76 6.67132L6.76 0.871316L9.1 0.871316L9.1 6.67132L12.66 6.67132L12.66 0.111315L15 0.111315L15 9.31132Z" fill="white"/>
</svg>
