<svg width="175" height="101" viewBox="0 0 175 101" fill="none" xmlns="http://www.w3.org/2000/svg">
<path d="M2.25781 31.8947H7.7494V21.2481H18.8975V31.8947H24.3764V6.12118H18.8975V16.7553H7.7494V6.12118H2.25781V31.8947ZM64.7371 19.008C64.7371 10.5762 59.461 5.7688 52.5744 5.7688C45.6496 5.7688 40.4117 10.5762 40.4117 19.008C40.4117 27.402 45.6496 32.2471 52.5744 32.2471C59.461 32.2471 64.7371 27.4397 64.7371 19.008ZM59.1694 19.008C59.1694 24.4698 56.5567 27.4271 52.5744 27.4271C48.5794 27.4271 45.9794 24.4698 45.9794 19.008C45.9794 13.5462 48.5794 10.5887 52.5744 10.5887C56.5567 10.5887 59.1694 13.5462 59.1694 19.008ZM96.8128 6.12118V22.3933C96.8128 25.338 94.7328 27.4649 91.5367 27.4649C88.3535 27.4649 86.2608 25.338 86.2608 22.3933V6.12118H80.7692V22.8589C80.7692 28.4968 85.056 32.2597 91.5367 32.2597C97.9923 32.2597 102.304 28.4968 102.304 22.8589V6.12118H96.8128ZM132.877 13.5336H138.14C138.064 8.94015 134.26 5.7688 128.476 5.7688C122.782 5.7688 118.609 8.88982 118.635 13.5713C118.622 17.3719 121.323 19.5491 125.712 20.5937L128.54 21.2984C131.368 21.9779 132.941 22.7834 132.953 24.5201C132.941 26.4077 131.14 27.6913 128.35 27.6913C125.496 27.6913 123.441 26.3826 123.264 23.8027H117.95C118.089 29.3777 122.11 32.2597 128.413 32.2597C134.754 32.2597 138.483 29.2519 138.496 24.5327C138.483 20.2412 135.224 17.9634 130.709 16.9566L128.375 16.4029C126.117 15.8869 124.228 15.0563 124.266 13.2064C124.266 11.5452 125.75 10.3245 128.438 10.3245C131.064 10.3245 132.674 11.5074 132.877 13.5336ZM154.154 31.8947H171.707V27.402H159.645V21.2481H170.755V16.7553H159.645V10.6139H171.656V6.12118H154.154V31.8947Z" fill="white"/>
<path d="M173.215 49.614H1.78613V53.1579H173.215V49.614Z" fill="#E20E0E"/>
<path d="M16.3484 75.5511H21.6117C21.5356 70.9578 17.7308 67.7864 11.9475 67.7864C6.25298 67.7864 2.08039 70.9073 2.10576 75.5889C2.09309 79.3895 4.79448 81.5667 9.18267 82.6112L12.0109 83.3159C14.8391 83.9955 16.4118 84.801 16.4244 86.5376C16.4118 88.4253 14.6108 89.7089 11.8207 89.7089C8.96707 89.7089 6.91248 88.4001 6.73493 85.8202H1.4209C1.56041 91.3952 5.5808 94.2773 11.8841 94.2773C18.2254 94.2773 21.954 91.2694 21.9667 86.5502C21.954 82.2588 18.6947 79.981 14.1796 78.9742L11.846 78.4204C9.58851 77.9044 7.6988 77.0739 7.73685 75.2239C7.73685 73.5627 9.22071 72.342 11.9094 72.342C14.5347 72.342 16.1454 73.5249 16.3484 75.5511ZM31.8142 72.6315H39.7662V93.9122H45.1944V72.6315H53.1463V68.1386H31.8142V72.6315ZM79.8458 68.1386V84.4108C79.8458 87.3556 77.766 89.4824 74.5699 89.4824C71.3865 89.4824 69.2938 87.3556 69.2938 84.4108V68.1386H63.8022V84.8765C63.8022 90.5144 68.089 94.2773 74.5699 94.2773C81.0253 94.2773 85.3374 90.5144 85.3374 84.8765V68.1386H79.8458ZM106.206 93.9122C114.12 93.9122 118.914 89.0545 118.914 81.0004C118.914 72.9712 114.12 68.1386 106.282 68.1386H96.9985V93.9122H106.206ZM102.49 89.2434V72.8077H105.99C110.861 72.8077 113.435 75.2742 113.435 81.0004C113.435 86.7515 110.861 89.2434 105.978 89.2434H102.49ZM135.617 68.1386H130.125V93.9122H135.617V68.1386ZM171.146 81.0255C171.146 72.5938 165.87 67.7864 158.983 67.7864C152.059 67.7864 146.821 72.5938 146.821 81.0255C146.821 89.4195 152.059 94.2647 158.983 94.2647C165.87 94.2647 171.146 89.4573 171.146 81.0255ZM165.578 81.0255C165.578 86.4873 162.966 89.4447 158.983 89.4447C154.988 89.4447 152.389 86.4873 152.389 81.0255C152.389 75.5637 154.988 72.6064 158.983 72.6064C162.966 72.6064 165.578 75.5637 165.578 81.0255Z" fill="white"/>
</svg>
