<svg version="1.1" xmlns="http://www.w3.org/2000/svg" xmlns:xlink="http://www.w3.org/1999/xlink">

    <symbol viewBox="0 0 34 22" id="icon-menu">
        <rect y="0.181641" width="34" height="3" />
        <rect y="9.45435" width="34" height="3" />
        <rect y="18.7271" width="17.7727" height="3" />
    </symbol>

    <symbol viewBox="0 0 49 49" id="icon-menu-close">
        <rect x="13.082" y="10.9602" width="34" height="3" transform="rotate(45 13.082 10.9602)" />
        <rect x="37.123" y="13.0815" width="34" height="3" transform="rotate(135 37.123 13.0815)" />
    </symbol>

    <symbol viewBox="0 0 124 26" id="title-arrow">
        <path d="M108.242 23.4L110.742 26L123.242 13L110.742 0L108.242 2.6L118.242 13L108.242 23.4Z" />
        <path d="M0 13L120 13" stroke-width="4" stroke-linejoin="round" />
    </symbol>

    <symbol viewBox="0 0 44 20" id="link-arrow">
        <path fill-rule="evenodd" clip-rule="evenodd" d="M33.9998 20L32 18L38.4999 11.5L0 11.5V8.5L38.4999 8.5L32 2L33.9998 0L44 10L33.9998 20Z" />
    </symbol>

    <symbol viewBox="0 0 94 24" id="subtitle-arrow">
        <path d="M93.0607 13.0607C93.6464 12.4749 93.6464 11.5251 93.0607 10.9393L83.5147 1.3934C82.9289 0.807611 81.9792 0.807611 81.3934 1.3934C80.8076 1.97919 80.8076 2.92893 81.3934 3.51472L89.8787 12L81.3934 20.4853C80.8076 21.0711 80.8076 22.0208 81.3934 22.6066C81.9792 23.1924 82.9289 23.1924 83.5147 22.6066L93.0607 13.0607ZM0 13.5L92 13.5V10.5L0 10.5L0 13.5Z" />
    </symbol>

    <symbol viewBox="0 0 59 24" id="gallery-next">
        <path d="M58.0607 13.0607C58.6464 12.4749 58.6464 11.5251 58.0607 10.9394L48.5147 1.39341C47.9289 0.80762 46.9792 0.80762 46.3934 1.39341C45.8076 1.97919 45.8076 2.92894 46.3934 3.51473L54.8787 12L46.3934 20.4853C45.8076 21.0711 45.8076 22.0208 46.3934 22.6066C46.9792 23.1924 47.9289 23.1924 48.5147 22.6066L58.0607 13.0607ZM-2.62268e-07 13.5L57 13.5L57 10.5L2.62268e-07 10.5L-2.62268e-07 13.5Z" />
    </symbol>

    <symbol viewBox="0 0 59 24" id="gallery-prev">
        <path d="M0.939339 10.9393C0.353554 11.5251 0.353554 12.4749 0.939339 13.0607L10.4853 22.6066C11.0711 23.1924 12.0208 23.1924 12.6066 22.6066C13.1924 22.0208 13.1924 21.0711 12.6066 20.4853L4.12132 12L12.6066 3.51472C13.1924 2.92894 13.1924 1.97919 12.6066 1.3934C12.0208 0.807616 11.0711 0.807616 10.4853 1.3934L0.939339 10.9393ZM59 10.5L2 10.5L2 13.5L59 13.5L59 10.5Z" />
    </symbol>

    <symbol viewBox="0 0 24 24" id="services-item-arrow">
        <path d="M18 9L12 15L6 9" stroke-width="1.3" stroke-linecap="round" stroke-linejoin="round" />
    </symbol>

    <symbol viewBox="0 0 24 24" id="slick-next">
        <path fill-rule="evenodd" clip-rule="evenodd" d="M7.99975 21C8.25575 21 8.51175 20.902 8.70675 20.707L16.7068 12.707C17.0978 12.316 17.0978 11.684 16.7068 11.293L8.70675 3.29301C8.31575 2.90201 7.68375 2.90201 7.29275 3.29301C6.90175 3.68401 6.90175 4.31601 7.29275 4.70701L14.5858 12L7.29275 19.293C6.90175 19.684 6.90175 20.316 7.29275 20.707C7.48775 20.902 7.74375 21 7.99975 21Z" />
    </symbol>

    <symbol viewBox="0 0 24 24" id="slick-prev">
        <path fill-rule="evenodd" clip-rule="evenodd" d="M16.0003 3C15.7443 3 15.4883 3.09799 15.2933 3.29299L7.29325 11.293C6.90225 11.684 6.90225 12.316 7.29325 12.707L15.2933 20.707C15.6842 21.098 16.3162 21.098 16.7072 20.707C17.0982 20.316 17.0982 19.684 16.7072 19.293L9.41425 12L16.7073 4.707C17.0983 4.316 17.0983 3.684 16.7073 3.29299C16.5123 3.09799 16.2563 3 16.0003 3Z" />
    </symbol>

    <symbol viewBox="0 0 6 12" id="furnishings-how">
        <path d="M4.48537 0C5.49484 0 5.79297 0.548126 5.79297 1.17441C5.79297 1.95742 5.12287 2.68125 3.98043 2.68125C3.02407 2.68125 2.56921 2.23108 2.59576 1.48765C2.59576 0.861167 3.15684 0 4.48537 0ZM1.8976 12C1.20786 12 0.702263 11.6086 1.18497 9.88606L1.9764 6.83138C2.11391 6.34182 2.13701 6.14612 1.9764 6.14612C1.76937 6.14612 0.873889 6.4842 0.344979 6.81704L0 6.2885C1.67805 4.97756 3.60782 4.20849 4.43507 4.20849C5.12482 4.20849 5.23966 4.97171 4.89512 6.14612L3.98863 9.35732C3.82801 9.92504 3.8971 10.1205 4.05728 10.1205C4.26474 10.1205 4.94283 9.88505 5.60904 9.39549L6 9.88505C4.36772 11.4119 2.58691 12 1.8976 12Z" />
    </symbol>

    <symbol viewBox="0 0 28 24" id="project-header-back">
        <path d="M0.939339 10.9393C0.353554 11.5251 0.353554 12.4749 0.939339 13.0607L10.4853 22.6066C11.0711 23.1924 12.0208 23.1924 12.6066 22.6066C13.1924 22.0208 13.1924 21.0711 12.6066 20.4853L4.12132 12L12.6066 3.51472C13.1924 2.92893 13.1924 1.97919 12.6066 1.3934C12.0208 0.807611 11.0711 0.807611 10.4853 1.3934L0.939339 10.9393ZM28 10.5L2 10.5V13.5L28 13.5V10.5Z" />
    </symbol>

    <symbol viewBox="0 0 81 24" id="project-other-prev">
        <path d="M0.939339 10.9393C0.353554 11.5251 0.353554 12.4749 0.939339 13.0607L10.4853 22.6066C11.0711 23.1924 12.0208 23.1924 12.6066 22.6066C13.1924 22.0208 13.1924 21.0711 12.6066 20.4853L4.12132 12L12.6066 3.51472C13.1924 2.92893 13.1924 1.97919 12.6066 1.3934C12.0208 0.807611 11.0711 0.807611 10.4853 1.3934L0.939339 10.9393ZM81 10.5L2 10.5V13.5L81 13.5V10.5Z" />
    </symbol>

    <symbol viewBox="0 0 81 24" id="project-other-next">
        <path d="M80.0607 13.0607C80.6464 12.4749 80.6464 11.5251 80.0607 10.9393L70.5147 1.3934C69.9289 0.807611 68.9792 0.807611 68.3934 1.3934C67.8076 1.97919 67.8076 2.92893 68.3934 3.51472L76.8787 12L68.3934 20.4853C67.8076 21.0711 67.8076 22.0208 68.3934 22.6066C68.9792 23.1924 69.9289 23.1924 70.5147 22.6066L80.0607 13.0607ZM0 13.5H79V10.5H0L0 13.5Z" />
    </symbol>

    <symbol viewBox="0 0 32 32" id="social-whatsapp">
        <path d="M16.0014 0.666687C7.54673 0.666687 0.668068 7.54535 0.668068 16C0.668068 18.64 1.35007 21.236 2.6434 23.5267L0.692734 30.4867C0.628734 30.7154 0.690734 30.9607 0.856068 31.1307C0.983401 31.262 1.15673 31.3334 1.33473 31.3334C1.38807 31.3334 1.44207 31.3267 1.49473 31.314L8.75873 29.5147C10.9767 30.7054 13.4747 31.3334 16.0014 31.3334C24.4561 31.3334 31.3347 24.4547 31.3347 16C31.3347 7.54535 24.4561 0.666687 16.0014 0.666687ZM23.7147 21.4107C23.3867 22.3187 21.8134 23.1474 21.0574 23.2587C20.3787 23.358 19.5201 23.4007 18.5774 23.1047C18.0061 22.9247 17.2727 22.686 16.3334 22.2854C12.3847 20.6014 9.80607 16.6754 9.60873 16.416C9.41207 16.1567 8.0014 14.3087 8.0014 12.396C8.0014 10.4834 9.01807 9.54269 9.3794 9.15335C9.74073 8.76402 10.1667 8.66669 10.4294 8.66669C10.6921 8.66669 10.9541 8.67002 11.1841 8.68069C11.4261 8.69269 11.7507 8.58935 12.0701 9.34802C12.3981 10.1267 13.1854 12.0394 13.2827 12.2347C13.3814 12.4294 13.4467 12.6567 13.3161 12.916C13.1854 13.1754 13.1201 13.3374 12.9227 13.5647C12.7254 13.792 12.5094 14.0714 12.3321 14.246C12.1347 14.44 11.9301 14.65 12.1594 15.0394C12.3887 15.4287 13.1787 16.7014 14.3494 17.732C15.8527 19.056 17.1214 19.4667 17.5147 19.6614C17.9081 19.856 18.1381 19.8234 18.3674 19.564C18.5967 19.304 19.3514 18.4287 19.6134 18.04C19.8754 17.6514 20.1381 17.7154 20.4994 17.8454C20.8607 17.9747 22.7961 18.9147 23.1894 19.1094C23.5827 19.304 23.8454 19.4014 23.9441 19.5634C24.0427 19.7247 24.0427 20.5034 23.7147 21.4107Z" />
    </symbol>

    <symbol viewBox="0 0 32 32" id="social-telegram">
        <path fill-rule="evenodd" clip-rule="evenodd" d="M32 16C32 24.8365 24.8365 32 16 32C7.16347 32 0 24.8365 0 16C0 7.16347 7.16347 0 16 0C24.8365 0 32 7.16347 32 16ZM10.7143 14.5343C9.11153 15.2341 7.46473 15.9532 5.95883 16.7827C5.17251 17.3584 6.21759 17.7657 7.19807 18.1477C7.35393 18.2084 7.50813 18.2685 7.65313 18.3285C7.7738 18.3656 7.89647 18.4047 8.0208 18.4443C9.11127 18.7917 10.3271 19.1791 11.3858 18.5963C13.1249 17.5973 14.766 16.4424 16.4059 15.2883C16.9432 14.9102 17.4803 14.5322 18.0207 14.1598C18.0461 14.1436 18.0746 14.1251 18.1059 14.1049C18.5662 13.8064 19.6016 13.1353 19.2186 14.0601C18.313 15.0505 17.3429 15.9271 16.3677 16.8087C15.7103 17.4027 15.0506 17.999 14.4066 18.6337C13.8457 19.0894 13.2633 20.0059 13.8913 20.6441C15.3379 21.6567 16.8071 22.6449 18.2755 23.6325C18.7533 23.9538 19.2311 24.2751 19.7079 24.5973C20.516 25.2425 21.779 24.7205 21.9567 23.7123C22.0357 23.2485 22.115 22.7848 22.1943 22.321C22.6327 19.7579 23.0713 17.1938 23.4587 14.6223C23.5113 14.2189 23.571 13.8156 23.6307 13.4121C23.7755 12.434 23.9204 11.4547 23.9657 10.4714C23.849 9.49007 22.6591 9.70587 21.997 9.92653C18.5935 11.2216 15.2241 12.6127 11.8679 14.0283C11.4877 14.1967 11.1023 14.3649 10.7143 14.5343Z" />
    </symbol>

    <symbol viewBox="0 0 25 21" id="about-reviews-item-icon">
        <path d="M15.4723 21C15.2552 21 15.1466 20.8862 15.1466 20.6585V10.7561C15.1466 8.70732 15.608 6.88618 16.5309 5.29268C17.4539 3.64228 18.6482 2.36179 20.114 1.45122C21.6341 0.483739 23.2628 0 25 0V5.29268C23.6428 5.29268 22.4756 5.83333 21.4984 6.91463C20.5755 7.99593 20.114 9.27642 20.114 10.7561H24.6743C24.8914 10.7561 25 10.8699 25 11.0976V20.6585C25 20.8862 24.8914 21 24.6743 21H15.4723ZM0.325733 21C0.108578 21 0 20.8862 0 20.6585V10.7561C0 8.70732 0.461455 6.88618 1.38436 5.29268C2.30727 3.64228 3.50163 2.36179 4.96743 1.45122C6.48751 0.483739 8.11618 0 9.85342 0V5.29268C8.4962 5.29268 7.32899 5.83333 6.35179 6.91463C5.42888 7.99593 4.96743 9.27642 4.96743 10.7561H9.52769C9.74484 10.7561 9.85342 10.8699 9.85342 11.0976V20.6585C9.85342 20.8862 9.74484 21 9.52769 21H0.325733Z" />
    </symbol>

    <symbol viewBox="0 0 46 46" id="faq-arrow">
        <path d="M15 20L13 21.8332L23 31L33 21.8332L31 20L23 27.3332L15 20Z" />
    </symbol>

    <symbol viewBox="0 0 24 8" id="elite-section-item-link">
        <path d="M23.3536 4.35355C23.5488 4.15829 23.5488 3.84171 23.3536 3.64645L20.1716 0.464466C19.9763 0.269204 19.6597 0.269204 19.4645 0.464466C19.2692 0.659728 19.2692 0.976311 19.4645 1.17157L22.2929 4L19.4645 6.82843C19.2692 7.02369 19.2692 7.34027 19.4645 7.53553C19.6597 7.7308 19.9763 7.7308 20.1716 7.53553L23.3536 4.35355ZM0 4.5H23V3.5H0L0 4.5Z" />
    </symbol>

</svg>