<svg version="1.1" xmlns="http://www.w3.org/2000/svg" xmlns:xlink="http://www.w3.org/1999/xlink">

    <symbol viewBox="0 0 34 22" id="icon-menu">
        <rect y="0.181641" width="34" height="3" />
        <rect y="9.45435" width="34" height="3" />
        <rect y="18.7271" width="17.7727" height="3" />
    </symbol>

    <symbol viewBox="0 0 49 49" id="icon-menu-close">
        <rect x="13.082" y="10.9602" width="34" height="3" transform="rotate(45 13.082 10.9602)" />
        <rect x="37.123" y="13.0815" width="34" height="3" transform="rotate(135 37.123 13.0815)" />
    </symbol>

    <symbol viewBox="0 0 124 26" id="title-arrow">
        <path d="M108.242 23.4L110.742 26L123.242 13L110.742 0L108.242 2.6L118.242 13L108.242 23.4Z" />
        <path d="M0 13L120 13" stroke-width="4" stroke-linejoin="round" />
    </symbol>

    <symbol viewBox="0 0 44 20" id="link-arrow">
        <path fill-rule="evenodd" clip-rule="evenodd" d="M33.9998 20L32 18L38.4999 11.5L0 11.5V8.5L38.4999 8.5L32 2L33.9998 0L44 10L33.9998 20Z" />
    </symbol>

    <symbol viewBox="0 0 94 24" id="subtitle-arrow">
        <path d="M93.0607 13.0607C93.6464 12.4749 93.6464 11.5251 93.0607 10.9393L83.5147 1.3934C82.9289 0.807611 81.9792 0.807611 81.3934 1.3934C80.8076 1.97919 80.8076 2.92893 81.3934 3.51472L89.8787 12L81.3934 20.4853C80.8076 21.0711 80.8076 22.0208 81.3934 22.6066C81.9792 23.1924 82.9289 23.1924 83.5147 22.6066L93.0607 13.0607ZM0 13.5L92 13.5V10.5L0 10.5L0 13.5Z" />
    </symbol>

    <symbol viewBox="0 0 59 24" id="gallery-next">
        <path d="M58.0607 13.0607C58.6464 12.4749 58.6464 11.5251 58.0607 10.9394L48.5147 1.39341C47.9289 0.80762 46.9792 0.80762 46.3934 1.39341C45.8076 1.97919 45.8076 2.92894 46.3934 3.51473L54.8787 12L46.3934 20.4853C45.8076 21.0711 45.8076 22.0208 46.3934 22.6066C46.9792 23.1924 47.9289 23.1924 48.5147 22.6066L58.0607 13.0607ZM-2.62268e-07 13.5L57 13.5L57 10.5L2.62268e-07 10.5L-2.62268e-07 13.5Z" />
    </symbol>

    <symbol viewBox="0 0 59 24" id="gallery-prev">
        <path d="M0.939339 10.9393C0.353554 11.5251 0.353554 12.4749 0.939339 13.0607L10.4853 22.6066C11.0711 23.1924 12.0208 23.1924 12.6066 22.6066C13.1924 22.0208 13.1924 21.0711 12.6066 20.4853L4.12132 12L12.6066 3.51472C13.1924 2.92894 13.1924 1.97919 12.6066 1.3934C12.0208 0.807616 11.0711 0.807616 10.4853 1.3934L0.939339 10.9393ZM59 10.5L2 10.5L2 13.5L59 13.5L59 10.5Z" />
    </symbol>

    <symbol viewBox="0 0 24 24" id="services-item-arrow">
        <path d="M18 9L12 15L6 9" stroke-width="1.3" stroke-linecap="round" stroke-linejoin="round" />
    </symbol>

    <symbol viewBox="0 0 24 24" id="slick-next">
        <path fill-rule="evenodd" clip-rule="evenodd" d="M7.99975 21C8.25575 21 8.51175 20.902 8.70675 20.707L16.7068 12.707C17.0978 12.316 17.0978 11.684 16.7068 11.293L8.70675 3.29301C8.31575 2.90201 7.68375 2.90201 7.29275 3.29301C6.90175 3.68401 6.90175 4.31601 7.29275 4.70701L14.5858 12L7.29275 19.293C6.90175 19.684 6.90175 20.316 7.29275 20.707C7.48775 20.902 7.74375 21 7.99975 21Z" />
    </symbol>

    <symbol viewBox="0 0 24 24" id="slick-prev">
        <path fill-rule="evenodd" clip-rule="evenodd" d="M16.0003 3C15.7443 3 15.4883 3.09799 15.2933 3.29299L7.29325 11.293C6.90225 11.684 6.90225 12.316 7.29325 12.707L15.2933 20.707C15.6842 21.098 16.3162 21.098 16.7072 20.707C17.0982 20.316 17.0982 19.684 16.7072 19.293L9.41425 12L16.7073 4.707C17.0983 4.316 17.0983 3.684 16.7073 3.29299C16.5123 3.09799 16.2563 3 16.0003 3Z" />
    </symbol>

    <symbol viewBox="0 0 6 12" id="furnishings-how">
        <path d="M4.48537 0C5.49484 0 5.79297 0.548126 5.79297 1.17441C5.79297 1.95742 5.12287 2.68125 3.98043 2.68125C3.02407 2.68125 2.56921 2.23108 2.59576 1.48765C2.59576 0.861167 3.15684 0 4.48537 0ZM1.8976 12C1.20786 12 0.702263 11.6086 1.18497 9.88606L1.9764 6.83138C2.11391 6.34182 2.13701 6.14612 1.9764 6.14612C1.76937 6.14612 0.873889 6.4842 0.344979 6.81704L0 6.2885C1.67805 4.97756 3.60782 4.20849 4.43507 4.20849C5.12482 4.20849 5.23966 4.97171 4.89512 6.14612L3.98863 9.35732C3.82801 9.92504 3.8971 10.1205 4.05728 10.1205C4.26474 10.1205 4.94283 9.88505 5.60904 9.39549L6 9.88505C4.36772 11.4119 2.58691 12 1.8976 12Z" />
    </symbol>

    <symbol viewBox="0 0 28 24" id="project-header-back">
        <path d="M0.939339 10.9393C0.353554 11.5251 0.353554 12.4749 0.939339 13.0607L10.4853 22.6066C11.0711 23.1924 12.0208 23.1924 12.6066 22.6066C13.1924 22.0208 13.1924 21.0711 12.6066 20.4853L4.12132 12L12.6066 3.51472C13.1924 2.92893 13.1924 1.97919 12.6066 1.3934C12.0208 0.807611 11.0711 0.807611 10.4853 1.3934L0.939339 10.9393ZM28 10.5L2 10.5V13.5L28 13.5V10.5Z" />
    </symbol>
    
    <symbol viewBox="0 0 81 24" id="project-other-prev">
        <path d="M0.939339 10.9393C0.353554 11.5251 0.353554 12.4749 0.939339 13.0607L10.4853 22.6066C11.0711 23.1924 12.0208 23.1924 12.6066 22.6066C13.1924 22.0208 13.1924 21.0711 12.6066 20.4853L4.12132 12L12.6066 3.51472C13.1924 2.92893 13.1924 1.97919 12.6066 1.3934C12.0208 0.807611 11.0711 0.807611 10.4853 1.3934L0.939339 10.9393ZM81 10.5L2 10.5V13.5L81 13.5V10.5Z" />
    </symbol>

    <symbol viewBox="0 0 81 24" id="project-other-next">
        <path d="M80.0607 13.0607C80.6464 12.4749 80.6464 11.5251 80.0607 10.9393L70.5147 1.3934C69.9289 0.807611 68.9792 0.807611 68.3934 1.3934C67.8076 1.97919 67.8076 2.92893 68.3934 3.51472L76.8787 12L68.3934 20.4853C67.8076 21.0711 67.8076 22.0208 68.3934 22.6066C68.9792 23.1924 69.9289 23.1924 70.5147 22.6066L80.0607 13.0607ZM0 13.5H79V10.5H0L0 13.5Z" />
    </symbol>

</svg>