<svg width="174" height="174" viewBox="0 0 174 174" fill="none" xmlns="http://www.w3.org/2000/svg">
<path d="M37.4645 94.4966H36.7441V98.2671H37.4645V94.4966Z" fill="#575756"/>
<path d="M40.3816 95.1345V98.2608H39.6671V95.1345H38.5098V94.4966H41.5448V95.1345H40.3816Z" fill="#575756"/>
<path d="M43.4878 95.3368L42.9327 96.9221H44.0487L43.4878 95.3368ZM44.5211 98.261L44.2672 97.541H42.7142L42.4604 98.261H41.74L43.1158 94.4715H43.8952L45.271 98.261H44.5211Z" fill="#575756"/>
<path d="M46.2812 98.2608V94.4966H46.9898V97.6166H48.8085V98.2608H46.2812Z" fill="#575756"/>
<path d="M50.5912 94.4968H49.8709V98.2673H50.5912V94.4968Z" fill="#575756"/>
<path d="M53.3435 95.3369L52.753 96.9222H53.934L53.3435 95.3369ZM54.3768 98.2612L54.117 97.5411H52.5759L52.322 98.2612H51.6016L52.9774 94.4717H53.7568L55.1326 98.2612H54.3768Z" fill="#575756"/>
<path d="M58.5399 98.2608L56.8453 95.6713V98.2608H56.1426V94.4966H56.8984L58.5695 97.0482V94.4966H59.2721V98.2608H58.5399Z" fill="#575756"/>
<path d="M63.7361 95.3369L63.181 96.9222H64.2972L63.7361 95.3369ZM64.7696 98.2612L64.5154 97.5411H62.9626L62.7087 98.2612H61.9883L63.3641 94.4717H64.1434L65.5194 98.2612H64.7696Z" fill="#575756"/>
<path d="M68.175 95.0969H67.2361V96.2211H68.1866C68.5943 96.2211 68.8244 96.019 68.8244 95.6653C68.8171 95.5823 68.7942 95.5015 68.7578 95.4279C68.721 95.3542 68.671 95.2891 68.6105 95.2362C68.5501 95.1834 68.4807 95.1438 68.4059 95.1199C68.3312 95.096 68.2525 95.0882 68.175 95.0969ZM68.7655 98.2548L68.1041 96.8401H67.2419V98.2612H66.5273V94.4717H68.175C69.1077 94.4717 69.5332 95.0338 69.5332 95.6401C69.5374 95.8751 69.47 96.1053 69.3414 96.2956C69.2123 96.486 69.0287 96.6261 68.8186 96.6948L69.5332 98.2359L68.7655 98.2548Z" fill="#575756"/>
<path d="M73.1937 97.8883C72.8856 98.1782 72.4881 98.3357 72.0777 98.3304C71.672 98.3448 71.276 98.1961 70.9679 97.9136C70.7807 97.7152 70.6385 97.474 70.5513 97.2081C70.4645 96.9422 70.4351 96.6586 70.4657 96.3788C70.4343 96.101 70.4618 95.8191 70.5467 95.5544C70.6315 95.2896 70.7714 95.049 70.9559 94.8504C71.2709 94.5782 71.6638 94.4297 72.0692 94.4297C72.4741 94.4297 72.867 94.5782 73.1821 94.8504C73.3983 95.0624 73.5328 95.3528 73.5599 95.6651H72.8279C72.8143 95.5156 72.7543 95.3753 72.6566 95.2672C72.578 95.1875 72.4853 95.1256 72.3838 95.0854C72.2823 95.0452 72.1742 95.0276 72.0661 95.0336C71.8464 95.0355 71.6356 95.1256 71.4755 95.2862C71.3659 95.4381 71.2853 95.6118 71.2388 95.7971C71.1923 95.9825 71.1802 96.1759 71.2039 96.3662C71.1799 96.5575 71.1915 96.752 71.238 96.9385C71.2845 97.125 71.3655 97.2997 71.4755 97.4525C71.6356 97.6131 71.8464 97.7032 72.0661 97.7051C72.1746 97.7099 72.2827 97.6911 72.3842 97.6499C72.4857 97.6086 72.5783 97.5458 72.6566 97.4651C72.7543 97.3497 72.8143 97.2034 72.8279 97.0483H73.5599C73.5293 97.3632 73.3956 97.6564 73.1821 97.8757" fill="#575756"/>
<path d="M77.0567 98.2608V96.6187H75.4505V98.2608H74.7363V94.4966H75.4505V95.9682H77.0567V94.4966H77.7712V98.2608H77.0567Z" fill="#575756"/>
<path d="M79.9547 94.4966H79.2344V98.2671H79.9547V94.4966Z" fill="#575756"/>
<path d="M82.8798 95.1345V98.2608H82.1653V95.1345H81.0078V94.4966H84.0369V95.1345H82.8798Z" fill="#575756"/>
<path d="M85.082 98.2608V94.4966H87.8689V95.1155H85.7904V95.9934H87.6209V96.6123H85.7904V97.6418H87.8689V98.2608H85.082Z" fill="#575756"/>
<path d="M91.5475 97.8883C91.2394 98.1782 90.8418 98.3357 90.4315 98.3304C90.0261 98.3435 89.6305 98.195 89.3213 97.9136C89.1364 97.7141 88.9965 97.4723 88.9113 97.2064C88.8264 96.9406 88.7993 96.6576 88.8315 96.3788C88.7997 96.101 88.8272 95.8191 88.9121 95.5544C88.9969 95.2896 89.1368 95.049 89.3213 94.8504C89.6367 94.5782 90.0292 94.4297 90.4346 94.4297C90.8395 94.4297 91.2324 94.5782 91.5475 94.8504C91.7637 95.0624 91.8985 95.3528 91.9253 95.6651H91.1991C91.1832 95.5151 91.1208 95.375 91.022 95.2672C90.9437 95.1875 90.8507 95.1256 90.7492 95.0854C90.6477 95.0452 90.5396 95.0276 90.4315 95.0336C90.2121 95.0355 90.0013 95.1256 89.8409 95.2862C89.7312 95.4381 89.6507 95.6118 89.6042 95.7971C89.5577 95.9825 89.5456 96.1759 89.5693 96.3662C89.5453 96.5575 89.5569 96.752 89.6034 96.9385C89.6503 97.125 89.7309 97.2997 89.8409 97.4525C90.0013 97.6131 90.2121 97.7032 90.4315 97.7051C90.54 97.7099 90.6485 97.6911 90.7496 97.6499C90.8511 97.6086 90.9437 97.5458 91.022 97.4651C91.1216 97.3503 91.1836 97.204 91.1991 97.0483H91.9253C91.895 97.3632 91.761 97.6564 91.5475 97.8757" fill="#575756"/>
<path d="M94.4287 95.1345V98.2608H93.7141V95.1345H92.5566V94.4966H95.5857V95.1345H94.4287Z" fill="#575756"/>
<path d="M98.0525 98.3303C97.8553 98.3583 97.6545 98.3396 97.465 98.2755C97.2752 98.2115 97.1012 98.1037 96.9547 97.9597C96.8082 97.8157 96.6931 97.6391 96.6176 97.4423C96.542 97.2455 96.5075 97.0333 96.5172 96.8208V94.4966H97.2318V96.8082C97.2318 97.041 97.3182 97.2643 97.472 97.4289C97.6259 97.5936 97.8347 97.6861 98.0525 97.6861C98.2699 97.6861 98.4787 97.5936 98.6326 97.4289C98.7868 97.2643 98.8732 97.041 98.8732 96.8082V94.4966H99.5878V96.8208C99.5971 97.0333 99.563 97.2455 99.4874 97.4423C99.4119 97.6391 99.2968 97.8157 99.1503 97.9597C99.0038 98.1037 98.8294 98.2115 98.64 98.2755C98.4501 98.3396 98.2497 98.3583 98.0525 98.3303Z" fill="#575756"/>
<path d="M102.6 95.0968H101.661V96.221H102.606C103.014 96.221 103.244 96.019 103.244 95.6652C103.229 95.4986 103.153 95.3451 103.032 95.2385C102.912 95.132 102.756 95.081 102.6 95.0968ZM103.191 98.2547L102.535 96.8337H101.673V98.2547H100.953V94.4652H102.606C103.539 94.4652 103.964 95.0273 103.964 95.6337C103.967 95.8692 103.899 96.0995 103.769 96.2898C103.639 96.48 103.455 96.6199 103.244 96.6884L103.964 98.2295L103.191 98.2547Z" fill="#575756"/>
<path d="M106.427 95.3369L105.896 96.9222H107.012L106.427 95.3369ZM107.461 98.2612L107.207 97.5411H105.654L105.4 98.2612H104.68L106.055 94.4717H106.835L108.211 98.2612H107.461Z" fill="#575756"/>
<path d="M109.219 98.2608V94.4966H109.927V97.6166H111.746V98.2608H109.219Z" fill="#575756"/>
<path d="M116.454 95.3241C116.299 95.1835 116.101 95.1072 115.898 95.1094H115.09V97.6357H115.898C116.101 97.6379 116.299 97.5616 116.454 97.421C116.564 97.2745 116.646 97.1054 116.693 96.9241C116.741 96.7428 116.754 96.553 116.731 96.3663C116.754 96.1795 116.742 95.9896 116.694 95.8082C116.646 95.6269 116.564 95.4578 116.454 95.3115M116.997 97.8379C116.692 98.1177 116.299 98.2624 115.898 98.242H114.375V94.4526H115.898C116.299 94.4322 116.692 94.5769 116.997 94.8568C117.167 95.0541 117.296 95.288 117.375 95.5427C117.455 95.7976 117.483 96.0675 117.457 96.3347C117.483 96.6019 117.455 96.8718 117.375 97.1266C117.296 97.3814 117.167 97.6152 116.997 97.8126" fill="#575756"/>
<path d="M120.715 95.2989C120.545 95.1369 120.326 95.0473 120.098 95.0473C119.871 95.0473 119.651 95.1369 119.481 95.2989C119.37 95.45 119.287 95.6232 119.239 95.8086C119.19 95.9939 119.176 96.1877 119.198 96.3789C119.176 96.57 119.189 96.7639 119.238 96.9493C119.287 97.1347 119.369 97.3079 119.481 97.4589C119.651 97.6209 119.871 97.7104 120.098 97.7104C120.326 97.7104 120.545 97.6209 120.715 97.4589C120.827 97.3079 120.91 97.1347 120.958 96.9493C121.007 96.7639 121.021 96.57 120.999 96.3789C121.02 96.1877 121.006 95.9939 120.958 95.8086C120.909 95.6232 120.827 95.45 120.715 95.2989ZM121.223 97.9073C120.906 98.186 120.508 98.3383 120.098 98.3383C119.688 98.3383 119.29 98.186 118.973 97.9073C118.788 97.7096 118.646 97.4692 118.56 97.2043C118.474 96.9395 118.446 96.6572 118.477 96.3789C118.447 96.1006 118.475 95.8184 118.561 95.5536C118.647 95.2889 118.788 95.0484 118.973 94.8504C119.29 94.5718 119.688 94.4194 120.098 94.4194C120.508 94.4194 120.906 94.5718 121.223 94.8504C121.409 95.0481 121.551 95.2883 121.638 95.553C121.725 95.8178 121.755 96.1001 121.725 96.3789C121.755 96.6577 121.726 96.9401 121.639 97.205C121.552 97.4698 121.41 97.7099 121.223 97.9073Z" fill="#575756"/>
<path d="M124.981 95.2989C124.811 95.1369 124.591 95.0473 124.364 95.0473C124.136 95.0473 123.917 95.1369 123.747 95.2989C123.635 95.45 123.553 95.6232 123.504 95.8086C123.455 95.9939 123.442 96.1877 123.463 96.3789C123.441 96.57 123.455 96.7639 123.504 96.9493C123.552 97.1347 123.635 97.3079 123.747 97.4589C123.917 97.6209 124.136 97.7104 124.364 97.7104C124.591 97.7104 124.811 97.6209 124.981 97.4589C125.093 97.3079 125.175 97.1347 125.224 96.9493C125.272 96.7639 125.286 96.57 125.264 96.3789C125.286 96.1877 125.272 95.9939 125.223 95.8086C125.175 95.6232 125.092 95.45 124.981 95.2989ZM125.489 97.9073C125.172 98.186 124.774 98.3383 124.364 98.3383C123.953 98.3383 123.556 98.186 123.239 97.9073C123.053 97.7096 122.912 97.4692 122.826 97.2043C122.74 96.9395 122.711 96.6572 122.743 96.3789C122.712 96.1006 122.741 95.8184 122.827 95.5536C122.912 95.2889 123.053 95.0484 123.239 94.8504C123.556 94.5718 123.953 94.4194 124.364 94.4194C124.774 94.4194 125.172 94.5718 125.489 94.8504C125.674 95.0484 125.815 95.2889 125.901 95.5536C125.987 95.8184 126.016 96.1006 125.985 96.3789C126.016 96.6572 125.988 96.9395 125.902 97.2043C125.816 97.4692 125.674 97.7096 125.489 97.9073Z" fill="#575756"/>
<path d="M128.882 95.0969H127.943V96.2211H128.888C129.295 96.2211 129.526 96.019 129.526 95.6653C129.511 95.4987 129.434 95.3452 129.314 95.2386C129.193 95.1321 129.038 95.0811 128.882 95.0969ZM129.473 98.2548L128.817 96.8338H127.955V98.2548H127.234V94.4653H128.888C129.815 94.4653 130.246 95.0274 130.246 95.6338C130.255 95.8763 130.188 96.115 130.055 96.312C129.922 96.5088 129.732 96.6525 129.514 96.7201L130.234 98.2611L129.473 98.2548Z" fill="#575756"/>
<path d="M133.944 97.9262C133.592 98.2173 133.153 98.361 132.709 98.3304C132.287 98.3481 131.871 98.2123 131.529 97.9452C131.405 97.8391 131.305 97.7057 131.235 97.5541C131.164 97.4026 131.126 97.2365 131.121 97.0673H131.877C131.879 97.1548 131.898 97.241 131.932 97.3204C131.967 97.3997 132.016 97.4706 132.078 97.5283C132.266 97.678 132.499 97.7498 132.733 97.7304C132.975 97.7537 133.216 97.6818 133.412 97.5283C133.463 97.4858 133.504 97.4311 133.532 97.3686C133.56 97.3061 133.573 97.2375 133.572 97.1683C133.572 96.8904 133.347 96.7641 133.105 96.7199C132.863 96.6757 132.515 96.6631 132.237 96.6189C131.978 96.6126 131.731 96.5005 131.546 96.3055C131.362 96.1106 131.254 95.8476 131.245 95.5704C131.249 95.4271 131.281 95.2863 131.34 95.1576C131.399 95.029 131.483 94.9155 131.588 94.8252C131.914 94.5535 132.32 94.4127 132.733 94.4273C133.127 94.4153 133.514 94.5442 133.831 94.7936C133.947 94.8892 134.042 95.0103 134.111 95.1487C134.179 95.287 134.219 95.4395 134.227 95.5957H133.495C133.483 95.4532 133.422 95.3205 133.324 95.2231C133.153 95.0875 132.945 95.0163 132.733 95.021C132.506 95.0074 132.282 95.0813 132.101 95.2294C132.059 95.2685 132.026 95.3171 132.003 95.3717C131.981 95.4263 131.97 95.4855 131.971 95.5452C131.971 95.7915 132.137 95.9178 132.367 95.9557C132.597 95.9936 132.957 96.0189 133.217 96.0504C133.493 96.0516 133.758 96.1654 133.958 96.3685C134.157 96.5716 134.277 96.8487 134.292 97.1431C134.295 97.2912 134.268 97.4383 134.212 97.5738C134.156 97.7093 134.072 97.8297 133.967 97.9262" fill="#575756"/>
<path d="M147.311 76.4652H147.075V76.8947H147.311C147.441 76.8947 147.524 76.8315 147.524 76.6926C147.524 76.6638 147.518 76.6352 147.507 76.6089C147.496 76.5826 147.48 76.5591 147.46 76.5399C147.44 76.5208 147.416 76.5065 147.39 76.4979C147.365 76.4894 147.338 76.4869 147.311 76.4905M147.518 77.5831L147.317 77.1031H147.075V77.5831H146.862V76.2631H147.311C147.365 76.2569 147.419 76.2629 147.471 76.2807C147.523 76.2985 147.571 76.3276 147.611 76.3663C147.652 76.4049 147.685 76.4523 147.707 76.5052C147.729 76.5581 147.742 76.6155 147.742 76.6736C147.747 76.7525 147.729 76.8311 147.69 76.8981C147.65 76.9651 147.592 77.017 147.524 77.0463L147.754 77.5642L147.518 77.5831ZM147.264 75.922C147.137 75.9173 147.01 75.9412 146.892 75.992C146.774 76.0428 146.668 76.1195 146.579 76.2171C146.491 76.3147 146.422 76.431 146.379 76.5586C146.335 76.6862 146.317 76.8222 146.325 76.9578C146.315 77.096 146.331 77.2349 146.374 77.3659C146.416 77.4968 146.483 77.617 146.571 77.7188C146.659 77.8206 146.766 77.9018 146.884 77.9574C147.003 78.0129 147.131 78.0416 147.261 78.0416C147.39 78.0416 147.519 78.0129 147.637 77.9574C147.756 77.9018 147.862 77.8206 147.95 77.7188C148.038 77.617 148.106 77.4968 148.148 77.3659C148.19 77.2349 148.207 77.096 148.197 76.9578C148.204 76.8233 148.185 76.6885 148.141 76.5621C148.098 76.4357 148.029 76.3205 147.942 76.2237C147.854 76.1269 147.748 76.0506 147.632 75.9998C147.515 75.949 147.39 75.9246 147.264 75.9284M147.264 78.2084C147.109 78.2102 146.956 78.1785 146.814 78.1153C146.672 78.052 146.543 77.9585 146.435 77.8404C146.328 77.7223 146.243 77.5821 146.188 77.4282C146.133 77.2744 146.107 77.11 146.112 76.9452C146.101 76.7765 146.122 76.6071 146.175 76.4475C146.228 76.288 146.31 76.1418 146.418 76.018C146.526 75.8941 146.656 75.7954 146.801 75.7279C146.946 75.6603 147.103 75.6255 147.261 75.6255C147.419 75.6255 147.575 75.6603 147.721 75.7279C147.866 75.7954 147.996 75.8941 148.103 76.018C148.212 76.1418 148.294 76.288 148.347 76.4475C148.399 76.6071 148.42 76.7765 148.409 76.9452C148.415 77.1095 148.389 77.2733 148.334 77.4267C148.279 77.5802 148.195 77.7201 148.088 77.8381C147.981 77.9561 147.853 78.0498 147.711 78.1134C147.57 78.177 147.418 78.2093 147.264 78.2084Z" fill="#666665"/>
<path d="M31.7249 86.2929C32.9767 86.2929 33.7325 85.8382 33.7325 84.8593V84.8213C33.7325 83.9434 33.0889 83.394 31.6304 83.394H28.3533V86.2929H31.7249ZM30.9691 80.9877C32.2209 80.9877 33.0121 80.5772 33.0121 79.5982V79.5603C33.0121 78.695 32.3508 78.2087 31.1521 78.2087H28.3533V80.9877H30.9691ZM25.5898 75.6698H31.5773C32.7985 75.5839 34.0043 75.9995 34.9489 76.8319C35.2346 77.1185 35.4607 77.4663 35.6122 77.8526C35.7638 78.239 35.8376 78.6551 35.8287 79.074C35.8445 79.6787 35.6918 80.2748 35.39 80.7865C35.0883 81.2982 34.6511 81.7024 34.1341 81.9477C35.6279 82.5287 36.5491 83.4129 36.5491 85.1813V85.2193C36.5491 87.6256 34.6359 88.8256 31.7249 88.8256H25.5898V75.6698Z" fill="#005A97"/>
<path d="M39.4258 75.6694H42.26V86.1979H48.6903V88.8252H39.4258V75.6694Z" fill="#005A97"/>
<path d="M50.3027 83.2105V75.6694H53.137V83.1094C53.137 85.2568 54.188 86.3621 55.9182 86.3621C57.6483 86.3621 58.7052 85.2947 58.7052 83.2042V75.6694H61.5395V83.0905C61.5395 87.0821 59.3488 89.0336 55.8827 89.0336C52.4166 89.0336 50.3027 87.0631 50.3027 83.2105Z" fill="#005A97"/>
<path d="M68.7604 75.6694H65.9258V88.8315H68.7604V75.6694Z" fill="#706F6F"/>
<path d="M72.5215 75.6694H75.1375L81.1778 83.7725V75.6694H83.9767V88.8252H81.5618L75.3204 80.4631V88.8252H72.5215V75.6694Z" fill="#706F6F"/>
<path d="M90.6082 78.3347H86.6875V75.6694H97.3693V78.3347H93.4428V88.8252H90.6082V78.3347Z" fill="#706F6F"/>
<path d="M100.072 75.6694H109.797V78.2463H102.889V80.9115H108.971V83.4884H102.889V86.2547H109.892V88.8252H100.072V75.6694Z" fill="#706F6F"/>
<path d="M126.797 75.6694H129.412L135.453 83.7726V75.6694H138.252V88.8252H135.843L129.596 80.4631V88.8252H126.797V75.6694Z" fill="#706F6F"/>
<path d="M144.848 75.6694H142.014V88.8315H144.848V75.6694Z" fill="#706F6F"/>
<path d="M115.785 78.2781H118.602C119.983 78.2781 120.834 78.9097 120.834 80.1729V80.2107C120.834 81.3224 120.042 82.0739 118.661 82.0739H116.37C116.6 82.4339 120.775 88.8381 120.775 88.8381H124.093L120.94 84.1392C121.76 83.8849 122.478 83.3448 122.979 82.6044C123.479 81.8641 123.734 80.966 123.703 80.0529V80.0086C123.724 79.4531 123.636 78.899 123.446 78.3816C123.256 77.8641 122.968 77.3944 122.599 77.0023C121.556 76.0542 120.21 75.5763 118.844 75.6697H112.98V88.8255H115.809L115.785 78.2781Z" fill="#706F6F"/>
</svg>
