<svg width="174" height="174" viewBox="0 0 174 174" fill="none" xmlns="http://www.w3.org/2000/svg">
<path fill-rule="evenodd" clip-rule="evenodd" d="M29 33H146V150H29V33Z" fill="white"/>
<path fill-rule="evenodd" clip-rule="evenodd" d="M46.3642 97.3513H46.2914C45.2595 99.6881 42.6495 100.951 40.337 100.951C35.0078 100.951 34.1641 97.1996 34.1641 95.4393C34.1641 88.8901 40.8529 88.5866 45.7087 88.5866H46.1518V87.5912C46.1518 84.2589 45.0107 82.5776 41.8908 82.5776C39.9424 82.5776 38.1033 83.0389 36.3795 84.1861V81.8492C37.812 81.1209 40.2399 80.5078 41.8908 80.5078C46.522 80.5078 48.4704 82.6929 48.4704 87.7854V96.3983C48.4704 97.9704 48.4704 99.154 48.6525 100.495H46.3763V97.3574L46.3642 97.3513ZM46.1457 90.6503H45.4841C41.4781 90.6503 36.7012 91.0691 36.7012 95.3604C36.7012 97.9279 38.4675 98.8809 40.598 98.8809C46.0364 98.8809 46.1457 93.9401 46.1457 91.8339V90.6443V90.6503Z" fill="#1D1D1B"/>
<path fill-rule="evenodd" clip-rule="evenodd" d="M51.259 85.3269C51.259 83.1843 51.259 82.377 51.1133 80.9628H53.4258V84.7139H53.4987C54.3424 82.5287 55.9266 80.5015 58.312 80.5015C58.8643 80.5015 59.5259 80.6168 59.9326 80.7321V83.2571C59.4531 83.1054 58.8279 83.0265 58.2391 83.0265C54.5609 83.0265 53.5715 87.3178 53.5715 90.8382V100.489H51.259V85.3269Z" fill="#1D1D1B"/>
<path fill-rule="evenodd" clip-rule="evenodd" d="M61.5879 74.4683H63.9065V88.9628L72.2827 80.9629H75.263L66.1098 89.6122L76.3677 100.489H73.1689L63.9065 90.4559V100.489H61.5879V74.4683Z" fill="#1D1D1B"/>
<path fill-rule="evenodd" clip-rule="evenodd" d="M88.4821 99.8763C86.8675 100.568 84.7674 100.951 83.0436 100.951C76.8343 100.951 74.5156 96.5865 74.5156 90.7292C74.5156 84.8719 77.678 80.5078 82.4184 80.5078C87.7112 80.5078 89.8781 84.9509 89.8781 90.1951V91.4212H77.0467C77.0467 95.5547 79.1772 98.8869 83.2196 98.8869C84.9131 98.8869 87.3713 98.1586 88.476 97.4302V99.8824L88.4821 99.8763ZM87.341 89.3453C87.341 85.9341 86.0178 82.5655 82.5641 82.5655C79.1104 82.5655 77.0528 86.1284 77.0528 89.3453H87.347H87.341Z" fill="#1D1D1B"/>
<path fill-rule="evenodd" clip-rule="evenodd" d="M99.3047 83.0266H95.0377V95.6638C95.0377 97.424 95.6629 98.8807 97.5384 98.8807C98.4185 98.8807 99.0073 98.6865 99.6689 98.4194L99.8146 100.41C99.2622 100.641 98.1211 100.944 96.9861 100.944C92.8708 100.944 92.7251 97.9946 92.7251 94.4316V83.0205H89.0469V80.9508H92.7251V76.2407L95.0377 75.397V80.9508H99.3047V83.0205V83.0266Z" fill="#1D1D1B"/>
<path fill-rule="evenodd" clip-rule="evenodd" d="M103.93 77.7886H101.611V74.4624H103.93V77.7886ZM101.611 80.957H103.93V100.483H101.611V80.957Z" fill="#1D1D1B"/>
<path fill-rule="evenodd" clip-rule="evenodd" d="M106.311 80.963H108.629L108.484 84.526H108.556C109.145 83.4516 110.578 80.5078 114.547 80.5078C120.058 80.5078 122.268 84.7991 122.268 90.7292C122.268 96.6594 119.694 100.951 114.547 100.951C111.603 100.951 109.843 99.6881 108.702 97.1571H108.629V108.532H106.311V80.963ZM114.177 82.5715C110.062 82.5715 108.629 87.1663 108.629 90.7292C108.629 94.2922 110.062 98.8869 114.177 98.8869C118.59 98.8869 119.725 94.5228 119.725 90.7292C119.725 86.9357 118.584 82.5715 114.177 82.5715Z" fill="#1D1D1B"/>
<path fill-rule="evenodd" clip-rule="evenodd" d="M132.088 80.5017C138.152 80.5017 140.835 85.3999 140.835 90.7231C140.835 96.0462 138.152 100.944 132.088 100.944C126.025 100.944 123.342 96.0402 123.342 90.7231C123.342 85.406 126.025 80.5017 132.088 80.5017ZM132.088 98.8808C136.131 98.8808 138.298 95.245 138.298 90.7231C138.298 86.2011 136.131 82.5654 132.088 82.5654C128.046 82.5654 125.879 86.2011 125.879 90.7231C125.879 95.245 128.046 98.8808 132.088 98.8808Z" fill="#1D1D1B"/>
</svg>
