<svg width="174" height="174" viewBox="0 0 174 174" fill="none" xmlns="http://www.w3.org/2000/svg">
<path d="M31.9986 99.7665C35.8558 88.6614 39.29 77.3922 43.0672 66.252C43.49 67.0544 43.9072 67.8685 44.2043 68.7354C47.8729 79.659 51.5529 90.5767 55.2729 101.477C56.1015 101.471 56.93 101.465 57.7586 101.459C57.73 99.1925 57.65 96.92 57.8443 94.6591C58.9586 96.3811 59.0615 98.6478 60.53 100.147C62.8158 102.719 67.8158 102.865 69.4215 99.462C70.01 97.6462 70.0386 95.0632 68.1472 94.0324C65.3929 92.6091 61.7186 93.8098 59.3815 91.4142C56.9758 88.2631 58.0272 82.6637 61.8729 81.2287C64.2215 80.315 66.73 81.1642 68.7986 82.3942C69.2443 82.2361 69.69 82.0838 70.1358 81.9257C70.2329 83.7941 70.3758 85.6801 69.9929 87.5251C69.3929 85.9027 69.1129 83.9757 67.69 82.8511C65.5358 81.0588 61.7929 81.1057 60.1243 83.554C59.33 85.0768 59.3872 87.5017 61.0558 88.3978C64.0158 90.0144 68.0615 88.3685 70.5529 91.0628C73.7072 95.0691 71.0786 102.455 65.8443 102.771C63.2443 103.234 61.0329 101.729 58.8558 100.575C58.7872 100.979 58.65 101.793 58.5815 102.203C54.0672 102.186 49.5529 102.221 45.0386 102.18L44.9872 101.489C46.5758 101.465 48.17 101.465 49.7643 101.442C48.65 97.9567 47.4329 94.501 46.3758 90.9925C42.9072 90.9222 39.4386 90.9691 35.97 90.9515C35.1986 94.4072 33.01 97.6872 33.5472 101.325C35.17 101.389 36.8043 101.43 38.4043 101.746C35.0043 102.736 31.3815 101.957 27.8958 102.186L27.8672 101.524C29.4043 101.471 31.49 101.711 31.9986 99.7665ZM40.2729 77.3864C38.9758 81.6621 37.5815 85.9027 36.25 90.1608C39.53 90.1725 42.81 90.1725 46.09 90.1608C44.4215 85.3638 42.8615 80.5375 41.2443 75.723C40.7986 76.2091 40.4729 76.7597 40.2729 77.3864Z" fill="#231F20"/>
<path d="M76.1517 80.6198C77.9517 79.132 78.1859 76.6076 79.0374 74.5518C79.3517 77.0352 79.2317 79.5362 79.2488 82.0313C81.6545 82.125 84.1231 81.7092 86.4774 82.4003C84.1402 83.1735 81.6545 82.6932 79.2488 82.8103C79.2545 88.3395 79.2202 93.8686 79.2545 99.3978C79.1459 100.651 79.7974 102.233 81.2545 102.086C83.4317 102.52 84.6888 100.464 85.6488 98.8589C82.0488 93.0603 84.1688 84.1575 90.5345 81.4808C95.9002 79.3839 101.312 84.7959 101.712 90.1142C97.3231 90.1552 92.9288 90.1083 88.5345 90.1435C88.8031 93.8803 87.5288 98.6422 90.6659 101.436C95.0088 103.896 100.757 100.329 101.306 95.3973C101.523 95.4442 101.957 95.5379 102.175 95.5848C101.403 98.3259 99.9059 101.079 97.2259 102.238C93.3802 104.095 88.7459 102.643 85.9631 99.5266C85.1802 101.424 83.3859 102.941 81.2945 102.83C78.9859 103.099 75.7459 102.484 75.3002 99.673C75.0488 94.0678 75.2774 88.439 75.1974 82.8279C73.6888 82.6405 71.8602 83.3023 70.5859 82.2539C72.4659 81.879 74.5917 81.9435 76.1517 80.6198ZM89.4545 83.7826C88.4831 85.4285 88.5631 87.414 88.4831 89.2649C91.3174 89.2883 94.1517 89.2883 96.9859 89.2649C96.9117 86.9103 97.1231 83.9349 95.0031 82.3886C93.2031 81.4222 90.4488 81.7678 89.4545 83.7826Z" fill="#231F20"/>
<path d="M124.427 85.3345C124.404 83.7179 124.404 82.1072 124.427 80.4965C131.547 80.5141 138.661 80.4848 145.781 80.5141C142.673 83.0151 139.479 85.4048 136.307 87.8121C134.627 88.9425 132.536 90.3775 130.479 89.4228C128.313 88.31 126.456 86.6699 124.427 85.3345Z" fill="#231F20"/>
<path d="M100.393 82.1247C103.13 82.0662 105.975 82.4469 108.558 81.2989C108.524 83.3665 108.564 85.4399 108.598 87.5075C108.913 83.9815 111.987 80.4145 115.661 81.0822C117.507 81.2813 118.81 83.5949 117.787 85.2583C117.164 86.6699 115.444 86.0783 114.273 86.1545C113.507 84.6492 113.821 83.056 114.41 81.5507C110.764 82.5113 108.918 86.3536 108.638 89.9265C108.415 93.8039 108.61 97.6872 108.547 101.565C110.158 101.676 112.061 101.073 113.393 102.32C109.084 102.601 104.77 102.39 100.461 102.455L100.438 101.57C101.775 101.57 103.113 101.565 104.455 101.565C104.444 95.3385 104.484 89.1123 104.433 82.8803C103.09 82.8803 101.747 82.8745 100.41 82.8686C100.404 82.6812 100.398 82.3122 100.393 82.1247Z" fill="#231F20"/>
<path d="M137.021 90.2897C139.575 87.49 142.855 85.5279 145.735 83.103C145.758 88.8723 145.77 94.6416 145.73 100.411C143.055 98.3375 140.09 96.674 137.541 94.4307C136.312 93.4877 135.758 91.4553 137.021 90.2897Z" fill="#231F20"/>
<path d="M124.426 87.2793C131.512 92.3692 138.689 97.3184 145.757 102.438C138.643 102.479 131.529 102.449 124.414 102.455C124.403 97.3946 124.38 92.3399 124.426 87.2793Z" fill="#231F20"/>
</svg>
