<svg width="174" height="174" viewBox="0 0 174 174" fill="none" xmlns="http://www.w3.org/2000/svg">
<path d="M35.0156 121H139.985V53H35.0156V121Z" fill="#1B458F"/>
<path d="M72.7539 77.5255C77.5946 78.3798 82.5248 78.8248 87.5446 78.8248C92.5646 78.8248 97.4948 78.3798 102.246 77.5244L102.335 77.9155C97.5844 78.9705 92.5645 79.5253 87.5448 79.5253C82.4351 79.5253 77.5049 78.9705 72.7539 77.9174V77.5255Z" fill="white"/>
<path d="M108.52 79.8749C101.708 81.3656 94.7156 82.1514 87.5443 82.1514C80.2834 82.1514 73.2913 81.3656 66.5684 79.8749L66.6579 79.4848C73.3811 80.7769 80.3729 81.4517 87.5443 81.4517C94.626 81.4517 101.618 80.7769 108.431 79.4848L108.52 79.8749ZM96.3291 76.031C93.4605 76.6005 90.5024 76.899 87.5443 76.899C84.4965 76.899 81.5384 76.6005 78.6699 76.031L78.7594 75.6382C81.628 76.0081 84.4965 76.1985 87.5443 76.1985C90.5024 76.1985 93.371 76.0081 96.3291 75.6382V76.031ZM83.6001 66.1739C83.6001 63.9139 85.0344 62.5112 86.7375 62.5112C88.4406 62.5112 89.8749 63.893 89.8749 65.7692H89.6956C89.6956 64.2391 88.5303 63.1018 87.0961 63.1018C85.6618 63.1018 84.4965 64.2281 84.4965 66.1866V73.8792H83.5999L83.6001 66.1739Z" fill="white"/>
<path d="M83.5992 63.6713C84.2266 62.6128 85.392 61.916 86.7366 61.916C88.7984 61.916 90.5015 63.4386 90.5015 66.1739V73.8792H91.398V66.1107C91.398 63.0732 89.426 61.3052 87.1849 61.3052C85.5713 61.3052 84.137 62.2355 83.4199 63.5888L83.5992 63.6713Z" fill="white"/>
<path fill-rule="evenodd" clip-rule="evenodd" d="M87.7221 107.371L89.246 105.331V107.371H87.7221ZM87.4531 107.809H89.246V109.016H89.9631V107.809H90.5905V107.371H89.9631V104.69H89.5149L87.4533 107.498L87.4531 107.809ZM94.5348 106.537C94.1762 106.322 93.4592 106.145 93.4592 105.62C93.4592 105.145 93.8176 104.918 94.3555 104.918C94.8037 104.918 95.0726 105.165 95.0726 105.626C95.0726 106.05 94.8933 106.322 94.5348 106.537ZM93.8176 106.91C94.3555 107.156 95.1623 107.34 95.1623 108.024C95.1623 108.535 94.7142 108.897 94.1762 108.897C93.6385 108.897 93.2797 108.535 93.2797 108.024C93.2797 107.536 93.4592 107.201 93.8176 106.91ZM94.7142 106.588C95.0726 106.417 95.6105 106.139 95.6105 105.658C95.6105 105.051 94.8933 104.747 94.2659 104.747C93.6385 104.747 92.8316 105.095 92.8316 105.798C92.8316 106.36 93.1902 106.613 93.7281 106.847C93.1902 107.112 92.7421 107.397 92.7421 107.998C92.7421 108.743 93.4592 109.067 94.0866 109.067C94.9831 109.067 95.7898 108.667 95.7898 107.852C95.7898 107.182 95.2519 106.853 94.7142 106.588Z" fill="white"/>
<path d="M80.8207 109.016V108.889C80.4623 108.889 80.3726 108.851 80.3726 108.579V104.747H80.1933C80.014 104.892 79.6555 105.273 78.9383 105.399V105.532C79.3866 105.563 79.5659 105.563 79.5659 105.664C79.6554 105.734 79.6554 105.854 79.6554 106.056V108.579C79.6554 108.851 79.4762 108.89 79.1176 108.89V109.016L80.8207 109.016ZM85.6614 104.804H84.2271C84.0478 104.804 83.8686 104.804 83.6893 104.792C83.51 104.785 83.51 104.773 83.51 104.614H83.3307L82.9721 105.804H83.0618L83.1514 105.628C83.2411 105.49 83.3307 105.402 83.4204 105.402H85.2131L83.8687 108.124C83.6893 108.617 83.51 108.984 83.51 109.009C83.51 109.136 83.6893 109.129 83.779 109.129C84.0478 109.129 84.1375 109.029 84.2271 108.832L85.6614 104.975V104.804ZM42.0959 100.751H82.0759V100.354H42.0957L42.0959 100.751ZM86.4681 100.751H133.888V100.354H86.4681V100.751Z" fill="white"/>
<path fill-rule="evenodd" clip-rule="evenodd" d="M81.7168 94.9898C81.7168 93.1585 80.4618 91.9424 78.6689 91.9424C76.7865 91.9424 75.5315 93.217 75.5315 94.9898C75.5315 96.7599 76.7865 98.039 78.6689 98.039C80.3722 98.039 81.7168 96.7369 81.7168 94.9898ZM80.4618 94.9898C80.4618 96.4896 79.8343 97.7119 78.6689 97.7119C77.4141 97.7119 76.8761 96.5006 76.8761 94.9898C76.8761 93.4871 77.5037 92.2693 78.6689 92.2693C79.9239 92.2693 80.4618 93.4751 80.4618 94.9898ZM105.74 93.3059H106.368C107.982 93.3059 109.416 93.446 109.416 95.4201C109.416 96.8073 108.609 97.5674 106.995 97.5674C106.278 97.5674 105.74 97.4465 105.74 96.7477V93.3059ZM105.74 88.9756C105.92 88.972 106.099 88.9756 106.278 88.9756C108.43 88.9756 108.878 89.8511 108.878 90.9078C108.878 92.3847 107.802 92.9285 106.458 92.9285H105.74V88.9756ZM103.231 97.8905C104.396 97.8905 105.472 97.9446 106.637 97.9446C107.533 97.9446 108.699 97.8768 109.595 97.4345C110.581 96.897 110.94 96.1756 110.94 95.3523C110.94 94.0237 109.954 93.0696 108.609 92.9085C109.685 92.5999 110.312 91.8883 110.312 90.7869C110.312 90.0754 109.864 89.3374 109.147 89.0141C108.34 88.6121 107.444 88.5847 106.458 88.5984C105.382 88.6121 104.306 88.6121 103.231 88.6249V88.907C103.858 89.0013 104.306 88.8667 104.306 89.5517V97.0316C104.306 97.582 103.768 97.582 103.231 97.6085V97.8905ZM118.828 94.9898C118.828 93.1585 117.573 91.9424 115.691 91.9424C113.898 91.9424 112.553 93.217 112.553 94.9898C112.553 96.7599 113.898 98.039 115.691 98.039C117.394 98.039 118.828 96.7369 118.828 94.9898ZM117.483 94.9898C117.483 96.4896 116.856 97.7119 115.691 97.7119C114.525 97.7119 113.898 96.5006 113.898 94.9898C113.898 93.4871 114.525 92.2693 115.691 92.2693C116.946 92.2693 117.483 93.4751 117.483 94.9898Z" fill="white"/>
<path d="M41.1094 88.9069C41.468 88.9069 41.8266 89.004 42.0954 89.2549C42.2747 89.5013 42.5437 90.0013 42.8126 90.7465L45.7708 98.0782H46.219L48.9978 90.6395C49.3564 89.765 49.7149 88.907 50.7009 88.907V88.6249H47.6533V88.907C47.9221 88.907 48.3704 88.8795 48.6394 89.3246C48.7289 89.5672 48.7289 90.0763 48.3704 91.0285L46.5775 96.104H46.488L44.2468 90.2768C44.2468 90.1972 44.0676 89.7109 44.0676 89.4453C44.1571 89.027 44.6951 88.907 45.1432 88.907V88.6249H41.1095L41.1094 88.9069ZM57.0656 88.5042C56.438 88.6917 55.6313 88.9609 54.9142 89.122V89.2833C55.2727 89.297 55.452 89.3768 55.5416 89.4847C55.8106 89.6725 55.8106 89.9948 55.8106 90.3309V96.897C55.8106 97.5948 55.6313 97.5948 54.914 97.6352V97.8905H57.8722V97.6352C57.2447 97.5948 57.0656 97.5948 57.0656 96.897V88.5042ZM61.189 88.5042C60.5615 88.6917 59.7547 88.9609 59.1273 89.122V89.2833C59.3961 89.297 59.5754 89.3768 59.7547 89.4847C59.934 89.6725 59.934 89.9948 59.934 90.3309V96.897C59.934 97.5948 59.7547 97.5948 59.1273 97.6352V97.8905H61.9958V97.6352C61.3683 97.5948 61.189 97.5948 61.189 96.897V88.5042ZM73.2008 97.8905V97.6352C72.4837 97.5948 72.3044 97.5948 72.3044 96.897V94.3049C72.3044 93.2088 72.8423 92.6126 73.2009 92.6126C73.6491 92.6126 73.7387 93.1429 74.187 93.1429C74.5454 93.1429 74.8144 92.9056 74.8144 92.5376C74.8144 92.0989 74.3661 91.8481 73.9179 91.8481C73.0216 91.8481 72.4837 92.6429 72.2148 93.054V91.9022C71.677 92.1164 70.9599 92.3984 70.3323 92.5871V92.7208C70.8703 92.9487 71.0496 92.9761 71.0496 93.4999V96.897C71.0496 97.5948 70.7806 97.5948 70.2427 97.6352V97.8905H73.2008ZM125.641 96.2753C125.282 96.94 124.655 97.5316 123.758 97.5316C122.234 97.5316 121.786 96.1461 121.786 94.9109C121.786 93.8359 122.145 92.2693 123.489 92.2693C124.027 92.2693 124.565 92.6438 124.565 93.2032C124.565 93.5458 124.834 93.8754 125.103 93.8754C125.462 93.8754 125.73 93.6429 125.73 93.3251C125.641 92.4487 124.565 91.9424 123.489 91.9424C121.607 91.9424 120.442 93.2655 120.442 95.0474C120.442 96.6856 121.607 98.039 123.31 98.039C124.475 98.039 125.372 97.3833 125.82 96.3422L125.641 96.2753ZM129.764 97.8905V97.6352C129.137 97.5948 128.958 97.5948 128.958 96.897V93.3388C129.316 92.9506 129.585 92.4919 130.481 92.4919C131.288 92.4919 131.647 93.164 131.647 94.0566V96.897C131.647 97.5948 131.467 97.5948 130.93 97.6352V97.8905H133.798V97.6352C133.171 97.5948 132.991 97.5948 132.991 96.897V94.1977C132.991 92.284 131.647 91.9424 130.93 91.9424C130.033 91.9424 129.495 92.3626 128.958 92.8956V88.5042C128.33 88.7321 127.523 88.9472 126.896 89.189V89.297C127.254 89.3768 127.613 89.4977 127.613 89.9143V96.897C127.613 97.5948 127.434 97.5948 126.806 97.6352V97.8905H129.764ZM53.5695 97.8905V97.6352C52.942 97.5948 52.7627 97.5948 52.7627 96.897V91.8746C52.1352 92.1027 51.3285 92.3443 50.7011 92.5871V92.7208C50.8802 92.7472 50.9699 92.7609 51.1492 92.8544C51.4182 93.0165 51.4182 93.3919 51.4182 93.6741V96.897C51.4182 97.5948 51.2389 97.5948 50.6114 97.6352V97.8905H53.5695ZM51.3285 90.1267C51.3285 89.7064 51.5975 89.3648 52.0456 89.3648C52.4042 89.3648 52.7627 89.7064 52.7627 90.1267C52.7627 90.546 52.4042 90.8876 52.0456 90.8876C51.5975 90.8876 51.3285 90.546 51.3285 90.1267ZM64.9539 93.814H67.6432C67.6432 92.8005 67.0156 92.272 66.3882 92.272C65.7608 92.272 65.1332 92.8681 64.9539 93.814ZM64.8644 94.2188C64.7746 94.4357 64.7746 94.6674 64.7746 94.9109C64.7746 96.3212 65.3125 97.5316 66.8363 97.5316C67.4639 97.5316 68.2706 97.0583 68.7189 96.2753L68.8982 96.3422C68.6292 97.0921 67.8225 98.039 66.4778 98.039C64.6849 98.039 63.4301 96.8604 63.4301 95.0474C63.4301 93.3241 64.5954 91.9424 66.3882 91.9424C67.7328 91.9424 68.8085 92.7107 68.8982 94.2188H64.8644ZM85.2127 99.1258L85.661 98.039L83.4199 93.0431C83.2406 92.6695 83.0613 92.3443 82.5234 92.3443V92.0898H85.5713V92.3443C85.2127 92.3443 84.9439 92.3491 84.8542 92.6073C84.8542 92.7144 84.7646 92.8973 84.9437 93.1236L86.378 96.5198L87.633 93.446C87.7227 93.1593 87.8124 92.7977 87.7227 92.5999C87.5434 92.3261 87.1849 92.3445 86.916 92.3445V92.0898H89.2467V92.3443C88.6191 92.3443 88.3501 92.739 88.171 93.164L85.5713 99.3676C85.3024 99.9902 84.9439 100.778 84.137 100.778C83.8682 100.778 83.5992 100.522 83.5992 100.24C83.5992 99.9187 83.7785 99.7037 84.137 99.6898C84.3163 99.7037 84.406 99.7566 84.5853 99.7705C84.9439 99.8006 85.123 99.4013 85.2127 99.1258ZM95.3422 92.9652C95.9696 92.4258 96.1489 91.9965 96.1489 91.5239C96.2386 90.7895 95.88 90.5304 95.4318 90.5304C94.9836 90.5304 94.7148 91.0049 94.7148 91.2823C94.7148 91.7052 94.8939 91.9864 95.0732 92.4689C95.1629 92.5972 95.2525 92.7674 95.3422 92.9652ZM96.5075 96.7734C95.88 95.9659 95.1629 94.8414 94.625 94.0018C94.1768 94.5181 93.8182 95.1335 93.8182 95.8597C93.8182 96.8165 94.4458 97.3997 95.1629 97.3997C95.7008 97.3997 96.1489 97.1123 96.5075 96.7734ZM97.5831 96.0015C97.4936 96.0756 97.4936 96.1518 97.4041 96.2277C97.4936 96.3138 97.5831 96.3926 97.5831 96.464C98.0313 96.9456 98.4796 97.2926 99.1967 97.2926C99.5553 97.2926 99.8242 97.1717 100.183 96.7662L100.272 96.909C100.004 97.4134 99.376 98.039 98.6589 98.039C97.9418 98.039 97.4039 97.7121 96.8661 97.2039L96.7765 97.0866C96.2386 97.6268 95.6111 98.039 94.8044 98.039C93.1908 98.039 92.6529 96.9383 92.6529 96.083C92.6529 94.9366 93.6389 94.2114 94.4458 93.6547C94.2665 93.3727 94.1768 93.1448 94.0872 93.0037C93.9079 92.6905 93.7286 92.1549 93.7286 91.8051C93.7286 90.8876 94.3561 90.2292 95.4318 90.2292C96.4179 90.2292 97.0453 90.7878 96.9556 91.5844C96.8661 92.2758 96.1489 92.8133 95.5215 93.2921C95.9696 94.0897 96.597 95.1609 97.2246 95.9229C97.2246 95.8624 97.2246 95.811 97.3143 95.7727C97.4936 95.3285 97.8522 94.6729 97.8522 94.0237C97.8522 93.6071 97.5832 93.4862 97.2246 93.4862V93.2674H99.4656V93.4862C98.6589 93.4982 98.3901 94.1419 98.121 94.7472C98.0315 95.117 97.6729 95.6939 97.5832 96.0015" fill="white"/>
</svg>
