<svg width="174" height="174" viewBox="0 0 174 174" fill="none" xmlns="http://www.w3.org/2000/svg">
<path d="M14.0391 75.0791C14.0391 75.4141 14.0391 96.4932 14.0391 96.8282C14.374 96.8282 156.927 96.8282 157.262 96.8282C157.262 96.4932 157.262 75.4141 157.262 75.0791C156.927 75.0791 14.374 75.0791 14.0391 75.0791Z" fill="white"/>
<path d="M126.588 83.4055C125.439 83.4055 124.434 84.1472 124.123 85.1043H129.076C128.765 84.1233 127.76 83.4055 126.588 83.4055ZM121.779 86.2766C121.779 89.0521 123.908 91.2773 126.564 91.2773C128.598 91.2773 130.344 89.9613 131.014 88.0711H128.645C128.167 88.6932 127.401 89.1 126.54 89.1C125.296 89.1 124.243 88.2865 123.98 87.138H131.301C131.349 86.8509 131.325 86.5638 131.325 86.2527C131.325 83.4773 129.196 81.2521 126.54 81.2521C123.908 81.2521 121.779 83.5012 121.779 86.2766ZM109.863 86.2527C109.863 83.5012 107.686 81.2521 105.03 81.2521C102.35 81.2521 100.197 83.5012 100.197 86.2527C100.197 89.0043 102.35 91.2533 105.03 91.2533C107.71 91.2773 109.863 89.0282 109.863 86.2527ZM99.7185 83.3576V81.2282C98.6178 81.2282 97.6847 81.6589 97.278 82.281V81.4435H95.1964V91.0619H97.4694V85.0564C97.4933 84.1472 98.4982 83.4055 99.7185 83.3576ZM92.7798 81.4675H90.7461V82.4245C90.0522 81.6828 89.0712 81.2521 87.851 81.2521C85.2908 81.2521 83.1375 83.5969 83.1375 86.157C83.1375 88.8607 85.243 91.0619 87.851 91.0619C88.9277 91.0619 89.9804 90.4398 90.77 89.5785C90.77 89.5785 90.77 89.6981 90.77 89.7699C90.77 91.4208 89.454 92.7607 87.8031 92.7607C86.9178 92.7607 86.1283 92.3779 85.578 91.7558H83.2571C83.8792 93.5024 85.6976 94.7944 87.8749 94.7944C90.3393 94.7944 92.7559 92.4736 92.7559 90.4877V90.392L92.7798 81.4675ZM81.7497 87.9515C81.7497 86.4202 80.6491 85.5828 79.0939 85.2957L77.6105 84.9846C76.9884 84.8889 76.1988 84.6975 76.1988 84.0515C76.1988 83.573 76.8209 83.1902 77.6105 83.1902C78.3761 83.1902 79.1418 83.7883 79.1418 84.2668H81.5823C81.3191 82.5681 79.6681 81.276 77.6823 81.276C75.505 81.276 73.9737 82.6398 74.0215 84.554C74.0694 85.9417 75.5528 86.7313 77.1798 87.0901L77.7062 87.1859C78.8547 87.3533 79.5007 87.5926 79.5246 88.1429C79.5724 88.8368 78.9264 89.2674 77.9933 89.2674C76.9884 89.2674 76.1988 88.6214 76.1988 87.8558H73.878C73.9019 89.746 75.8399 91.2773 78.0172 91.2773C80.1945 91.3251 81.7497 89.8656 81.7497 87.9515ZM72.3706 91.0859L72.3467 84.6975C72.2988 82.7834 70.6958 81.2521 68.6859 81.2521C67.6332 81.2521 66.7 81.6828 66.0301 82.3527V81.4675H63.9485V91.0859H66.1737V85.4392C66.1737 84.4343 67.0589 83.5969 68.1596 83.5969C69.2602 83.5969 70.1455 84.4104 70.1455 85.4392V91.0859H72.3706ZM61.6994 91.0859V81.4675H59.5221V82.4724C58.6847 81.7306 58.0148 81.276 56.8185 81.276C54.1626 81.276 51.9375 83.5251 51.9375 86.2766C51.9375 89.0282 54.1626 91.2773 56.8185 91.2773C58.0148 91.2773 58.6847 90.8705 59.5221 90.1288V91.0619L61.6994 91.0859ZM113.979 74.9116H157.453V96.9957H13.8945V74.9116H41.8166V91.1576H44.0418V85.3914C44.1375 84.4104 44.9031 83.573 45.9559 83.573C47.0086 83.573 47.87 84.3865 47.87 85.3914V91.1576H50.0234V84.4582C49.7841 82.592 48.4681 81.2521 46.554 81.2521C45.5731 81.2521 44.6639 81.611 44.0418 82.2331V74.8877H111.753V91.1098H113.979V85.3435C114.074 84.3865 114.84 83.5251 115.893 83.5251C116.945 83.5251 117.807 84.3386 117.807 85.3435V91.1098H119.96V84.4104C119.721 82.5441 118.405 81.2043 116.491 81.2043C115.51 81.2043 114.601 81.5632 113.979 82.1852V74.9116ZM105.006 83.5012C103.547 83.5012 102.35 84.7454 102.35 86.2766C102.35 87.8079 103.523 89.0521 105.006 89.0521C106.466 89.0521 107.638 87.8079 107.638 86.2766C107.662 84.7214 106.466 83.5012 105.006 83.5012ZM56.8424 83.5012C55.3589 83.5012 54.1626 84.7454 54.1626 86.2766C54.1626 87.8079 55.3589 89.0521 56.8424 89.0521C58.3258 89.0521 59.5221 87.8079 59.5221 86.2766C59.4982 84.7454 58.3258 83.5012 56.8424 83.5012ZM90.6743 86.2288C90.6743 87.7362 89.5019 88.9564 88.0424 88.9564C86.5829 88.9564 85.3866 87.7362 85.3866 86.2288C85.3866 84.7214 86.5589 83.5012 88.0424 83.5012C89.478 83.5012 90.6743 84.7214 90.6743 86.2288Z" fill="#00AB8E"/>
</svg>
