<svg width="174" height="174" viewBox="0 0 174 174" fill="none" xmlns="http://www.w3.org/2000/svg">
<path fill-rule="evenodd" clip-rule="evenodd" d="M43.8835 98.1069V97.3059H33.2596L32.4418 98.1069H43.8835ZM21 97.3059V98.1063L32.4418 98.1069L31.6249 97.3059H21ZM43.8835 96.5038V95.7029H34.8933L34.0764 96.5038H43.8835ZM21 95.7023V96.5033H30.8071L29.9892 95.7023H21ZM21 94.0993V94.9003H29.1729L28.3556 94.0993H21ZM43.8835 94.9003V94.0998H36.5285L35.7111 94.9003H43.8835ZM43.8835 93.2973V92.4968H38.1626L37.3463 93.2973H43.8835ZM21 92.4963V93.2973H27.5377L26.7209 92.4963H21ZM43.8835 91.6943V90.8938H39.7973L38.98 91.6943H43.8835ZM21 90.8933V91.6943H25.9035L25.0857 90.8933H21ZM21 89.2903V90.0928H24.2688L23.4515 89.2903H21ZM43.8835 90.0923V89.2908H41.432L40.6147 90.0923H43.8835ZM21 87.6873V88.4893H22.6347L21.8184 87.6873H21ZM43.8835 88.4893V87.6873H43.0672L42.2494 88.4893H43.8835ZM21 85.2838V86.0843H21.8184L22.6347 85.2838H21ZM43.8835 86.0843V85.2833H42.2494L43.0672 86.0843H43.8835ZM21 83.6808V84.4828H23.4515L24.2688 83.6808H21ZM43.8835 84.4823V83.6803H40.6147L41.432 84.4823H43.8835ZM21 82.0778V82.8793H25.0857L25.9035 82.0778H21ZM43.8835 82.8793V82.0773H38.98L39.7973 82.8793H43.8835ZM21 80.4748V81.2763H26.7209L27.5377 80.4748H21ZM43.8835 81.2763V80.4743H37.3463L38.1626 81.2763H43.8835ZM21 78.8723V79.6733H28.3556L29.1729 78.8723H21ZM43.8835 79.6733V78.8723H35.7111L36.5285 79.6733H43.8835ZM43.8835 78.0703V77.2693H34.0764L34.8933 78.0703H43.8835ZM21 77.2693V78.0703H29.9892L30.8071 77.2693H21ZM21 75.6663V76.4673H31.6249L32.4418 75.6663H21ZM32.4418 75.6663L33.2596 76.4673H43.8835V75.6663H32.4418ZM21 86.8868L21.8184 87.6873V86.0843L21 86.8868Z" fill="#C09733"/>
<path fill-rule="evenodd" clip-rule="evenodd" d="M22.6347 88.4893L23.4515 89.2903V84.4823L22.6347 85.2833V88.4893ZM24.2694 90.0923L25.0862 90.8933V82.8798L24.2694 83.6803V90.0923Z" fill="#C09733"/>
<path fill-rule="evenodd" clip-rule="evenodd" d="M26.7209 84.1418V81.2768L25.9041 82.0778V91.6959L26.7209 92.4968V89.6309C26.3064 88.8009 26.0667 87.8733 26.0667 86.8868C26.0667 85.9003 26.3064 84.9712 26.7209 84.1418ZM28.3556 82.0902V79.6733L27.5382 80.4743V82.8938C27.7848 82.6028 28.0588 82.3341 28.3556 82.0902ZM27.5382 90.8799V93.2978L28.3556 94.0999V91.6814C28.0588 91.4395 27.7848 91.1708 27.5382 90.8799ZM29.9897 78.0703L29.1724 78.8713V81.5269C29.4343 81.3735 29.7051 81.2324 29.9892 81.1161V78.0703H29.9897ZM29.1729 94.9003L29.9897 95.7029V92.6576C29.7051 92.5413 29.4348 92.3997 29.1729 92.2452V94.9003ZM30.8071 96.5039L31.6249 97.3059V93.0813C31.3456 93.0451 31.0732 92.9919 30.8071 92.9227V96.5039ZM31.6249 76.4673L30.8071 77.2693V80.8505C31.0732 80.7802 31.3456 80.728 31.6249 80.6918V76.4673ZM33.2596 97.3059L34.0764 96.5039V92.9227C33.8103 92.9919 33.5379 93.0451 33.2596 93.0813V97.3059ZM34.0764 77.2693L33.2596 76.4673V80.6924C33.5379 80.728 33.8098 80.7802 34.0764 80.8505V77.2693ZM35.7111 78.8713L34.8933 78.0703V81.1156C35.1784 81.2324 35.4482 81.3735 35.7117 81.5269L35.7111 78.8713ZM34.8933 95.7029L35.7111 94.9008V92.2452C35.4482 92.4002 35.1778 92.5408 34.8933 92.657V95.7029ZM36.5279 91.6819V94.0999L37.3453 93.2978V90.8794C37.0987 91.1708 36.8241 91.4395 36.5279 91.6819ZM37.3458 82.8938V80.4743L36.5279 79.6733V82.0907C36.8236 82.3336 37.0992 82.6023 37.3458 82.8938ZM38.1626 84.1418C38.5771 84.9712 38.8163 85.9003 38.8163 86.8868C38.8163 87.8733 38.5771 88.8009 38.1626 89.6309V92.4968L38.9794 91.6959V82.0778L38.1626 81.2768V84.1418ZM39.7973 90.8938L40.6147 90.0929V83.6808L39.7973 82.8793V90.8938ZM41.4315 89.2908L42.2488 88.4898V85.2833L41.4315 84.4823V89.2908ZM43.0667 86.0843V87.6873L43.8835 86.8863L43.0667 86.0843Z" fill="#C09733"/>
<path fill-rule="evenodd" clip-rule="evenodd" d="M59.2959 97.6118H60.7875C64.0632 97.6118 65.812 95.9902 65.812 92.1118C65.812 88.743 64.1598 86.6755 61.2743 86.6755H59.2959V97.6118ZM59.2959 86.1034H61.0462C62.9919 86.1034 65.0997 84.8632 65.0997 81.6215C65.0997 77.9339 63.7702 76.3758 61.0151 76.3758H59.2959V86.1034ZM52.0681 97.6118H54.2398V76.3758H52.0681V75.8043H62.409C66.0401 75.8043 69.962 77.3933 69.962 81.0815C69.962 84.4828 66.4292 85.9132 63.3177 86.168V86.231C67.7582 86.231 71.2588 88.265 71.2588 92.0798C71.2588 95.5762 68.0824 98.1828 62.0521 98.1828H52.0681V97.6118ZM73.884 97.6118H76.5092V76.3758H73.884V75.8043H92.0039V82.13H91.4215V81.6856C91.4215 78.7927 89.2493 76.3758 85.3918 76.3758H81.5664V86.1039H83.8041C85.9103 86.1039 87.0127 84.9283 87.0127 81.9073V81.5579H87.5962V91.6028H87.0127V90.8721C87.0127 88.6144 85.9103 86.676 83.8041 86.676H81.5664V97.6118H86.2339C91.5509 97.6118 92.3292 93.289 92.3292 91.4757V91.0313H92.9137V98.1833H73.884V97.6118ZM104 86.2626H105.814C109.542 86.0714 110.483 84.6735 110.385 80.7001C110.385 76.7572 109.121 76.3758 106.365 76.3758H104V86.2626ZM96.3161 97.6118H98.9413V76.3758H96.3161V75.8048H106.496C110.061 75.8048 115.831 76.3758 115.831 81.0494C115.831 84.8962 111.487 86.1675 108.213 86.3892V86.4533C112.979 86.8667 115.312 88.6795 115.377 92.0793C115.442 97.0707 115.896 97.5482 117.192 97.5482C117.517 97.5482 118.004 97.357 118.36 97.1353L118.586 97.6118C117.451 98.4381 115.863 98.6929 114.631 98.6929C111.162 98.6929 110.32 96.2765 110.32 92.7795C110.32 87.6604 109.055 86.8987 105.716 86.8346H103.999V97.6118H106.721V98.1833H96.3161V97.6118ZM124.778 97.6118H127.792V76.3758H126.463C122.249 76.3758 121.179 79.2697 120.692 82.7666H120.11V75.8043H140.532V82.7666H139.948C139.463 79.2697 138.393 76.3758 134.178 76.3758H132.849V97.6118H135.863V98.1833H124.778V97.6118ZM142.964 97.6118H145.589V76.3758H142.964V75.8043H153.272V76.3758H150.646V97.6118H153.272V98.1833H142.964V97.6118Z" fill="#5B3800"/>
</svg>
