<svg width="174" height="174" viewBox="0 0 174 174" fill="none" xmlns="http://www.w3.org/2000/svg">
<path d="M31.7871 82.0824C33.3009 82.0824 34.8207 82.0824 36.3344 82.0882C37.5466 86.0422 38.8433 89.9845 39.8625 93.9969C40.9119 89.9903 42.1844 86.0422 43.4027 82.0882C44.9104 82.0824 46.4181 82.0824 47.9259 82.0824C46.0141 87.1652 44.1023 92.2481 42.2387 97.3484C40.6586 97.4771 39.0785 97.4713 37.4984 97.3426C35.6288 92.2481 33.7049 87.1652 31.7871 82.0824Z" fill="#1C1C1C"/>
<path d="M49.7645 83.141C52.599 82.2344 55.7532 81.6027 58.6541 82.5912C60.2764 83.1527 61.374 84.732 61.4283 86.3814C61.5791 89.7037 61.374 93.026 61.5308 96.3482C58.3767 97.5414 54.6857 97.8982 51.4954 96.6348C48.6488 95.541 48.0457 91.3239 50.4279 89.4931C52.5568 87.908 55.3853 87.8729 57.9424 87.6097C57.8098 86.6563 57.8037 85.4631 56.694 85.0654C54.7159 84.4395 52.6654 85.1356 50.7415 85.621C50.4158 84.7905 50.0902 83.9658 49.7645 83.141ZM53.558 90.8267C52.3457 91.476 52.2312 93.3652 53.3469 94.149C54.6496 95.0848 56.3503 94.6637 57.8339 94.5643C57.8339 93.0493 57.8459 91.5286 57.8701 90.0137C56.4166 90.1541 54.8667 90.1073 53.558 90.8267Z" fill="#1C1C1C"/>
<path d="M64.2148 83.147C66.8685 82.293 69.6728 81.9362 72.4652 82.1526C72.3023 83.2055 72.1154 84.2583 71.9103 85.3111C70.6318 85.2058 69.3351 85.1707 68.0867 85.4749C68.1591 89.4581 68.1229 93.4472 68.1048 97.4362C66.8202 97.4362 65.5296 97.4304 64.239 97.4304C64.2088 92.6692 64.251 87.9081 64.2148 83.147Z" fill="#1C1C1C"/>
<path d="M75.2812 83.1641C78.7611 81.9709 82.8983 81.4211 86.143 83.515C88.5493 82.2048 91.6009 81.5088 94.2123 82.702C95.8407 83.4097 96.8117 85.1411 96.7755 86.8431C96.8298 90.3701 96.7815 93.9029 96.7815 97.4358C95.4607 97.4358 94.14 97.4358 92.8192 97.4299C92.7046 93.7801 93.0182 90.1069 92.6744 86.4746C91.8723 84.679 89.4961 85.0884 87.9944 85.6967C87.9824 89.6097 88.0125 93.5228 87.9764 97.4358C86.6737 97.4358 85.365 97.4358 84.0623 97.4358C83.9115 93.7392 84.2794 90.0075 83.8814 86.3343C82.9104 84.7492 80.8116 85.2171 79.2496 85.3633C79.2014 89.3875 79.2556 93.4116 79.2255 97.4358C77.9168 97.4358 76.6081 97.4358 75.3054 97.4358C75.2752 92.6746 75.3114 87.9194 75.2812 83.1641Z" fill="#1C1C1C"/>
<path d="M100.298 83.141C103.187 82.2344 106.401 81.5676 109.338 82.6438C111.099 83.293 112.046 85.1296 112.022 86.8902C112.082 90.0838 112.058 93.2774 112.022 96.471C108.705 97.4536 104.905 98.0093 101.691 96.4476C99.0975 95.1549 98.6995 91.1951 101.015 89.4696C103.144 87.8963 105.961 87.8787 108.512 87.5921C108.337 86.6972 108.379 85.5508 107.36 85.1121C105.37 84.3927 103.253 85.1121 101.305 85.6327C100.967 84.8021 100.635 83.9715 100.298 83.141ZM104.176 90.7798C103.018 91.3706 102.692 93.0727 103.681 93.95C104.948 95.1432 106.859 94.7046 108.415 94.494C108.385 92.9849 108.385 91.4759 108.373 89.9668C106.962 90.1598 105.466 90.1364 104.176 90.7798Z" fill="#1C1C1C"/>
<path d="M114.742 83.176C117.957 82.0939 121.605 81.5734 124.868 82.7549C126.599 83.3749 127.703 85.1062 127.666 86.8726C127.721 90.3879 127.66 93.8973 127.679 97.4068C126.376 97.4302 125.079 97.436 123.777 97.4419C123.65 93.9032 123.945 90.3528 123.638 86.8317C123.083 84.6792 120.363 85.1413 118.674 85.4396C118.692 89.4345 118.692 93.4294 118.674 97.4302C117.378 97.4302 116.087 97.436 114.79 97.436C114.736 92.6807 114.821 87.9254 114.742 83.176Z" fill="#1C1C1C"/>
<path d="M130.393 83.1643C133.499 82.1407 136.948 81.6318 140.133 82.6086C141.815 83.1116 143.16 84.6032 143.263 86.3403C143.408 90.0135 143.245 93.6926 143.335 97.3658C142.032 97.4301 140.73 97.4418 139.433 97.4535C139.041 93.792 139.843 90.0662 139.15 86.4398C138.263 84.6675 135.929 85.2115 134.325 85.4337C134.349 89.4345 134.349 93.4294 134.325 97.4301C133.034 97.4301 131.738 97.436 130.447 97.436C130.393 92.6807 130.483 87.9196 130.393 83.1643Z" fill="#1C1C1C"/>
<path d="M31.8165 100.589C68.9851 100.589 106.154 100.588 143.328 100.594C143.31 102.022 143.31 103.455 143.298 104.882C106.142 104.852 68.9851 104.864 31.8285 104.876C31.8225 103.449 31.8225 102.022 31.8165 100.589Z" fill="#2B71A4"/>
</svg>
