<svg width="174" height="174" viewBox="0 0 174 174" fill="none" xmlns="http://www.w3.org/2000/svg">
<path d="M124.25 71.2495C125.649 71 127.082 70.9627 128.496 71.0855C130.467 71.2689 132.445 71.7485 134.174 72.7263C133.95 73.1988 133.766 73.6889 133.558 74.1685C133.19 75.0498 132.811 75.9274 132.452 76.812C131.753 76.4737 131.051 76.1344 130.309 75.8972C129.491 75.6141 128.637 75.4383 127.778 75.3405C126.872 75.3013 125.939 75.2757 125.066 75.5574C124.625 75.6982 124.194 75.943 123.944 76.3409C123.756 76.6622 123.674 77.0663 123.8 77.4235C123.897 77.7217 124.143 77.9448 124.402 78.1116C124.913 78.4235 125.497 78.587 126.072 78.7396C127.956 79.207 129.911 79.4725 131.695 80.2679C132.531 80.6407 133.322 81.1511 133.914 81.8509C134.521 82.5721 134.886 83.4893 134.945 84.424C134.998 84.5753 134.962 84.7388 135 84.8933V85.1575C134.963 85.3186 135.002 85.4906 134.944 85.647C134.898 86.4079 134.644 87.1512 134.271 87.8156C133.814 88.6199 133.146 89.2947 132.375 89.8098C131.463 90.4199 130.418 90.8112 129.349 91.0517C128.361 91.2658 127.35 91.3759 126.339 91.3556C125.845 91.3461 125.347 91.382 124.857 91.3145C123.359 91.2247 121.872 90.935 120.449 90.4634C119.544 90.1581 118.664 89.764 117.869 89.2352C118.014 88.8401 118.211 88.4649 118.377 88.0774C118.814 87.0978 119.265 86.1243 119.695 85.1419C121.005 85.9896 122.496 86.5439 124.027 86.8525C125.257 87.0879 126.53 87.1734 127.769 86.9541C128.23 86.8601 128.705 86.7202 129.064 86.4045C129.496 86.0421 129.614 85.3625 129.315 84.8848C129.08 84.5247 128.692 84.3002 128.304 84.1334C127.721 83.8839 127.103 83.735 126.488 83.5876C125.384 83.3324 124.269 83.1169 123.181 82.7975C122.343 82.5489 121.512 82.2479 120.757 81.8061C120.081 81.4143 119.465 80.9025 119.024 80.2575C118.445 79.4187 118.183 78.3885 118.213 77.3791C118.162 75.8726 118.791 74.3684 119.878 73.3137C121.056 72.1715 122.647 71.5406 124.25 71.2495Z" fill="#9F9F9E"/>
<path d="M38 71.3993C51.7839 71.3951 65.5677 71.4012 79.3516 71.4017C79.3516 81.601 79.353 91.8007 79.3511 102H54.3302C54.3034 101.343 54.3263 100.684 54.3187 100.027C55.0317 100.147 55.7687 100.161 56.4774 100.006C58.0757 99.6731 59.4812 98.633 60.3401 97.2716C61.2245 95.8851 61.5288 94.1045 60.9785 92.5398C60.655 91.6084 60.0391 90.8164 59.4108 90.0659C59.1448 89.738 58.8217 89.4356 58.6877 89.0254C58.415 88.2783 58.682 87.4187 59.2347 86.8648C59.4515 86.6479 59.6807 86.4272 59.9707 86.3091C60.2401 86.1976 60.5387 86.1952 60.8259 86.208C61.9681 86.2557 63.1109 86.3091 64.2532 86.3587C64.2522 86.284 64.2513 86.2094 64.2513 86.1352C62.9085 85.9367 61.5666 85.7335 60.2243 85.5327C59.9741 85.1031 59.7501 84.6353 59.3591 84.3102C58.9538 83.985 58.4025 83.9779 57.9058 83.9557C57.1411 83.9477 56.3175 84.0304 55.6844 84.494C55.1844 84.8574 54.9379 85.4774 54.9341 86.078C54.9054 86.9092 55.2174 87.6965 55.4796 88.4715C55.6658 89.0117 55.7964 89.5948 55.6744 90.1638C55.5471 90.7606 55.1772 91.2724 54.7628 91.7105C54.2684 92.217 53.5626 92.4514 52.8759 92.563C51.8169 92.7236 50.7368 92.6433 49.6835 92.4788C48.7174 92.3172 47.7565 92.0937 46.8377 91.7568C46.5735 90.2658 46.8865 88.7177 47.4995 87.3454C45.4408 89.0868 43.3922 90.8405 41.3416 92.5918C43.1204 92.3536 44.901 92.1277 46.6802 91.8943C46.8429 92.8574 47.2128 93.7732 47.6344 94.6517C48.3527 96.102 49.361 97.4308 50.6598 98.4227C51.5652 99.1136 52.6103 99.6358 53.7258 99.8981C53.7325 100.598 53.7334 101.299 53.7248 102H38V71.3993Z" fill="#9F9F9E"/>
<path d="M81.5586 90.9884C81.5619 84.459 81.5552 77.9296 81.5619 71.4003C84.5083 71.404 87.4542 71.4012 90.4006 71.4026C91.6041 71.3851 92.8158 71.5009 93.9791 71.8152C95.4745 72.215 96.9044 72.9852 97.9036 74.1737C98.5372 74.919 98.9803 75.8145 99.2143 76.7577C99.4483 77.7014 99.4895 78.6881 99.3765 79.6516C99.2545 80.6681 98.9114 81.6657 98.3319 82.5177C97.6557 83.5229 96.6723 84.3073 95.5726 84.8215C95.688 85.0606 95.8722 85.2647 96.0153 85.4901C97.2906 87.3208 98.5578 89.1572 99.8379 90.9851C97.8294 90.9799 95.82 90.995 93.8121 90.9794C92.6296 89.2385 91.4112 87.5193 90.2302 85.7784C90.2383 84.3517 90.2738 82.9256 90.2805 81.4989C91.0313 81.5008 91.807 81.3963 92.4736 81.0348C93.0646 80.7229 93.5034 80.1573 93.6628 79.5156C93.8279 78.8525 93.8092 78.1361 93.5738 77.4911C93.3656 76.9226 92.9215 76.4515 92.3745 76.1845C91.65 75.822 90.8188 75.754 90.0187 75.7705C89.0678 75.7752 88.1165 75.762 87.1661 75.7781C87.1733 80.8477 87.1666 85.9178 87.1695 90.9879C85.2993 90.987 83.4287 90.9898 81.5586 90.9884Z" fill="#9F9F9E"/>
<path d="M100.984 90.9861C100.993 84.4572 100.979 77.9288 100.991 71.4003C103.681 71.4098 106.371 71.4022 109.062 71.4051C111.543 71.4008 114.026 71.415 116.507 71.3994C116.591 71.6149 116.501 71.8587 116.535 72.0808C116.541 72.6039 116.544 73.1356 116.516 73.6488C116.562 73.766 116.533 73.9011 116.534 74.0249C116.49 74.2447 116.547 74.4649 116.54 74.6856C116.523 75.0145 116.55 75.3439 116.524 75.6728C113.767 75.6657 111.009 75.6732 108.252 75.6713C107.682 75.6798 107.11 75.6548 106.542 75.685C106.545 79.3592 106.542 83.0329 106.543 86.7071C109.997 86.7042 113.452 86.7089 116.906 86.7071C116.9 88.1323 116.9 89.5585 116.906 90.9842C111.599 90.9776 106.291 90.9837 100.984 90.9861Z" fill="#9F9F9E"/>
<path d="M109.609 78.9921C111.898 78.9936 114.186 78.9992 116.475 78.9917C116.467 80.3692 116.471 81.7467 116.472 83.1242C114.185 83.1195 111.897 83.1223 109.61 83.1242C109.611 81.7467 109.613 80.3697 109.609 78.9921Z" fill="#9F9F9E"/>
<path d="M58.3394 85.2286C58.6648 85.1294 59.0405 85.3619 59.0754 85.6998C59.1429 86.0584 58.7916 86.4048 58.4294 86.3462C58.1188 86.315 57.8757 86.0046 57.9293 85.6998C57.9556 85.48 58.126 85.2905 58.3394 85.2286Z" fill="#9F9F9E"/>
<path d="M81.495 93.2694C82.3716 93.2699 83.2478 93.2704 84.1245 93.2699C84.1202 96.1799 84.1327 99.09 84.1183 102H81.5136C81.4686 101.688 81.5045 101.369 81.493 101.054C81.4945 98.4591 81.4906 95.8643 81.495 93.2694Z" fill="#9F9F9E"/>
<path d="M85.5322 93.2705C88.827 93.2709 92.1222 93.2719 95.4174 93.2719C95.415 93.8177 95.4145 94.363 95.4174 94.9088C94.2067 94.9074 92.996 94.9088 91.7853 94.9088C91.7805 97.2726 91.7944 99.6368 91.7786 102H89.1696C89.1437 101.103 89.1658 100.205 89.1586 99.3074C89.1581 97.8416 89.1586 96.3757 89.1581 94.9098C87.9493 94.9093 86.7405 94.9107 85.5312 94.9103C85.5332 94.3635 85.5317 93.8168 85.5322 93.2705Z" fill="#9F9F9E"/>
<path d="M99.8146 93.2751C100.664 93.2704 101.514 93.2742 102.363 93.2737C102.432 93.259 102.447 93.3408 102.48 93.3814C103.969 95.9418 105.464 98.4993 106.955 101.058C107.126 101.374 107.339 101.67 107.482 102H104.749C103.536 99.7511 102.315 97.5064 101.109 95.2547C100.669 96.0169 100.266 96.8004 99.8409 97.5716C99.3055 98.5579 98.7709 99.5446 98.235 100.531C97.9775 101.022 97.6928 101.501 97.4502 102H94.7617C94.9216 101.655 95.1393 101.338 95.3221 101.005C96.819 98.4279 98.3206 95.8539 99.8146 93.2751Z" fill="#9F9F9E"/>
<path d="M108.668 93.2744C109.542 93.2749 110.416 93.2763 111.29 93.2744C111.285 95.6249 111.292 97.9754 111.287 100.326C113.183 100.327 115.08 100.326 116.977 100.327C116.976 100.885 116.981 101.443 116.974 102H108.704C108.644 101.882 108.674 101.747 108.669 101.621C108.669 98.8388 108.67 96.0568 108.668 93.2744Z" fill="#9F9F9E"/>
<path d="M118.459 93.2748C119.328 93.2767 120.197 93.281 121.065 93.2734C121.057 96.1825 121.072 99.0916 121.058 102H118.467C118.452 99.0921 118.467 96.1834 118.459 93.2748Z" fill="#9F9F9E"/>
<path d="M122.827 101.03C124.329 98.4457 125.833 95.8622 127.335 93.2778C128.199 93.2802 129.065 93.2769 129.929 93.2802C131.537 96.0574 133.161 98.8252 134.775 101.6C134.842 101.728 134.957 101.842 134.945 101.999L135 101.951V102H132.267C131.06 99.7571 129.846 97.5167 128.636 95.2758L128.585 95.2569C128.404 95.6609 128.166 96.0394 127.964 96.4336C126.959 98.2832 125.958 100.135 124.952 101.983L124.992 102H122.279C122.438 101.664 122.648 101.355 122.827 101.03Z" fill="#9F9F9E"/>
</svg>
