<svg width="174" height="174" viewBox="0 0 174 174" fill="none" xmlns="http://www.w3.org/2000/svg">
<path d="M46.7307 90.372L54.0961 102.895H39.3653L46.7307 90.372Z" fill="black"/>
<path d="M31.0001 88.7076L38.4576 75.8742L45.7954 88.7076H31.0001Z" fill="black"/>
<path d="M46.7307 88.0478L39.3653 75.3525H54.0961L46.7307 88.0478Z" fill="black"/>
<path d="M47.7345 88.7074L55.0323 75.874L62.3148 88.7074H47.7345Z" fill="black"/>
<path d="M47.7345 89.7148H62.3148L55.0323 102.339L47.7345 89.7148Z" fill="black"/>
<path d="M38.4576 102.339L45.7954 89.7148H31.0001L38.4576 102.339Z" fill="black"/>
<path d="M69.1445 93.6908H63.5475C63.5475 93.6908 62.8045 103.187 75.2265 102.895C81.9871 102.739 85.3029 98.9776 85.656 94.971C86.009 90.9675 83.8968 88.5052 80.5902 87.314C78.223 86.4635 76.6664 86.1841 75.8651 86.0183C75.0638 85.8526 71.9383 85.4012 71.005 84.514C70.0962 83.6543 70.0625 82.4753 70.4861 81.7416C70.8546 81.106 71.8401 80.0376 74.8458 80.1052C77.8515 80.1727 79.0397 81.5236 79.4726 83.9797H84.8516C84.8516 83.9797 85.4349 79.7705 81.2779 76.8968C80.3537 76.295 78.3888 75.3863 75.2296 75.242C72.1778 75.1069 69.1506 75.8714 66.9769 77.5968C65.6168 78.5946 63.9865 81.0385 64.3703 84.3942C64.4839 85.4105 64.8554 87.5841 67.2102 89.1561C68.8344 90.2337 71.2199 90.8938 72.8901 91.2776C74.2011 91.5785 79.0213 92.0451 79.5217 94.05C80.0222 96.0548 78.8708 97.0895 77.8024 97.507C76.734 97.9246 74.7783 98.4434 72.0734 97.6575C69.5835 96.9329 69.1475 93.6846 69.1475 93.6846" fill="black"/>
<path d="M104.013 94.0711H110.227C110.227 94.0711 108.474 101.955 99.8528 102.892C98.158 103.076 92.6347 103.26 88.8615 98.4154C85.2294 93.9206 85.7882 87.5254 85.954 86.3557C86.1198 85.1859 87.4922 75.3859 98.1488 75.0635C102.794 74.9223 108.204 77.535 110.261 83.7491H103.847C103.847 83.7491 102.226 80.3749 98.8857 80.1078C95.5453 79.8407 92.2049 82.2048 91.7352 88.0504C91.4159 92.143 93.1045 96.7452 97.0128 97.6816C100.921 98.618 102.877 96.211 104.013 94.0741" fill="black"/>
<path d="M116.787 75.3799H110.674V102.892H116.787V75.3799Z" fill="black"/>
<path d="M135.753 94.0652H141.967C141.967 94.0652 140.214 101.949 131.593 102.886C129.898 103.07 124.378 103.254 120.602 98.4095C116.97 93.9148 117.528 87.5196 117.694 86.3498C117.86 85.1801 119.232 75.38 129.889 75.0576C134.534 74.9164 139.944 77.5291 142.001 83.7432H135.587C135.587 83.7432 133.966 80.3691 130.626 80.102C127.286 79.8349 123.945 82.1989 123.475 88.0446C123.159 92.1371 124.845 96.7394 128.753 97.6758C132.661 98.6122 134.617 96.2051 135.753 94.0683" fill="black"/>
<path d="M112.283 105.87H113.542L111.807 114.034H110.988L110.92 114.365H114.601L114.669 114.034H113.49L115.185 105.87H116.02L116.072 105.539H112.351L112.283 105.87Z" fill="black"/>
<path d="M119.258 107.746C118.807 107.866 118.343 107.946 117.883 107.958L117.563 109.254H116.596L116.504 109.662H117.459L116.771 112.741C116.667 113.19 116.587 113.625 116.587 113.745C116.587 114.313 117.115 114.565 117.618 114.565C118.374 114.565 119.181 114.157 119.725 112.689L119.433 112.622C119.249 113.045 118.693 114.114 118.174 114.114C118.002 114.114 117.87 114.022 117.87 113.837C117.87 113.705 117.95 113.322 118.042 112.925L118.825 109.662H119.936L120.029 109.254H118.902L119.258 107.746Z" fill="black"/>
<path d="M122.418 111.669C122.974 109.609 123.333 109.385 123.929 109.385C124.524 109.385 124.844 110.058 124.844 110.601C124.844 111.473 124.34 113.561 123.465 113.997C123.253 114.101 123.041 114.233 122.802 114.233C122.298 114.233 121.743 114.169 122.418 111.669ZM125.065 110.23H125.037C124.933 109.582 124.454 109.054 123.766 109.054C122.203 109.054 120.733 110.865 120.733 112.357C120.733 113.757 121.42 114.565 122.507 114.565C123.262 114.565 123.818 114.233 124.226 113.613C124.279 114.153 124.665 114.565 125.221 114.565C126.24 114.565 126.983 113.481 127.287 112.621L127.023 112.529C126.864 112.885 126.256 113.981 125.832 113.981C125.648 113.981 125.568 113.849 125.568 113.677C125.568 113.466 125.676 113.122 125.792 112.661L126.652 109.238H125.369L125.065 110.23Z" fill="black"/>
<path d="M128.24 112.965C127.96 114.206 128.412 114.565 129.179 114.565C130.303 114.565 131.021 113.441 131.365 112.505L131.049 112.437C130.905 112.886 130.306 113.997 129.75 113.997C129.431 113.997 129.419 113.813 129.591 113.045L131.325 105.342L128.863 105.434L128.771 105.766H129.83L128.24 112.965Z" fill="black"/>
<path d="M132.738 109.462L131.956 112.858C131.876 113.202 131.851 113.53 131.851 113.65C131.851 114.258 132.275 114.494 132.806 114.562C133.27 114.614 133.773 114.39 134.089 114.046C134.473 113.622 134.752 113.134 135.004 112.618L134.713 112.514C134.461 112.938 134.009 113.982 133.442 113.982C133.257 113.982 133.15 113.89 133.15 113.69C133.15 113.543 133.27 113.162 133.334 112.883L134.221 109.079C133.81 109.079 133.414 109.131 133.002 109.131H131.784L131.691 109.462H132.738ZM134.67 106.503C134.67 106.094 134.286 105.75 133.902 105.75C133.518 105.75 133.147 106.107 133.147 106.503C133.147 106.899 133.491 107.27 133.902 107.27C134.313 107.27 134.67 106.926 134.67 106.503Z" fill="black"/>
<path d="M137.128 111.67C137.683 109.609 138.04 109.385 138.638 109.385C139.237 109.385 139.553 110.058 139.553 110.601C139.553 111.473 139.05 113.561 138.175 113.997C137.963 114.101 137.751 114.233 137.514 114.233C137.011 114.233 136.455 114.169 137.131 111.67M139.777 110.23H139.75C139.645 109.582 139.166 109.054 138.479 109.054C136.916 109.054 135.445 110.865 135.445 112.357C135.445 113.757 136.133 114.565 137.22 114.565C137.975 114.565 138.531 114.233 138.942 113.613C138.994 114.153 139.378 114.565 139.934 114.565C140.953 114.565 141.696 113.481 142 112.621L141.736 112.529C141.576 112.885 140.968 113.981 140.545 113.981C140.361 113.981 140.281 113.849 140.281 113.677C140.281 113.466 140.385 113.122 140.505 112.661L141.365 109.238H140.081L139.777 110.23Z" fill="black"/>
</svg>
