<svg width="174" height="174" viewBox="0 0 174 174" fill="none" xmlns="http://www.w3.org/2000/svg">
<path d="M29.0095 77.2808C34.9678 77.2783 40.9287 77.2758 46.8871 77.2808C46.8921 79.4543 46.8921 81.6278 46.8846 83.8039C45.0047 83.8064 43.1248 83.7989 41.245 83.8064C41.2374 87.905 41.2475 92.001 41.2399 96.0996C39.1492 96.1021 37.0611 96.1021 34.9704 96.0996C34.9628 91.981 34.9678 87.8648 34.9678 83.7462C32.9826 83.7361 30.9973 83.7436 29.012 83.7436C29.0019 81.5877 29.007 79.4342 29.0095 77.2808Z" fill="black"/>
<path d="M51.0344 77.3435C51.7422 77.3385 52.4525 77.3385 53.1628 77.3435C53.1678 81.5274 53.1653 85.7114 53.1628 89.8953C53.1678 90.8038 53.1653 91.73 53.3761 92.621C53.5694 93.4216 54.3399 93.9211 55.1154 94.0541C56.7619 94.3653 58.451 94.2825 60.1176 94.2674C61.0889 94.1896 62.2258 94.2097 62.9512 93.4492C63.679 92.7138 63.6489 91.5969 63.7066 90.6357C63.7066 86.2058 63.7066 81.7759 63.7066 77.346C64.4169 77.3385 65.1297 77.3385 65.84 77.346C65.84 82.0344 65.84 86.7203 65.84 91.4087C65.8149 92.8142 65.3732 94.3402 64.1685 95.1835C62.532 96.2477 60.4965 96.1473 58.6292 96.2301C56.7644 96.1724 54.7716 96.3104 53.0599 95.442C51.5966 94.679 51.0545 92.9272 51.0294 91.3811C51.0344 86.7027 51.0269 82.0219 51.0344 77.3435Z" fill="black"/>
<path d="M70.9232 77.3435C72.1731 77.3385 73.4255 77.3385 74.6779 77.3435C76.8665 82.6393 79.0551 87.9376 81.2361 93.2359C83.4272 87.9376 85.6309 82.6443 87.8194 77.3435C89.0668 77.3385 90.3142 77.3385 91.5616 77.3435C91.5641 83.5755 91.5666 89.8049 91.5616 96.0369C90.8313 96.0419 90.1009 96.0419 89.3705 96.0369C89.3831 90.4223 89.3605 84.8103 89.3028 79.1983C86.9611 84.8078 84.6847 90.4474 82.3254 96.0494C81.6076 96.0343 80.8898 96.0419 80.172 96.0369C77.8202 90.4023 75.4911 84.7576 73.1168 79.1305C73.1168 84.7651 73.1143 90.3997 73.1193 96.0343C72.3864 96.0444 71.6535 96.0419 70.9207 96.0369C70.9207 89.8049 70.9182 83.573 70.9232 77.3435Z" fill="black"/>
<path d="M96.6484 77.3435C97.3763 77.3385 98.1091 77.3385 98.8395 77.3435C98.8445 83.5755 98.8445 89.8049 98.8395 96.0369C98.1091 96.0419 97.3763 96.0419 96.6484 96.0369C96.6434 89.8049 96.6434 83.5755 96.6484 77.3435Z" fill="black"/>
<path d="M103.803 77.3435C107.073 77.3384 110.346 77.3435 113.616 77.3409C115.047 77.3786 116.565 77.7877 117.582 78.8494C118.606 79.8684 119.035 81.314 119.228 82.7095C119.444 84.6797 119.333 86.6625 119.364 88.6378C119.343 90.5553 119.11 92.6184 117.885 94.177C116.939 95.4093 115.368 96.0041 113.849 96.0418C110.501 96.0393 107.153 96.0393 103.805 96.0418C103.792 89.8073 103.803 83.5754 103.803 77.3435ZM105.999 79.2886C105.994 84.243 105.996 89.2 105.999 94.1544C108.195 94.1594 110.391 94.1569 112.587 94.1569C113.674 94.1117 114.881 94.064 115.759 93.3362C116.558 92.6886 116.894 91.6621 117.024 90.6783C117.27 88.6654 117.125 86.6324 117.167 84.6095C117.203 83.3796 117.092 82.0845 116.455 81.0003C115.905 79.9587 114.745 79.2886 113.576 79.2836C111.048 79.2886 108.524 79.2811 105.999 79.2886Z" fill="black"/>
<path d="M123.129 77.3436C127.143 77.3411 131.158 77.3386 135.172 77.3436C135.174 77.9912 135.177 78.6387 135.169 79.2863C131.889 79.2888 128.606 79.2812 125.326 79.2888C125.321 81.3795 125.321 83.4702 125.326 85.5584C128.483 85.5634 131.638 85.5559 134.795 85.5634C134.798 86.1457 134.798 86.728 134.8 87.3102C131.643 87.3303 128.483 87.3077 125.326 87.3203C125.321 89.5992 125.323 91.8756 125.326 94.1546C128.606 94.1621 131.889 94.1521 135.172 94.1596C135.177 94.7871 135.177 95.4145 135.167 96.042C131.156 96.0395 127.145 96.037 123.134 96.042C123.117 89.81 123.129 83.5756 123.129 77.3436Z" fill="black"/>
<path d="M139.504 77.3459C140.214 77.3384 140.925 77.3384 141.637 77.3459C141.63 83.5779 141.647 89.8098 141.63 96.0417C140.92 96.0392 140.212 96.0417 139.504 96.0342C139.504 89.8048 139.504 83.5753 139.504 77.3459Z" fill="black"/>
<path d="M146.313 77.4588C147.955 76.6055 150.174 78.0035 149.988 79.8783C150.076 81.8084 147.634 83.0633 146.062 81.9991C144.323 81.0705 144.491 78.1992 146.313 77.4588ZM146.524 77.9031C145.224 78.4703 144.898 80.3979 145.997 81.3215C147.054 82.4283 149.119 81.8159 149.451 80.3351C149.97 78.7138 148.03 77.1049 146.524 77.9031Z" fill="black"/>
<path d="M146.407 78.3474C147.047 78.3826 147.742 78.227 148.347 78.5031C148.96 78.9172 148.646 79.8885 147.956 80.019C148.199 80.4482 148.428 80.8874 148.646 81.3342C147.584 81.6052 147.88 79.758 146.909 79.9889C146.904 80.4256 146.904 80.8623 146.899 81.299C146.776 81.299 146.53 81.294 146.407 81.2915C146.4 80.3101 146.402 79.3288 146.407 78.3474ZM146.907 78.8469C146.907 79.0025 146.907 79.3137 146.907 79.4693C147.328 79.3815 148.054 79.7329 148.214 79.1431C147.973 78.6361 147.333 78.9247 146.907 78.8469Z" fill="black"/>
</svg>
