<svg width="174" height="174" viewBox="0 0 174 174" fill="none" xmlns="http://www.w3.org/2000/svg">
<path d="M103.572 96.3519C97.6914 96.4766 92.8291 91.822 92.7044 85.9415C92.7044 85.8999 92.7044 85.8584 92.7044 85.8168C93.3278 79.8531 98.6681 75.5103 104.632 76.1129C109.743 76.6531 113.795 80.6843 114.336 85.8168C114.252 91.6973 109.452 96.4142 103.572 96.3519C103.53 96.3519 103.489 96.3519 103.447 96.3519H103.572ZM103.572 71.022C95.2603 70.835 88.3823 77.4012 88.1953 85.7129C88.1953 85.7545 88.1953 85.796 88.1953 85.8376C88.1953 94.2947 95.0525 101.152 103.51 101.152C111.967 101.152 118.824 94.2947 118.824 85.8376C118.699 77.5259 111.863 70.8973 103.572 71.022Z" fill="black"/>
<path d="M145.673 81.2035C145.548 76.0087 141.268 71.8944 136.073 71.9568H125.559V99.8217H129.714V76.1126H136.426C139.231 76.0503 141.559 78.2737 141.621 81.0788C141.621 81.1204 141.621 81.162 141.621 81.2035C141.559 84.0295 139.252 86.2944 136.426 86.2944H130.878L134.348 90.2217L142.452 99.8217H148L139.564 89.7646C143.138 88.4347 145.569 85.0269 145.673 81.2035Z" fill="black"/>
<path d="M58.0653 71.4107L54.877 74.5991L65.6469 85.3691L68.8353 82.1807L58.0653 71.4107Z" fill="black"/>
<path d="M80.9087 71.3745L70.1094 82.1738L73.3271 85.3916L84.1265 74.5922L80.9087 71.3745Z" fill="black"/>
<path d="M65.7583 86.4375L54.959 97.2368L58.1768 100.455L68.9761 89.6552L65.7583 86.4375Z" fill="black"/>
<path d="M73.1668 86.4717L69.9784 89.6601L80.7484 100.43L83.9368 97.2417L73.1668 86.4717Z" fill="black"/>
<path d="M41.0067 89.0584L42.9807 93.339H30.9287L32.9028 89.0584H41.0067ZM23.3027 99.8221L36.9547 70.7935L50.6067 99.8221H45.9729L40.882 88.9545L36.9547 80.622L27.9365 99.8221H23.3027Z" fill="black"/>
</svg>
