<svg width="174" height="174" viewBox="0 0 174 174" fill="none" xmlns="http://www.w3.org/2000/svg">
<path fill-rule="evenodd" clip-rule="evenodd" d="M32 32H142V142H32V32Z" fill="white"/>
<path fill-rule="evenodd" clip-rule="evenodd" d="M77.2438 65.0579V51.4126H86.6884L86.6387 61.1248L77.2438 65.0579ZM98.4122 65.0579V51.4132H107.856L107.807 61.1248L98.4122 65.0579ZM76.1042 65.0579V51.4132H66.6602L66.7092 61.1248L76.1042 65.0579ZM97.272 65.0579V51.4132H87.828L87.8771 61.1248L97.272 65.0579ZM75.9786 89.8603H66.7446V78.5274H75.9786V89.8603ZM107.25 89.8603H98.0156V78.5274H107.25V89.8603ZM96.9656 89.8603H87.731V78.5274H96.9656V89.8603ZM86.6821 89.8603H77.4475V78.5274H86.6821V89.8603ZM75.9786 71.3917C75.9787 72.6162 75.4924 73.7905 74.6266 74.6563C73.7609 75.5222 72.5866 76.0087 71.3622 76.0087C70.1378 76.0088 68.9634 75.5225 68.0976 74.6567C67.2317 73.791 66.7453 72.6167 66.7452 71.3923C66.7451 70.786 66.8645 70.1857 67.0965 69.6256C67.3285 69.0654 67.6685 68.5564 68.0972 68.1277C68.5259 67.699 69.0348 67.3589 69.5949 67.1268C70.155 66.8948 70.7553 66.7753 71.3616 66.7753C72.586 66.7752 73.7604 67.2616 74.6262 68.1273C75.0549 68.556 75.395 69.0649 75.6271 69.625C75.8591 70.1851 75.9786 70.7855 75.9786 71.3917ZM107.458 71.6023C107.458 72.8268 106.972 74.001 106.106 74.8668C105.24 75.7326 104.066 76.219 102.842 76.219C101.617 76.219 100.443 75.7326 99.5772 74.8668C98.7114 74.001 98.225 72.8268 98.225 71.6023C98.225 69.052 100.291 66.985 102.842 66.985C105.392 66.985 107.458 69.052 107.458 71.6023ZM97.175 71.3917C97.175 73.9421 95.1086 76.009 92.5583 76.009C90.008 76.009 87.9416 73.9421 87.9416 71.3917C87.9416 68.842 90.008 66.775 92.5583 66.775C95.1086 66.775 97.175 68.842 97.175 71.3917ZM86.6821 71.3917C86.6821 73.9421 84.6151 76.009 82.0648 76.009C79.5145 76.009 77.4475 73.9421 77.4475 71.3917C77.4475 68.8414 79.5145 66.7745 82.0648 66.7745C84.6151 66.7745 86.6821 68.842 86.6821 71.3917Z" fill="#A8C94B"/>
<path d="M37.3184 92.3916H137.146" stroke="black" stroke-width="1.83333" stroke-miterlimit="2.613"/>
<path fill-rule="evenodd" clip-rule="evenodd" d="M53.2732 112.29H49.1552L43.0673 104.412L41.6349 104.464V109.502C41.6349 111.216 41.8906 111.702 43.937 111.804V112.291H36.8516V111.804C38.9237 111.676 39.0258 111.139 39.0258 109.221V98.1457C39.0258 96.2528 38.6423 96.0223 36.8516 95.8436V95.3574H43.9113C46.1883 95.3574 50.4084 95.8938 50.4084 99.8338C50.4084 103.261 47.0831 103.875 45.7785 104.131L51.0481 110.602C51.6108 111.293 52.2248 111.753 53.2732 111.804V112.29ZM41.6349 103.516C43.7835 103.491 47.6201 103.44 47.6201 99.7818C47.6201 96.3801 44.2691 96.303 43.2202 96.303C41.8649 96.303 41.6349 96.4816 41.6349 97.2235V103.516Z" fill="black"/>
<path fill-rule="evenodd" clip-rule="evenodd" d="M52.8652 111.906C54.4517 111.829 54.8865 111.676 54.8865 109.681V103.747C54.8865 102.237 54.4003 102.213 53.9912 102.213C53.6334 102.213 53.3007 102.264 52.968 102.315V101.932C54.2982 101.496 55.6027 101.01 56.933 100.524L57.0351 100.601V109.682C57.0351 111.37 57.1635 111.805 58.928 111.907V112.291H52.8652V111.906ZM55.7306 94.8198C56.4981 94.8198 57.0608 95.4082 57.0608 96.1238C57.0608 96.8662 56.4981 97.4289 55.7306 97.4289C54.8101 97.4289 54.4517 96.61 54.4517 96.1238C54.4517 95.6387 54.8352 94.8198 55.7306 94.8198ZM60.7439 103.645C60.7439 102.033 60.2577 102.007 59.8485 102.007C59.4901 102.007 59.235 102.059 59.0296 102.11V101.675C60.2389 101.342 61.4336 100.958 62.6106 100.524L62.7898 100.575V102.494C64.2992 101.342 65.3475 100.524 66.7291 100.524C68.392 100.524 69.1847 101.598 69.466 102.673C70.003 102.059 71.5632 100.524 73.584 100.524C76.2444 100.524 76.6028 103.184 76.6028 105.077V110.346C76.6028 110.909 76.5771 111.676 77.7025 111.855L78.3673 111.907V112.291H72.7656V111.907C74.0445 111.753 74.4537 111.703 74.4537 110.065V104.668C74.4537 103.363 74.4286 101.854 72.5864 101.854C71.1797 101.854 70.31 102.544 69.7474 103.414V109.86C69.7474 111.804 70.5406 111.881 71.5889 111.906V112.29H65.86V111.906C67.011 111.829 67.5994 111.752 67.5994 110.09V104.539C67.5994 102.851 67.1645 101.853 65.8343 101.853C64.0698 101.853 62.8925 103.234 62.8925 103.363V110.577C62.8925 111.829 63.7371 111.881 64.6319 111.906V112.29H58.9537V111.906C59.9763 111.881 60.7439 111.829 60.7439 110.116V103.645ZM88.7273 111.267C87.6527 112.52 86.86 112.546 86.4509 112.546C85.9903 112.546 84.9163 112.52 84.7879 110.679C83.8412 111.523 82.4858 112.546 81.0791 112.546C79.6976 112.546 78.3679 111.599 78.3679 109.886C78.3679 107.328 80.5935 106.458 84.7628 104.821V103.261C84.7628 101.419 83.561 101.137 82.7934 101.137C81.9494 101.137 80.9776 101.598 80.9776 102.391C80.9776 102.774 81.1054 103.158 81.1054 103.388C81.1054 103.925 80.6192 104.488 79.9544 104.488C79.1617 104.488 78.8541 103.772 78.8541 103.363C78.8541 102.34 80.0565 100.523 83.0234 100.523C86.8349 100.523 86.8349 103.081 86.8349 104.616V109.604C86.8349 110.345 86.8349 111.087 87.5762 111.087C88.1132 111.087 88.4465 110.832 88.7278 110.601L88.7273 111.267ZM84.7628 105.435C80.9 106.714 80.6192 108.147 80.6192 109.016V109.067C80.6192 110.269 81.3605 111.062 82.3072 111.062C82.8699 111.062 83.6631 110.73 83.8931 110.602C84.6858 110.218 84.7622 109.911 84.7622 109.144L84.7628 105.435Z" fill="black"/>
<path fill-rule="evenodd" clip-rule="evenodd" d="M100.315 111.216C99.0866 111.651 97.9093 112.06 96.554 112.546L96.4512 112.469V110.909H96.3999C95.9394 111.599 94.9932 112.546 93.1008 112.546C92.1033 112.546 88.4453 112.035 88.4453 106.816C88.4453 103.465 90.8764 100.524 93.7406 100.524C94.8397 100.524 95.6072 100.882 96.4512 101.624V97.6338C96.4512 96.8663 96.4512 96.3293 95.3265 96.3293C95.1724 96.3293 94.9161 96.3293 94.7124 96.355V95.9452C95.9907 95.6131 97.245 95.2547 98.472 94.8199L98.6004 94.8712V109.374C98.6004 110.423 98.6004 110.934 100.315 110.807V111.216ZM96.4512 103.798C96.2732 102.058 95.0189 101.24 93.8165 101.24C92.3841 101.24 90.6452 102.494 90.6452 105.972C90.6452 109.783 92.4868 111.216 94.1754 111.216C95.25 111.216 96.2475 110.602 96.4512 109.681V103.798ZM110.367 108.275C110.111 109.067 108.627 112.546 104.943 112.546C102.104 112.546 100.161 110.448 100.161 106.816C100.161 102.084 103.333 100.524 105.379 100.524C107.784 100.524 109.599 101.854 109.881 105.205H101.927C102.233 109.733 104.305 110.781 105.993 110.781C108.27 110.781 109.37 109.042 109.957 108.095L110.367 108.275ZM107.272 104.387C107.093 103.159 106.837 101.445 104.816 101.445C103.408 101.445 102.411 102.136 102.002 104.387H107.272ZM117.528 104.258C116.966 101.649 115.815 101.112 114.689 101.112C113.283 101.112 112.746 102.11 112.746 102.774C112.746 103.286 112.899 104.028 113.846 104.591L116.608 106.228C117.86 106.996 118.757 107.711 118.757 109.246C118.757 111.471 116.685 112.546 115.048 112.546C113.897 112.546 112.798 112.059 112.081 112.085C111.774 112.085 111.672 112.162 111.518 112.392H111.186V108.402H111.595C111.902 109.757 112.389 111.983 114.895 111.983C115.763 111.983 116.966 111.573 116.966 110.116C116.966 109.297 116.455 108.683 115.637 108.223L114.153 107.379C112.567 106.484 111.16 105.536 111.16 103.644C111.16 102.212 112.261 100.523 114.741 100.523C115.867 100.523 116.659 101.034 117.094 101.034C117.323 101.034 117.452 100.856 117.529 100.753H117.811L117.912 104.258L117.528 104.258ZM119.191 111.906C120.776 111.829 121.212 111.676 121.212 109.681V103.747C121.212 102.237 120.726 102.213 120.317 102.213C119.958 102.213 119.626 102.264 119.294 102.315V101.932C120.624 101.496 121.928 101.01 123.258 100.524L123.36 100.601V109.682C123.36 111.37 123.488 111.805 125.254 111.907V112.291H119.191V111.906ZM122.056 94.8199C122.823 94.8199 123.386 95.4082 123.386 96.1238C123.386 96.8663 122.823 97.429 122.056 97.429C121.136 97.429 120.777 96.6101 120.777 96.1238C120.776 95.6388 121.161 94.8199 122.056 94.8199ZM136.892 106.459C136.892 108.991 135.101 112.547 131.214 112.547C127.913 112.547 125.612 109.912 125.612 106.459C125.612 103.312 127.71 100.524 131.137 100.524C134.487 100.524 136.892 102.749 136.892 106.459ZM134.59 107.199C134.59 104.028 133.286 101.24 130.932 101.24C129.321 101.24 127.913 102.57 127.913 105.23C127.913 107.123 128.502 111.829 131.571 111.829C132.875 111.83 134.59 110.858 134.59 107.199ZM53.3537 119.679V115.033H53.9637V119.128H56.2527V119.679H53.3537ZM56.8302 119.679V115.033H57.4408V119.679H56.8302ZM58.2546 119.679V115.033H59.1791L60.2759 118.32C60.3769 118.627 60.4505 118.855 60.4968 119.007C60.5498 118.838 60.6332 118.591 60.7456 118.263L61.863 115.033H62.6881V119.679H62.0946V115.788L60.7404 119.679H60.1858L58.8475 115.72V119.679H58.2546ZM63.418 119.679V115.033H65.1694C65.4776 115.033 65.7127 115.048 65.8753 115.078C66.1036 115.116 66.2948 115.188 66.4489 115.295C66.6029 115.403 66.7268 115.552 66.8209 115.745C66.9151 115.938 66.9619 116.149 66.9619 116.38C66.9619 116.776 66.8358 117.111 66.5847 117.385C66.333 117.659 65.8788 117.797 65.2208 117.797H64.0286V119.679H63.418ZM64.0281 117.245H65.2293C65.6265 117.245 65.9084 117.172 66.0751 117.023C66.2417 116.876 66.3256 116.667 66.3256 116.399C66.3256 116.204 66.2765 116.038 66.1784 115.899C66.0858 115.765 65.9481 115.668 65.7903 115.625C65.6864 115.598 65.4953 115.584 65.2168 115.584H64.0281V117.245ZM67.5885 119.679V115.033H68.1985V119.679H67.5885ZM69.03 119.679V115.033H70.6267C70.9874 115.033 71.2625 115.055 71.4519 115.1C71.7173 115.161 71.9438 115.272 72.1316 115.432C72.3758 115.639 72.5584 115.904 72.68 116.226C72.801 116.548 72.8615 116.917 72.8615 117.331C72.8615 117.684 72.8204 117.996 72.7382 118.269C72.6555 118.542 72.5505 118.767 72.4221 118.946C72.3076 119.111 72.1645 119.253 71.9998 119.367C71.8468 119.47 71.6631 119.548 71.4468 119.6C71.2027 119.656 70.9529 119.682 70.7026 119.679H69.03V119.679ZM69.6406 119.128H70.6296C70.9349 119.128 71.1751 119.099 71.3486 119.043C71.5221 118.986 71.6608 118.906 71.7646 118.802C71.9096 118.657 72.0232 118.46 72.1042 118.216C72.1852 117.969 72.2257 117.672 72.2257 117.322C72.2257 116.837 72.1459 116.464 71.9872 116.203C71.8286 115.943 71.6345 115.768 71.4068 115.68C71.2425 115.617 70.9783 115.585 70.6136 115.585H69.64L69.6406 119.128ZM73.4818 119.679V115.033H76.8219V115.584H74.0924V117H76.6439V117.551H74.0924V119.128H76.9321V119.679H73.4818ZM79.1708 119.679V115.033H79.7808V119.679H79.1708ZM80.6123 119.679V115.033H82.2085C82.5691 115.033 82.8442 115.055 83.0337 115.1C83.299 115.161 83.5256 115.272 83.7133 115.432C83.9576 115.639 84.1408 115.904 84.2612 116.226C84.3822 116.548 84.4432 116.917 84.4432 117.331C84.4432 117.684 84.4021 117.996 84.3199 118.269C84.2378 118.542 84.1322 118.767 84.0038 118.946C83.8754 119.125 83.7344 119.266 83.5821 119.367C83.4291 119.47 83.2448 119.548 83.0285 119.6C82.8122 119.653 82.5646 119.679 82.2838 119.679H80.6123V119.679ZM81.2224 119.128H82.2113C82.5166 119.128 82.7563 119.099 82.9304 119.043C83.1044 118.986 83.2431 118.906 83.3464 118.802C83.4919 118.657 83.6049 118.46 83.6859 118.216C83.767 117.969 83.8081 117.672 83.8081 117.322C83.8081 116.837 83.7282 116.464 83.5695 116.203C83.4103 115.943 83.2168 115.768 82.9891 115.68C82.8248 115.617 82.5606 115.585 82.1959 115.585H81.2224V119.128ZM85.0641 119.679V115.033H88.4042V115.584H85.6747V117H88.2256V117.551H85.6747V119.128H88.5144V119.679H85.0641ZM89.133 119.679V115.033H92.4737V115.584H89.7442V117H92.2951V117.551H89.7442V119.128H92.5827V119.679H89.133ZM94.7193 119.679V115.033H96.3166C96.6767 115.033 96.9517 115.055 97.1412 115.1C97.4065 115.161 97.6337 115.272 97.8208 115.432C98.0651 115.639 98.2477 115.904 98.3693 116.226C98.4908 116.549 98.5507 116.917 98.5507 117.331C98.5507 117.684 98.5096 117.996 98.4269 118.269C98.3453 118.542 98.2397 118.767 98.1113 118.946C97.9818 119.125 97.8414 119.266 97.689 119.367C97.5361 119.47 97.3523 119.548 97.136 119.6C96.9198 119.653 96.6715 119.679 96.3913 119.679H94.7193V119.679ZM95.3304 119.128H96.3188C96.6242 119.128 96.865 119.099 97.039 119.043C97.2131 118.986 97.3512 118.906 97.455 118.802C97.6 118.657 97.7136 118.46 97.794 118.216C97.8756 117.969 97.9167 117.672 97.9167 117.322C97.9167 116.837 97.8363 116.464 97.6782 116.203C97.519 115.943 97.3249 115.768 97.0972 115.68C96.9335 115.617 96.6681 115.585 96.3034 115.585H95.3304V119.128ZM99.0809 116.678L98.9348 115.809V115.033H99.5871V115.809L99.4341 116.678H99.0809ZM99.6259 119.679L101.4 115.033H102.064L103.964 119.679H103.263L102.731 118.272H100.776L100.27 119.679H99.6259ZM100.951 117.772H102.537L102.05 116.485C101.928 116.166 101.817 115.843 101.716 115.517C101.653 115.818 101.568 116.116 101.46 116.409L100.951 117.772ZM104.203 119.679V115.033H106.256C106.669 115.033 106.983 115.075 107.198 115.159C107.413 115.242 107.586 115.39 107.714 115.601C107.844 115.813 107.907 116.046 107.907 116.302C107.907 116.633 107.801 116.91 107.587 117.136C107.374 117.363 107.045 117.506 106.6 117.568C106.763 117.646 106.885 117.723 106.97 117.799C107.149 117.963 107.319 118.169 107.478 118.416L108.282 119.679H107.514L106.901 118.714C106.762 118.495 106.615 118.281 106.457 118.075C106.342 117.927 106.238 117.824 106.146 117.765C106.061 117.708 105.966 117.667 105.867 117.642C105.754 117.623 105.639 117.616 105.524 117.619H104.812V119.679H104.203ZM104.813 117.085H106.133C106.412 117.085 106.632 117.055 106.789 116.998C106.947 116.94 107.066 116.847 107.149 116.719C107.231 116.592 107.272 116.453 107.272 116.303C107.272 116.084 107.192 115.904 107.033 115.763C106.875 115.621 106.624 115.551 106.281 115.551H104.813V117.085ZM108.629 119.679V115.033H110.683C111.096 115.033 111.41 115.075 111.625 115.159C111.84 115.242 112.012 115.39 112.141 115.601C112.27 115.813 112.334 116.046 112.334 116.302C112.334 116.633 112.227 116.91 112.014 117.136C111.801 117.363 111.472 117.506 111.027 117.568C111.189 117.646 111.313 117.723 111.397 117.799C111.576 117.963 111.746 118.169 111.906 118.416L112.709 119.679H111.941L111.327 118.714C111.189 118.495 111.041 118.282 110.885 118.075C110.769 117.927 110.665 117.824 110.572 117.765C110.487 117.708 110.392 117.666 110.293 117.642C110.18 117.623 110.065 117.616 109.95 117.619H109.239V119.679H108.629ZM109.241 117.085H110.559C110.84 117.085 111.06 117.055 111.217 116.998C111.364 116.948 111.49 116.85 111.576 116.719C111.658 116.592 111.698 116.453 111.698 116.303C111.698 116.084 111.619 115.904 111.461 115.763C111.303 115.621 111.051 115.551 110.709 115.551H109.241L109.241 117.085ZM113.073 119.679V115.033H116.414V115.584H113.684V117H116.235V117.551H113.684V119.128H116.523V119.679H113.073ZM117.117 119.679V115.033H118.713C119.073 115.033 119.348 115.055 119.538 115.1C119.804 115.161 120.03 115.272 120.217 115.432C120.462 115.639 120.645 115.904 120.766 116.226C120.887 116.548 120.947 116.917 120.947 117.331C120.947 117.684 120.907 117.996 120.825 118.269C120.742 118.542 120.636 118.767 120.508 118.946C120.379 119.125 120.239 119.266 120.086 119.367C119.933 119.47 119.749 119.548 119.533 119.6C119.316 119.653 119.069 119.679 118.788 119.679H117.117V119.679ZM117.727 119.128H118.716C119.022 119.128 119.261 119.099 119.436 119.043C119.61 118.986 119.748 118.906 119.852 118.802C119.997 118.657 120.11 118.46 120.192 118.216C120.273 117.969 120.313 117.672 120.313 117.322C120.313 116.837 120.234 116.464 120.075 116.203C119.915 115.943 119.723 115.768 119.495 115.68C119.33 115.617 119.066 115.585 118.701 115.585H117.727V119.128ZM121.357 117.418C121.357 116.648 121.564 116.046 121.978 115.611C122.393 115.175 122.926 114.957 123.582 114.957C124.01 114.957 124.397 115.059 124.741 115.264C125.085 115.468 125.347 115.753 125.528 116.119C125.708 116.485 125.8 116.9 125.8 117.364C125.8 117.834 125.704 118.255 125.514 118.626C125.337 118.983 125.056 119.277 124.707 119.469C124.361 119.659 123.973 119.758 123.579 119.755C123.14 119.755 122.751 119.65 122.406 119.439C122.066 119.234 121.794 118.933 121.623 118.575C121.446 118.215 121.355 117.819 121.357 117.418ZM121.993 117.425C121.993 117.984 122.143 118.425 122.444 118.746C122.744 119.068 123.121 119.229 123.575 119.229C124.036 119.229 124.417 119.066 124.715 118.742C125.013 118.417 125.163 117.956 125.163 117.359C125.163 116.981 125.099 116.652 124.971 116.371C124.854 116.101 124.659 115.873 124.412 115.716C124.164 115.56 123.876 115.479 123.584 115.483C123.15 115.483 122.776 115.633 122.462 115.931C122.15 116.229 121.993 116.727 121.993 117.425Z" fill="black"/>
</svg>
