<svg width="174" height="174" viewBox="0 0 174 174" fill="none" xmlns="http://www.w3.org/2000/svg">
<path d="M74.846 72.5931H72.7788H69.8795C61.2827 72.5931 54.917 78.6453 54.917 87.4392C54.917 95.2855 60.7155 102.829 68.9215 102.816C69.1232 102.816 70.1821 102.816 70.1821 102.816V90.1304H62.5558V85.5945H74.8839V107.352H69.8921C59.0011 107.352 50.2656 98.4063 50.2656 87.4645C50.2656 76.5226 59.0263 67.5518 69.8795 67.5518H72.7788H74.846V72.5931ZM97.8886 72.4541C92.9725 72.4541 94.3087 77.0153 95.7583 79.5676C99.1365 85.5187 105.048 92.5437 101.632 99.8467C98.9475 105.57 94.7373 106.91 89.7077 107.453V102.892C92.9473 102.538 95.7583 101.666 97.5105 97.9136C100.599 91.3434 90.691 83.2949 89.8464 77.1164C88.8884 70.1293 95.002 67.9055 97.8886 67.9055H100.17V72.5678L97.8886 72.4541ZM109.107 72.5426C104.191 72.5426 105.527 77.1038 106.977 79.656C110.355 85.6197 116.267 92.6321 112.851 99.9352C110.179 105.621 106.006 106.985 101.015 107.529V102.968C104.216 102.614 106.977 101.717 108.729 97.9894C111.818 91.4192 101.91 83.3707 101.065 77.1922C100.107 70.2051 106.221 67.9813 109.107 67.9813L111.389 67.8803V72.5426H109.107ZM115.221 67.7792H119.771V107.39H115.221V67.7792ZM76.636 67.8803H76.6234H88.1321V72.4668H81.363V75.2085H85.006V79.7698H81.1739V102.778H88.1321V107.352H76.6234L76.636 67.8803ZM123.402 67.7539C124.801 67.7666 125.91 68.9163 125.898 70.3062C125.885 71.7087 124.738 72.8205 123.351 72.8079C121.965 72.7953 120.843 71.6581 120.856 70.2683C120.856 68.8784 121.977 67.7539 123.364 67.7539C123.389 67.7539 123.389 67.7539 123.402 67.7539ZM123.402 72.4415C124.574 72.4415 125.482 71.5065 125.482 70.2683C125.482 69.0553 124.574 68.1203 123.402 68.1203C122.23 68.1203 121.309 69.0553 121.309 70.2683C121.322 71.5065 122.23 72.4415 123.402 72.4415ZM122.419 68.8026H123.566C124.272 68.8026 124.599 69.0806 124.599 69.6492C124.599 70.1798 124.259 70.4073 123.818 70.4578L124.662 71.7592H124.171L123.364 70.4831H122.872V71.7592H122.419V68.8026ZM122.885 70.1167H123.364C123.767 70.1167 124.146 70.0914 124.146 69.6239C124.146 69.2322 123.805 69.169 123.503 69.169H122.898L122.885 70.1167Z" fill="black"/>
</svg>
