<svg width="174" height="174" viewBox="0 0 174 174" fill="none" xmlns="http://www.w3.org/2000/svg">
<path d="M53 42H128V121H53V42ZM110.16 43.0338C108.677 44.6797 107.105 46.2461 105.52 47.7958C104.812 48.4131 104.04 48.9625 103.402 49.6572C103.116 49.9596 102.841 50.2746 102.576 50.5958C102.453 50.7601 102.325 50.9202 102.203 51.0845C101.605 51.8766 101.101 52.7304 100.63 53.601C100.577 53.7098 100.525 53.8197 100.479 53.9306C100.402 54.0676 100.337 54.211 100.279 54.3575C100.199 54.5291 100.125 54.7038 100.067 54.8848C100.004 55.0491 99.9536 55.2186 99.9022 55.3871C99.875 55.4949 99.8457 55.6006 99.8132 55.7062C99.7022 56.0808 99.6844 56.4753 99.5849 56.853C99.5419 57.2339 99.5723 57.6242 99.4749 57.9988C99.456 58.6371 99.456 59.2764 99.4728 59.9157C99.5786 60.3876 99.5429 60.8752 99.588 61.3545C99.6707 61.6349 99.6697 61.931 99.6927 62.2209C99.7744 62.4186 99.7755 62.6363 99.7964 62.8466C99.8823 63.0548 99.8834 63.2819 99.8907 63.5037L99.964 63.5068C99.9735 63.6617 99.986 63.8176 100.002 63.9725C100.169 64.482 100.222 65.0251 100.41 65.5294C101.093 65.5085 101.73 65.2239 102.326 64.911C103.966 64.0007 105.317 62.6446 106.451 61.1672C106.534 61.05 106.623 60.937 106.711 60.824C106.998 60.4117 107.287 59.9994 107.552 59.5725C107.731 59.2911 107.911 59.0096 108.065 58.7124C108.185 58.5115 108.321 58.3138 108.38 58.0846C108.399 58.0794 108.437 58.0679 108.456 58.0626C108.578 57.7466 108.751 57.4557 108.901 57.1534C108.981 56.9859 109.056 56.8154 109.11 56.6375C109.164 56.5036 109.221 56.3696 109.277 56.2367C109.378 55.9532 109.485 55.6707 109.597 55.3913C109.608 55.34 109.633 55.2364 109.646 55.1852C109.689 55.0795 109.72 54.9706 109.753 54.8608C109.885 54.5207 109.979 54.1681 110.08 53.8176C110.231 53.263 110.392 52.7084 110.49 52.1403C110.548 51.9739 110.567 51.797 110.595 51.6234C110.666 51.4538 110.669 51.2676 110.691 51.0876C110.782 50.8773 110.777 50.645 110.785 50.419L110.853 50.4127C110.862 50.1867 110.878 49.9596 110.904 49.7347C111.009 49.4323 110.969 49.1048 111.003 48.7909C111.134 48.2771 111.066 47.7372 111.105 47.213C111.191 46.6416 111.181 46.0525 111.104 45.4812C111.088 45.0386 111.077 44.5971 111.06 44.1545L110.993 44.1429C110.986 43.8489 111.006 43.5444 110.9 43.264C110.88 43.0704 110.865 42.8758 110.854 42.6812L110.784 42.6864C110.771 42.5598 110.758 42.4332 110.745 42.3076C110.57 42.565 110.371 42.8046 110.16 43.0338ZM115.12 65.1088C113.513 65.745 112.054 66.716 110.742 67.8314C110.794 67.9099 110.845 67.9894 110.898 68.07C111.295 68.5607 111.828 68.9249 112.378 69.2241C114.146 70.1449 116.175 70.4337 118.148 70.4337C121.345 70.2548 124.549 69.2775 127.161 67.3961C125.5 66.9776 123.893 66.3686 122.287 65.7764C120.828 65.0042 119.172 64.6557 117.527 64.6463C116.702 64.6202 115.887 64.8179 115.12 65.1088ZM100.215 70.869C100.057 71.162 99.9818 71.4853 99.8907 71.8034C99.8729 72.0901 99.8729 72.3789 99.8949 72.6666C99.9389 72.8058 99.9714 72.9492 100.003 73.0936C100.076 73.2631 100.146 73.4347 100.214 73.6073C100.411 73.9338 100.645 74.2383 100.943 74.4779C101.572 74.9582 102.391 75.1894 103.177 75.0544C104.087 74.9341 104.875 74.3073 105.299 73.5069C105.359 73.3227 105.428 73.1406 105.515 72.968C105.551 72.4532 105.615 71.9175 105.465 71.4152C105.412 71.2687 105.358 71.1222 105.305 70.9768C104.84 70.0717 103.891 69.4219 102.863 69.3895C101.791 69.3256 100.729 69.9304 100.215 70.869ZM67.4993 77.8388C66.7797 78.2971 66.2172 78.9553 65.7437 79.6574C65.574 79.9692 65.3991 80.282 65.2839 80.62C65.2304 80.7529 65.1812 80.8889 65.132 81.025C65.1016 81.1348 65.0691 81.2436 65.0325 81.3525C64.8031 82.3789 64.823 83.4441 64.9172 84.4853C64.9717 84.6569 64.999 84.8337 65.0283 85.0105C65.0786 85.1811 65.1215 85.3537 65.177 85.5232C65.2409 85.7011 65.3122 85.8769 65.3886 86.0517C65.6777 86.7506 66.1198 87.3743 66.6393 87.9215C68.2252 89.5454 70.8282 89.9535 72.8844 89.0495C74.1089 88.4761 75.1344 87.4705 75.6948 86.2379C75.7524 86.1071 75.8122 85.9763 75.876 85.8487C75.9253 85.7022 75.9777 85.5578 76.029 85.4123C76.0772 85.2637 76.1034 85.1099 76.1274 84.9561L76.1892 84.9488C76.2018 84.7929 76.2175 84.637 76.2364 84.4821C76.4008 83.6963 76.3191 82.876 76.2888 82.0776C76.2259 81.9049 76.1987 81.7239 76.1756 81.5439C76.1253 81.3734 76.0782 81.2018 76.0185 81.0344C76.0091 80.9789 75.9892 80.869 75.9787 80.8136C75.9148 80.6765 75.8509 80.5405 75.7849 80.4066C75.7828 80.3793 75.7786 80.327 75.7776 80.3009C75.7472 80.2454 75.6865 80.1355 75.6571 80.0811C75.6068 79.9807 75.5566 79.8802 75.5042 79.7819C74.6788 78.2898 73.1432 77.212 71.4441 76.9923C70.0855 76.7987 68.6515 77.0854 67.4993 77.8388ZM83.4735 77.6264C81.7964 78.1077 80.2147 79.1415 79.36 80.6933C79.2992 80.8377 79.2332 80.98 79.1515 81.1149C79.0908 81.2939 79.0311 81.4749 78.9609 81.6517C78.9305 81.7898 78.8918 81.928 78.8467 82.0629C78.764 82.8341 78.765 83.6147 78.8467 84.3859C78.9064 84.5198 78.9242 84.6652 78.9504 84.8107C79.0248 85.0168 79.0866 85.2271 79.1557 85.4353C79.228 85.5787 79.294 85.7252 79.3621 85.8717C79.4448 85.9983 79.5203 86.1301 79.5852 86.2683C80.4787 87.662 82.0007 88.5681 83.596 88.9291C85.1536 89.2933 86.772 89.3414 88.3621 89.2158C88.3422 87.1587 88.3464 85.1026 88.3705 83.0455C87.8792 83.0507 87.389 83.0476 86.8987 83.0497C86.9061 84.7217 86.9186 86.3938 86.9176 88.0669C85.8387 88.0523 84.7483 87.9403 83.7196 87.6013C82.536 87.2173 81.4246 86.4817 80.7929 85.3883C80.7081 85.2292 80.6285 85.067 80.574 84.8954C80.5216 84.7584 80.4724 84.6213 80.4211 84.4853C80.3991 84.3053 80.374 84.1264 80.3101 83.9568C80.2786 83.5027 80.2765 83.0465 80.308 82.5934C80.4012 82.2398 80.485 81.883 80.6285 81.546C81.0297 80.6776 81.7001 79.9294 82.5339 79.4554C84.1407 78.5461 86.045 78.4059 87.8551 78.4363C87.8488 78.0188 87.8153 77.6023 87.8195 77.1848C86.3614 77.0781 84.8813 77.235 83.4735 77.6264ZM55.4396 77.2978C55.4679 81.2489 55.4888 85.1999 55.4344 89.1499C55.9288 89.175 56.4242 89.1677 56.9197 89.1531C56.9092 88.8538 56.9103 88.5545 56.9082 88.2553C56.7867 86.8343 56.8736 85.4029 56.8296 83.9778C58.6617 83.9077 60.4969 83.9914 62.33 83.9725C62.4452 83.96 62.5604 83.9432 62.6746 83.9223C62.6578 83.5341 62.6599 83.1449 62.6683 82.7567C60.7242 82.7253 58.78 82.7807 56.8359 82.7556C56.8495 82.1069 56.8317 81.4592 56.8547 80.8115C56.9522 80.0477 56.8935 79.2754 56.9155 78.5074C58.8471 78.5168 60.7797 78.5001 62.7112 78.5315C62.7091 78.1182 62.7091 77.7059 62.7071 77.2936C60.2853 77.3271 57.8624 77.3062 55.4396 77.2978ZM92.1089 77.2738C92.1508 81.2363 92.1341 85.1989 92.111 89.1614C94.5527 89.1353 96.9944 89.1541 99.4361 89.1499C99.4277 88.7345 99.4288 88.3202 99.434 87.9048C97.4825 87.9152 95.5321 87.9267 93.5807 87.9163C93.5702 84.367 93.5597 80.8188 93.5964 77.2696C93.0999 77.2643 92.6044 77.2633 92.1089 77.2738ZM101.951 77.2759C101.98 81.2353 101.996 85.1957 101.945 89.1552C102.439 89.174 102.935 89.1667 103.429 89.1541C103.416 88.1747 103.403 87.1953 103.412 86.2159L103.345 86.2097C103.352 83.9087 103.354 81.6067 103.353 79.3058L103.42 79.3037C103.408 78.6288 103.421 77.9529 103.428 77.2769C102.936 77.2623 102.443 77.2633 101.951 77.2759ZM107.533 77.3041C107.544 77.7237 107.548 78.1443 107.541 78.5639L107.603 78.5807C107.617 81.5073 107.611 84.434 107.613 87.3617L107.544 87.3669C107.556 87.9602 107.552 88.5545 107.529 89.1489C110.073 89.1541 112.619 89.1426 115.163 89.1531C115.157 88.7554 115.158 88.3589 115.166 87.9623C113.131 87.9592 111.095 87.9822 109.059 87.956C109.058 87.7572 109.06 87.5595 109.069 87.3617L108.998 87.368C109.014 86.1186 108.994 84.8682 109 83.6189C111.015 83.6126 113.032 83.6482 115.049 83.6252C115.048 83.2244 115.047 82.8226 115.049 82.4218C113.031 82.4114 111.015 82.4375 108.999 82.4271C108.998 81.1296 109.02 79.8332 109.001 78.5367C110.479 78.4781 111.959 78.5242 113.438 78.5147C113.976 78.5001 114.518 78.5639 115.054 78.4917C115.047 78.0951 115.049 77.6996 115.05 77.3041C112.544 77.3114 110.039 77.3083 107.533 77.3041ZM71.6201 93.7026C71.5583 93.8721 71.4829 94.0375 71.4054 94.2007C71.2943 94.5272 71.1257 94.8295 70.9853 95.1424C70.867 95.4636 70.7098 95.7692 70.5831 96.0873C70.4323 96.4462 70.2605 96.7967 70.1117 97.1567C69.9787 97.4308 69.8876 97.7259 69.7179 97.9812C69.7179 98.0094 69.72 98.0649 69.72 98.0931C69.6278 98.1821 69.6027 98.3045 69.5754 98.4248C69.9598 98.5818 70.3369 98.7586 70.7224 98.9166C70.8785 98.5954 71.0398 98.2763 71.1938 97.954C71.3708 97.6045 71.5395 97.2498 71.7165 96.9003C71.8715 96.601 72.0182 96.2976 72.1512 95.9889C72.3544 95.6551 72.5021 95.292 72.6739 94.9426C72.7577 94.7982 72.8394 94.6506 72.8792 94.4884L72.9609 94.4748C72.9609 94.4277 72.9598 94.3336 72.9598 94.2854C72.5105 94.0961 72.0705 93.8878 71.6201 93.7026ZM78.5649 94.6171C77.0157 95.1529 75.7556 96.3405 74.9825 97.7677C74.8558 98.0513 74.7071 98.3244 74.6117 98.6215C74.5017 98.8936 74.4368 99.1814 74.3352 99.4576C74.3195 99.6072 74.3059 99.7589 74.2943 99.9117L74.2252 99.9159C74.2116 100.21 74.2263 100.512 74.1351 100.797C74.1058 101.221 74.1163 101.647 74.1236 102.072C74.2126 102.426 74.2126 102.793 74.2294 103.156L74.2954 103.16C74.3101 103.314 74.3279 103.467 74.353 103.622C74.4022 103.743 74.4326 103.87 74.4452 104.002L74.4965 104.001C74.5248 104.234 74.6013 104.457 74.7154 104.663C74.816 104.96 74.9626 105.238 75.1156 105.511C75.6645 106.512 76.4857 107.365 77.4546 107.967C79.0091 108.904 80.9574 109.096 82.6962 108.618C84.0852 108.232 85.2657 107.296 86.1341 106.167C86.287 105.91 86.4724 105.674 86.5981 105.403C86.6526 105.305 86.7081 105.207 86.7647 105.111C86.8118 104.996 86.861 104.883 86.9103 104.771C86.9501 104.667 86.9878 104.564 87.0255 104.461C87.0779 104.326 87.1302 104.191 87.1868 104.059C87.1983 104.004 87.2224 103.894 87.235 103.839C87.2769 103.698 87.3094 103.556 87.3471 103.417C87.4916 102.801 87.5471 102.169 87.5304 101.538C87.5105 101.119 87.567 100.688 87.4403 100.284C87.4204 100.109 87.4015 99.9368 87.3774 99.7652C87.3135 99.6135 87.2999 99.4492 87.2884 99.2881L87.2266 99.287C87.1994 99.0819 87.1407 98.8852 87.0789 98.6896C87.0234 98.5588 86.971 98.428 86.9176 98.2972C86.817 98.0345 86.6861 97.7855 86.5531 97.5375C86.4494 97.3607 86.3425 97.186 86.2315 97.0154C85.5883 96.0883 84.7147 95.3224 83.6903 94.8432C82.1013 94.1013 80.2137 94.0259 78.5649 94.6171ZM105.19 96.6366C105.073 96.803 104.951 96.9673 104.82 97.1232C104.77 97.2184 104.722 97.3157 104.675 97.413L104.617 97.4214C104.472 97.7541 104.266 98.0597 104.151 98.406C104.098 98.5389 104.045 98.6707 103.993 98.8047C103.957 98.9124 103.92 99.0192 103.882 99.1269C103.867 99.2159 103.853 99.3069 103.841 99.399C104.465 99.3927 105.09 99.4115 105.715 99.3833C105.725 99.3184 105.746 99.1876 105.757 99.1217C105.817 98.9888 105.875 98.8549 105.936 98.723C105.99 98.5766 106.055 98.4342 106.136 98.3003C106.472 97.5825 107.02 96.9861 107.636 96.4953C108.832 95.5997 110.483 95.4019 111.877 95.9136C113.179 96.4179 114.186 97.5365 114.68 98.8277C114.76 99.0108 114.828 99.2002 114.878 99.3948C115.483 99.4011 116.086 99.3979 116.691 99.4C116.66 99.2044 116.637 99.0087 116.574 98.8235C116.532 98.7157 116.493 98.61 116.455 98.5033C116.377 98.2867 116.275 98.0806 116.185 97.8713C116.133 97.7761 116.08 97.6819 116.027 97.5888C115.436 96.4943 114.524 95.5641 113.419 94.9844C112.213 94.3304 110.798 94.1149 109.443 94.276C107.79 94.4727 106.23 95.336 105.19 96.6366ZM91.2846 94.6056C91.3139 99.2211 91.3212 103.838 91.2793 108.453C91.8429 108.46 92.4064 108.447 92.97 108.464C92.9595 104.311 92.9427 100.157 92.9689 96.0025C93.6812 95.9324 94.4008 95.9722 95.1142 96.0224C96.0045 96.0967 96.9557 96.4022 97.5045 97.1525C97.5821 97.2854 97.6575 97.4214 97.7329 97.5584C97.7601 97.6641 97.7884 97.7709 97.8198 97.8776C97.956 98.4531 97.9277 99.083 97.7203 99.6417C97.6313 99.8835 97.4846 100.097 97.3443 100.312C96.6906 101.169 95.6704 101.604 94.714 102.028C95.0513 102.251 95.2535 102.612 95.5342 102.895C97.0405 104.598 98.5353 106.311 100.057 108.001C100.246 108.242 100.473 108.448 100.672 108.679C101.163 108.384 101.584 107.986 102.022 107.62C101.13 106.726 100.244 105.827 99.39 104.897C99.0601 104.533 98.6955 104.202 98.3844 103.823C97.9351 103.329 97.4993 102.825 97.0489 102.334C97.9057 101.66 98.8338 100.98 99.3408 99.985C99.455 99.7108 99.5629 99.4325 99.6006 99.1364C99.742 98.407 99.7001 97.615 99.3848 96.9338C99.3251 96.7925 99.2549 96.6575 99.1742 96.5288C99.0873 96.4085 99.0004 96.2913 98.9145 96.172C98.2242 95.3234 97.1484 94.908 96.1009 94.7071C94.5077 94.4508 92.8893 94.592 91.2846 94.6056ZM55.3359 94.6046C55.3747 99.2222 55.3652 103.842 55.3348 108.46C57.0873 108.525 58.867 108.596 60.5901 108.206C62.3289 107.822 64.0457 107.06 65.2786 105.744C65.639 105.352 65.9564 104.923 66.2235 104.462C66.3345 104.222 66.4476 103.983 66.5503 103.739C66.611 103.561 66.6665 103.382 66.7147 103.201C66.9515 102.29 66.9452 101.318 66.8111 100.394C66.7818 100.217 66.7556 100.041 66.7116 99.8688C66.6393 99.5758 66.5293 99.2944 66.434 99.0087C66.3617 98.8716 66.2947 98.7314 66.2329 98.5891C65.2074 96.6502 63.146 95.4898 61.0709 94.9907C59.1959 94.5303 57.2517 94.568 55.3359 94.6046ZM102.167 100.081C102.185 101.017 102.184 101.954 102.168 102.891C102.755 102.887 103.411 102.985 103.917 102.612C104.219 102.433 104.225 102.039 104.164 101.734C104.058 101.461 103.75 101.348 103.494 101.268C103.624 101.193 103.749 101.113 103.875 101.032C103.869 100.992 103.856 100.91 103.85 100.869L103.97 100.863C103.957 100.683 103.917 100.508 103.849 100.342C103.354 100.004 102.735 100.063 102.167 100.081ZM104.995 100.071C105.01 101.014 105.013 101.955 104.994 102.898C105.107 102.894 105.221 102.891 105.336 102.889C105.331 102.057 105.341 101.226 105.33 100.396C105.698 100.361 106.098 100.388 106.369 100.67C106.378 100.874 106.361 101.078 106.269 101.265C106.088 101.39 105.894 101.497 105.695 101.592C106.142 101.987 106.486 102.483 106.93 102.882C107.006 102.834 107.159 102.738 107.236 102.69C106.971 102.44 106.706 102.19 106.453 101.927C106.423 101.902 106.36 101.852 106.329 101.828C106.293 101.753 106.259 101.68 106.227 101.607C106.405 101.476 106.561 101.318 106.704 101.15C106.706 100.926 106.699 100.704 106.679 100.482C106.251 100.004 105.575 100.058 104.995 100.071ZM107.966 100.46C107.84 100.628 107.729 100.807 107.633 100.995C107.602 101.319 107.596 101.647 107.638 101.972C107.885 102.653 108.667 103.06 109.365 102.846C110.004 102.699 110.371 102.056 110.405 101.438C110.347 101.221 110.289 101.004 110.236 100.786C110.017 100.492 109.749 100.198 109.373 100.124C108.879 99.9672 108.351 100.139 107.966 100.46ZM110.626 100.066C110.628 100.146 110.632 100.308 110.634 100.389C110.967 100.382 111.3 100.379 111.634 100.383C111.626 101.213 111.64 102.044 111.624 102.875C111.755 102.877 111.887 102.878 112.02 102.879C111.999 102.047 112.012 101.215 112.01 100.384C112.722 100.382 113.436 100.374 114.148 100.383C114.139 101.213 114.154 102.044 114.138 102.875C114.269 102.877 114.4 102.878 114.534 102.88C114.513 102.047 114.526 101.214 114.524 100.383C114.878 100.393 115.232 100.39 115.586 100.367C115.585 100.296 115.582 100.156 115.58 100.085C113.929 100.052 112.278 100.089 110.626 100.066ZM115.914 100.988C115.872 101.315 115.871 101.647 115.911 101.974C116.047 102.236 116.201 102.506 116.462 102.665C117.111 103.12 118.144 102.889 118.488 102.159C118.681 101.843 118.637 101.461 118.62 101.111C118.559 100.978 118.502 100.842 118.448 100.708C118.179 100.301 117.698 100.04 117.206 100.07C116.636 100.074 116.117 100.462 115.914 100.988ZM103.744 103.368C103.858 103.741 103.956 104.118 104.085 104.486C104.141 104.615 104.197 104.744 104.256 104.872C104.282 104.927 104.333 105.036 104.358 105.09C104.405 105.2 104.455 105.309 104.505 105.419C104.587 105.532 104.663 105.653 104.715 105.785L104.771 105.794C105.017 106.342 105.473 106.77 105.891 107.191C107.427 108.659 109.726 109.168 111.777 108.712C113.136 108.426 114.343 107.62 115.256 106.592C115.472 106.312 115.685 106.031 115.875 105.735C116.062 105.393 116.244 105.049 116.401 104.694C116.448 104.544 116.502 104.397 116.554 104.252C116.606 104.11 116.657 103.967 116.714 103.829C116.736 103.673 116.758 103.519 116.78 103.365C116.185 103.364 115.59 103.35 114.997 103.375C114.969 103.529 114.947 103.686 114.903 103.837C114.86 103.939 114.819 104.043 114.78 104.147C114.678 104.409 114.535 104.652 114.413 104.905C113.938 105.735 113.256 106.467 112.408 106.923C111.205 107.584 109.681 107.641 108.437 107.056C107.405 106.614 106.616 105.755 106.084 104.785C106.034 104.674 105.983 104.563 105.936 104.453C105.876 104.321 105.819 104.191 105.76 104.063C105.686 103.839 105.628 103.612 105.59 103.379C104.975 103.346 104.359 103.363 103.744 103.368ZM57.6372 112.126C57.4413 112.395 57.2392 112.665 57.1072 112.971L57.0517 112.983C57.0066 113.118 56.9396 113.244 56.8506 113.357C56.7154 113.636 56.5751 113.913 56.4263 114.185C56.4012 114.238 56.352 114.346 56.3268 114.401C56.221 114.642 56.1257 114.888 56.0157 115.129C55.8921 115.534 55.6962 115.92 55.6439 116.344L55.5852 116.335C55.5642 116.613 55.5014 116.891 55.3547 117.132C55.4249 117.114 55.5642 117.079 55.6344 117.063C55.5318 117.387 55.1987 117.561 55.0887 117.882C54.9672 118.219 54.8813 118.569 54.7378 118.9C54.7399 118.943 54.743 119.029 54.7441 119.072C54.831 119.065 54.9179 119.06 55.0049 119.056C55.0321 118.994 55.0866 118.871 55.1138 118.808C55.2594 118.568 55.3925 118.321 55.5339 118.081C55.6219 117.925 55.7098 117.772 55.7957 117.617C55.9811 117.277 56.1885 116.95 56.3708 116.607C56.5457 116.289 56.7479 115.985 56.8925 115.651C57.2392 115.606 57.5828 115.728 57.9305 115.708C58.6491 115.476 59.3237 115.07 59.7385 114.423C59.7888 114.306 59.8411 114.193 59.8925 114.08C59.948 113.913 59.992 113.744 60.0506 113.578C60.08 113.291 60.08 113.004 60.059 112.718C60.0003 112.555 59.9532 112.388 59.9008 112.225C59.6892 111.783 59.3216 111.25 58.7601 111.313C58.2563 111.325 57.8823 111.725 57.6372 112.126ZM84.2999 112.606C82.8827 112.987 81.5262 113.579 80.2524 114.305C80.0189 114.457 79.7507 114.573 79.5841 114.808C79.5422 114.844 79.4564 114.918 79.4134 114.954C79.4658 115.132 79.6826 115.182 79.8188 115.062C80.4923 114.56 81.2161 114.119 81.9892 113.786C81.9473 114.1 81.8656 114.407 81.786 114.713C81.7577 114.819 81.7273 114.925 81.6959 115.031C81.6393 115.212 81.5796 115.393 81.5241 115.575C81.4843 115.673 81.4445 115.773 81.4068 115.874C81.3701 115.971 81.3345 116.069 81.2999 116.167C81.2601 116.24 81.2224 116.313 81.1879 116.39C81.1407 116.492 81.0925 116.594 81.0433 116.696C80.7898 117.135 80.6652 117.758 80.1163 117.921C79.7884 118.075 79.4281 118.126 79.073 118.178C78.919 118.177 78.8551 118.333 78.7692 118.431C79.1735 118.654 79.6219 118.421 80.0356 118.34C80.0629 118.372 80.1184 118.435 80.1456 118.467C80.1299 118.679 80.2357 118.783 80.4525 118.773C80.5101 118.599 80.5772 118.429 80.6337 118.256C81.2842 117.745 82.1421 117.579 82.9539 117.628C83.1351 117.664 83.2074 117.489 83.2912 117.371C82.4763 116.973 81.6906 117.68 80.8663 117.6C81.0695 117.326 81.2455 117.033 81.4256 116.743C81.4707 116.65 81.5157 116.559 81.5618 116.468C81.6865 116.243 81.7912 116.008 81.8876 115.77C81.9253 115.664 81.9619 115.555 81.9986 115.45C82.1075 115.182 82.1568 114.895 82.2584 114.625C82.2751 114.468 82.2888 114.312 82.3003 114.156L82.3757 114.152C82.3757 113.963 82.3788 113.777 82.3747 113.591C82.9497 113.389 83.5175 113.164 84.1135 113.025C84.3052 112.946 84.4853 113.069 84.6613 113.131C84.7074 113 84.7933 112.901 84.9179 112.837C84.874 112.774 84.786 112.648 84.742 112.584C84.5943 112.577 84.4434 112.562 84.2999 112.606ZM105.66 114.062C105.333 114.363 105.047 114.706 104.769 115.052C104.679 115.17 104.603 115.315 104.451 115.363C103.775 115.666 103.095 115.962 102.414 116.255C102.409 116.309 102.399 116.418 102.395 116.472C102.981 116.531 103.42 115.974 104.005 116.018C103.806 116.227 103.641 116.463 103.457 116.686C103.281 116.953 103.049 117.178 102.787 117.362C102.451 117.593 102.225 117.936 101.995 118.266C101.894 118.474 101.786 118.679 101.676 118.883C101.501 119.199 101.354 119.531 101.155 119.833C100.997 120.062 101.131 120.438 100.884 120.588C101.002 120.596 101.122 120.608 101.241 120.621C101.24 120.58 101.237 120.498 101.236 120.457C101.326 120.323 101.4 120.18 101.465 120.033C101.522 119.94 101.577 119.847 101.632 119.754C101.9 119.218 102.253 118.731 102.623 118.263C102.837 118.016 103.016 117.739 103.241 117.5C103.766 117.244 104.236 117.692 104.751 117.718C104.799 117.678 104.896 117.6 104.944 117.561C104.896 117.524 104.798 117.45 104.749 117.412C104.379 117.279 103.986 117.212 103.631 117.04C103.764 116.719 104.053 116.504 104.263 116.236C104.56 115.917 104.784 115.491 105.209 115.32C105.979 114.92 106.888 114.661 107.402 113.909C107.498 113.729 107.586 113.545 107.675 113.362C107.716 113.213 107.734 113.059 107.753 112.909C107.656 112.869 107.559 112.828 107.464 112.788C106.794 113.102 106.214 113.576 105.66 114.062ZM69.4183 114.335C69.4078 114.436 69.3963 114.539 69.3848 114.642C69.5136 114.863 69.7514 114.916 69.9871 114.861C69.9965 114.817 70.0164 114.73 70.0258 114.686C69.9043 114.565 69.7839 114.442 69.6634 114.321C69.6027 114.324 69.4801 114.332 69.4183 114.335ZM93.6938 114.273C93.5513 114.641 93.7975 115.043 94.2175 114.854C94.2689 114.539 93.9284 114.374 93.6938 114.273ZM85.6061 115.043C85.5454 115.193 85.5203 115.351 85.5056 115.513H85.4197L85.4228 115.611C85.0646 115.571 84.7168 115.659 84.3816 115.776C84.3596 115.945 84.3418 116.116 84.3293 116.287C84.5649 116.222 84.7598 116.073 84.9546 115.934C85.0457 115.979 85.1379 116.024 85.2301 116.071C84.7409 116.598 84.2392 117.116 83.7846 117.675C83.7689 117.762 83.7374 117.934 83.7217 118.021C83.8568 118.03 83.9941 118.033 84.1302 118.022C84.1439 117.955 84.1732 117.822 84.1878 117.755C84.5409 117.433 84.8928 117.105 85.1882 116.728C85.3642 116.488 85.5569 116.255 85.6763 115.98C86.1634 116.033 86.6547 116.08 87.1439 116.008L87.0642 115.885C86.662 115.769 86.2451 115.72 85.8335 115.651C85.8953 115.448 85.9445 115.241 85.9801 115.034C86.0105 114.939 86.0398 114.846 86.0691 114.753C85.9309 114.746 85.7936 114.741 85.6564 114.737C85.6397 114.838 85.624 114.941 85.6061 115.043ZM91.3747 115.596C90.8541 116.185 90.3115 116.759 89.8443 117.391C89.3781 117.523 88.8963 117.724 88.4061 117.605C88.6093 117.162 89.1047 116.832 89.0105 116.293C88.8921 116.177 88.8397 116.03 88.8251 115.871C88.7036 115.672 88.4291 115.522 88.2091 115.657C87.4602 116.055 86.794 116.63 86.3394 117.35C86.3153 117.327 86.2671 117.282 86.242 117.259C86.2619 117.429 86.3321 117.658 86.1613 117.771C86.3006 117.95 86.4745 118.194 86.7406 118.085C87.1889 117.887 87.5545 117.537 88.0154 117.361C88.0248 117.533 88.0342 117.705 88.0468 117.879C88.2678 117.944 88.4878 118.03 88.7214 118.04C89.0869 117.99 89.396 117.749 89.7584 117.692C89.9145 117.694 89.9207 117.936 90.081 117.956C90.7242 118.217 91.4145 117.972 92.0733 117.92L91.979 117.712C91.4145 117.751 90.8331 117.83 90.2863 117.623C90.28 117.2 90.7074 116.991 90.9033 116.663L90.9379 116.652C91.3223 116.092 91.9382 115.675 92.1372 115.005C91.7549 114.938 91.5978 115.366 91.3747 115.596ZM59.3624 117.632C59.3656 117.789 59.3048 117.905 59.1812 117.981C59.3247 117.989 59.4682 118 59.6117 118.013C60.2109 117.562 60.7388 117.029 61.3076 116.547C61.4092 116.456 61.4983 116.352 61.5695 116.237L61.6281 116.244C61.5684 115.935 61.7978 115.764 62.0461 115.657C62.045 115.725 62.0429 115.862 62.0419 115.93L61.9811 115.928C61.7675 116.334 61.3359 116.564 60.9997 116.859C60.9033 117.562 61.624 118.087 62.2713 118.078C62.2723 118.015 62.2723 117.89 62.2723 117.827C61.9633 117.604 61.5559 117.453 61.4553 117.041C61.7476 116.749 62.0639 116.473 62.3017 116.133L62.3561 116.127C62.3687 115.824 62.3865 115.52 62.397 115.218C62.3289 115.197 62.1917 115.154 62.1236 115.133C61.1892 115.951 60.2811 116.798 59.3624 117.632ZM65.5269 116.691C65.4934 116.978 65.4913 117.268 65.5279 117.556C65.6955 117.788 65.9019 118.018 66.1994 118.069C66.7661 118.174 67.3485 118.041 67.8932 117.886C67.9707 117.928 68.1247 118.011 68.2022 118.052C68.2503 117.842 68.331 117.642 68.4117 117.443C68.5677 117.027 69.1082 116.839 69.1061 116.356C69.0087 116.352 68.9113 116.348 68.8139 116.347C68.4818 116.76 68.0105 117.111 67.9895 117.692C67.426 117.675 66.8614 117.707 66.2978 117.711C66.147 117.575 65.9951 117.442 65.8422 117.311C65.8464 117.263 65.8537 117.168 65.8579 117.121C65.9731 116.58 66.2874 116.075 66.7943 115.824C67.0845 115.607 67.4522 115.69 67.7853 115.698C67.7936 115.657 67.8104 115.575 67.8188 115.534C67.7036 115.329 67.4836 115.14 67.2332 115.261C66.5576 115.574 65.773 115.92 65.5269 116.691ZM107.079 115.365C106.501 116.021 105.939 116.692 105.351 117.339C105.32 117.575 105.08 117.937 105.398 118.073C106.048 118.368 106.758 118.127 107.429 118.069C107.428 118.007 107.425 117.883 107.424 117.82C106.882 117.923 106.324 117.941 105.785 117.81C105.725 117.755 105.668 117.701 105.609 117.649C106.181 116.925 106.798 116.24 107.404 115.547C107.42 115.433 107.449 115.205 107.465 115.091C107.293 115.132 107.164 115.224 107.079 115.365ZM113.114 116.904C112.836 117.148 112.552 117.388 112.284 117.645C112.161 117.734 112.118 117.876 112.108 118.022C112.069 118.036 111.991 118.062 111.953 118.074C112.13 118.117 112.339 118.211 112.497 118.067C113.185 117.532 113.853 116.966 114.443 116.324C114.443 116.258 114.443 116.125 114.443 116.059C114.576 115.962 114.712 115.866 114.848 115.771C114.838 115.877 114.831 115.983 114.824 116.089C114.487 116.406 114.153 116.726 113.813 117.037C113.808 117.173 113.804 117.312 113.804 117.45C114.078 117.886 114.521 118.21 115.047 118.243C115.057 118.142 115.068 118.043 115.08 117.945C114.714 117.796 114.43 117.53 114.189 117.225C114.527 116.911 114.841 116.571 115.159 116.236C115.168 115.935 115.185 115.634 115.182 115.334C115.114 115.315 114.979 115.279 114.911 115.26C114.325 115.822 113.7 116.341 113.114 116.904ZM74.6212 115.777C74.6159 115.946 74.6159 116.117 74.6212 116.289C74.8841 116.747 75.4811 116.84 75.7399 117.297C75.4853 117.419 75.2329 117.546 74.9972 117.701C74.7751 117.714 74.552 117.714 74.331 117.706C74.2493 117.814 74.1079 118.108 74.3561 118.116C74.9962 118.186 75.6121 117.855 76.1316 117.51C76.1295 117.336 76.1243 117.16 76.1212 116.986C75.8184 116.641 75.2989 116.597 75.0454 116.195C75.0433 116.161 75.0391 116.093 75.037 116.058C75.39 115.891 75.7598 115.742 76.1599 115.802C76.2123 115.765 76.317 115.693 76.3694 115.656C75.8195 115.271 75.1774 115.593 74.6212 115.777ZM93.7608 117.36C93.5922 117.623 93.655 118.14 94.0604 118.102C94.58 117.978 94.9487 117.53 95.4536 117.361C95.4619 117.531 95.4714 117.706 95.4808 117.88C95.705 117.945 95.9281 118.024 96.1638 118.043C96.5524 117.947 96.9085 117.747 97.2961 117.64C97.3799 117.656 97.5475 117.687 97.6313 117.702C98.2367 117.559 98.7385 117.071 99.3754 117.049C99.0601 117.273 98.948 117.633 99.0454 118.006C99.1753 118.026 99.3062 118.047 99.4382 118.069C99.4277 117.787 99.4696 117.505 99.6519 117.281C99.654 117.118 99.655 116.956 99.6603 116.796C99.5733 116.686 99.479 116.517 99.3083 116.567C98.8348 116.675 98.4399 116.989 97.9759 117.133C98.0807 116.992 98.1068 116.823 98.1184 116.654L98.1906 116.673C98.1927 116.6 98.198 116.453 98.2001 116.378C98.1309 116.376 97.9916 116.373 97.9214 116.371C97.8932 116.427 97.8376 116.541 97.8094 116.599C97.7402 116.787 97.5925 116.94 97.5464 117.138C97.4763 117.252 97.4029 117.389 97.2542 117.408C96.7933 117.51 96.3303 117.745 95.8527 117.605C95.8925 117.521 95.9333 117.439 95.9763 117.358C96.1292 117.142 96.2779 116.923 96.4445 116.717C96.4654 116.482 96.4382 116.246 96.2821 116.062C96.2528 115.965 96.2266 115.867 96.2025 115.769C96.1428 115.735 96.0224 115.666 95.9616 115.631C95.9124 115.623 95.8118 115.605 95.7626 115.597C94.9571 115.997 94.2458 116.6 93.7608 117.36ZM62.9637 116.848C62.8946 116.852 62.7542 116.859 62.684 116.863C62.6809 117.018 62.6704 117.183 62.7531 117.324C62.9155 117.494 63.0402 117.694 63.147 117.902C63.8268 118.287 64.646 118.067 65.3279 117.802L65.3394 117.587C64.8513 117.624 64.3694 117.713 63.8823 117.748C63.6561 117.744 63.3324 117.681 63.2895 117.412C63.2528 117.389 63.1795 117.345 63.1439 117.322C64.0196 117.154 64.8691 116.786 65.5112 116.153C65.508 116.105 65.5007 116.01 65.4976 115.963C65.4033 115.848 65.3341 115.668 65.1582 115.672C64.2835 115.609 63.3659 116.049 62.9637 116.848ZM115.808 115.944C115.809 116.071 115.811 116.198 115.816 116.328C115.89 116.434 115.964 116.543 116.032 116.656C116.343 116.9 116.697 117.086 116.986 117.36C116.598 117.755 116.04 117.913 115.495 117.879C115.486 117.999 115.476 118.12 115.468 118.243C116.167 118.368 116.819 118.004 117.391 117.65C117.386 117.472 117.38 117.294 117.372 117.118C117.14 116.9 116.857 116.754 116.561 116.643C116.451 116.503 116.346 116.361 116.248 116.214C116.639 115.994 117.068 115.882 117.519 115.925C117.506 115.764 117.394 115.595 117.212 115.613C116.716 115.541 116.264 115.796 115.808 115.944ZM71.8233 116.583C71.7877 116.703 71.7458 116.822 71.6997 116.939C71.6987 117.077 71.6987 117.216 71.6997 117.357C72.214 117.637 72.7472 117.276 73.2699 117.254C73.2699 117.342 73.2689 117.518 73.2689 117.606L73.1777 117.592C73.1903 117.718 73.1589 117.854 73.2071 117.975C73.3223 118.018 73.4438 118.042 73.5632 118.073C73.5883 117.825 73.58 117.568 73.691 117.339C73.8502 117.014 74.177 116.783 74.2514 116.417C74.1739 116.392 74.0189 116.341 73.9403 116.315C73.5014 116.777 72.9033 117.089 72.258 117.097C72.2214 117.052 72.148 116.962 72.1114 116.916C72.2989 116.579 72.7105 116.334 72.6613 115.905C72.258 115.914 71.9846 116.247 71.8233 116.583ZM69.4204 117.533C69.4131 117.597 69.4005 117.725 69.3942 117.789C69.5126 118.112 69.8467 118.234 70.1672 118.136C70.7622 117.94 71.463 117.659 71.6442 116.991C71.773 116.749 71.6777 116.482 71.53 116.276C71.4358 116.044 71.1383 116.056 70.9298 116.025C70.1903 116.184 69.5325 116.761 69.4204 117.533ZM107.645 117.194C107.627 117.315 107.592 117.43 107.541 117.541C107.526 117.707 107.519 117.877 107.514 118.046C107.61 118.128 107.705 118.213 107.798 118.3C108.509 118.31 109.295 117.972 109.67 117.345C109.818 116.987 109.758 116.597 109.573 116.267C109.392 116.225 109.214 116.173 109.032 116.157C108.447 116.278 107.931 116.672 107.645 117.194ZM109.962 117.132C109.925 117.232 109.884 117.333 109.842 117.432C109.837 117.667 109.729 117.946 109.902 118.149C110.067 118.346 110.368 118.329 110.594 118.262C111.11 118.087 111.67 117.852 111.935 117.341C112.112 117.04 112.056 116.672 111.912 116.372C111.733 116.198 111.475 116.146 111.235 116.17C110.715 116.324 110.231 116.651 109.962 117.132ZM93.0747 116.328C92.8149 116.661 92.4106 116.914 92.3142 117.348C92.2346 117.553 92.1561 117.76 92.088 117.972C92.1603 117.99 92.3059 118.025 92.3792 118.043C92.4358 117.957 92.486 117.866 92.5279 117.772C92.6253 117.199 93.1899 116.905 93.3911 116.387C93.2853 116.366 93.1805 116.346 93.0747 116.328Z" fill="white"/>
<path d="M67.2673 80.0016C67.8518 79.1028 68.7841 78.3986 69.8567 78.2207C70.636 78.0941 71.4709 78.1433 72.1905 78.4927C73.0348 78.8883 73.7146 79.5893 74.1451 80.4097C74.2802 80.6399 74.3619 80.8952 74.4604 81.1421C74.5987 81.5879 74.739 82.0399 74.7621 82.5108C74.8972 83.0329 74.8134 83.5791 74.8218 84.1117L74.7558 84.1127C74.76 84.4214 74.6856 84.7207 74.6102 85.0178C74.5568 85.1507 74.5075 85.2857 74.4562 85.4196C74.0425 86.5047 73.2516 87.4757 72.179 87.9581C70.9314 88.543 69.378 88.3714 68.2813 87.5406C67.6612 87.0666 67.1249 86.4325 66.8598 85.6948L66.8022 85.6802C66.7331 85.361 66.554 85.0712 66.5404 84.7395L66.4786 84.7458C66.4691 84.5846 66.4545 84.4245 66.4377 84.2665C66.29 83.4473 66.3131 82.5715 66.5309 81.7626C66.5519 81.6538 66.5728 81.546 66.5938 81.4382C66.6682 81.2635 66.7373 81.0877 66.7939 80.9067C66.9311 80.5949 67.083 80.2893 67.2673 80.0016Z" fill="white"/>
<path d="M77.5911 97.0132C79.0827 95.3976 81.8166 95.1601 83.5356 96.5465C84.538 97.2989 85.1885 98.4446 85.4944 99.6469C85.5237 99.7892 85.5593 99.9325 85.6106 100.071C85.6305 100.257 85.6452 100.444 85.6546 100.634L85.7269 100.638C85.7541 101.341 85.7573 102.045 85.7248 102.749L85.6525 102.75C85.642 102.913 85.6305 103.077 85.6169 103.241C85.5321 103.474 85.465 103.715 85.3959 103.955C85.3362 104.086 85.2817 104.218 85.2272 104.353C85.1434 104.535 85.0481 104.712 84.9643 104.895C84.4259 105.831 83.6361 106.649 82.6337 107.082C81.3746 107.638 79.8526 107.579 78.6543 106.895C77.9629 106.533 77.4036 105.967 76.9563 105.335C76.8515 105.153 76.7437 104.974 76.6389 104.793C76.552 104.613 76.4619 104.436 76.3907 104.25C76.3383 104.117 76.289 103.984 76.2367 103.852C76.2073 103.741 76.1738 103.631 76.1372 103.524C76.024 103.115 75.9957 102.692 75.914 102.277C75.8826 101.803 75.8994 101.328 75.8962 100.854L75.9654 100.846C75.9476 100.325 76.1026 99.8279 76.2346 99.3319C76.289 99.1875 76.3268 99.0358 76.4126 98.9071L76.4085 98.8182C76.5383 98.6089 76.6347 98.3818 76.7363 98.159C76.8557 97.9612 76.9825 97.7676 77.1124 97.5772C77.2611 97.3794 77.4235 97.1942 77.5911 97.0132Z" fill="white"/>
<path d="M57.0342 95.9629C58.9877 95.9692 61.0408 96.2151 62.7241 97.2824C63.3631 97.6685 63.9099 98.1864 64.3456 98.7891C64.3949 98.878 64.443 98.9659 64.4933 99.0549C64.6389 99.2725 64.729 99.5195 64.8233 99.7622C64.8599 99.8669 64.8956 99.9725 64.9312 100.079C64.9815 100.28 65.0129 100.485 65.0768 100.684C65.1166 101.314 65.1711 101.961 65.0391 102.583C64.9888 103.003 64.8044 103.384 64.6662 103.778L64.6086 103.796C64.0817 104.83 63.1536 105.633 62.125 106.153C60.5495 106.918 58.7688 107.145 57.0342 107.132C57.0216 103.409 56.9996 99.6858 57.0342 95.9629Z" fill="white"/>
<path d="M102.5 100.4C102.861 100.36 103.241 100.371 103.555 100.577C103.537 100.721 103.588 100.889 103.499 101.016C103.324 101.164 103.09 101.2 102.875 101.26C102.884 101.326 102.902 101.458 102.912 101.524C103.27 101.501 103.659 101.554 103.848 101.9C103.847 102.008 103.848 102.117 103.85 102.227C103.52 102.624 102.967 102.596 102.501 102.574C102.508 101.85 102.509 101.124 102.5 100.4Z" fill="white"/>
<path d="M108.469 100.52C108.937 100.215 109.606 100.434 109.864 100.912C109.912 101.049 109.959 101.186 110.009 101.323C110.015 101.447 110.02 101.57 110.027 101.695L109.951 101.696C109.944 101.767 109.933 101.908 109.927 101.979C109.761 102.219 109.564 102.463 109.27 102.541C108.851 102.684 108.386 102.489 108.126 102.148C108.072 102.014 108.02 101.882 107.958 101.754C107.944 101.54 107.94 101.324 108.001 101.117C108.094 100.877 108.223 100.633 108.469 100.52Z" fill="white"/>
<path d="M116.273 101.122C116.412 100.643 116.905 100.304 117.406 100.394C117.722 100.438 117.977 100.653 118.143 100.916C118.192 101.051 118.24 101.186 118.293 101.322C118.291 101.431 118.288 101.54 118.287 101.651C118.25 101.758 118.216 101.868 118.185 101.979C117.957 102.483 117.311 102.744 116.809 102.487C116.54 102.359 116.327 102.114 116.29 101.813L116.225 101.801C116.225 101.574 116.206 101.342 116.273 101.122Z" fill="white"/>
<path d="M58.235 111.896C58.4047 111.687 58.7095 111.637 58.9619 111.648C59.5967 112.065 59.9235 112.93 59.6941 113.666C59.4061 114.549 58.6278 115.242 57.7133 115.417C57.53 115.419 57.3593 115.335 57.1854 115.292C57.2304 115.225 57.3226 115.091 57.3687 115.024C57.4232 114.924 57.4776 114.825 57.5321 114.726C57.5782 114.657 57.6243 114.589 57.6704 114.523C57.6002 114.446 57.5499 114.357 57.5206 114.256C57.4001 114.324 57.2545 114.378 57.2116 114.525C56.9403 115.194 56.5454 115.801 56.1735 116.416C55.986 116.666 55.7912 116.913 55.6445 117.192C55.6571 117.044 55.6822 116.746 55.6938 116.597C55.7556 116.501 55.7933 116.396 55.8079 116.282C55.8875 116.044 55.9598 115.803 56.0593 115.573C56.3505 114.764 56.7433 113.993 57.2116 113.273C57.2639 113.188 57.3153 113.105 57.3676 113.023C57.6473 112.64 57.9228 112.254 58.235 111.896Z" fill="white"/>
<path d="M105.782 114.499C106.284 114.051 106.706 113.449 107.383 113.259C107.178 113.603 106.913 113.914 106.63 114.197C106.263 114.437 105.867 114.633 105.473 114.826C105.567 114.709 105.673 114.602 105.782 114.499Z" fill="white"/>
<path d="M63.5314 116.704C63.9892 116.391 64.4626 116.059 65.0325 116.009C65.0073 116.194 64.824 116.26 64.6837 116.345C64.3307 116.546 63.9232 116.617 63.5314 116.704Z" fill="white"/>
<path d="M87.7039 116.418C87.9417 116.225 88.213 115.912 88.5472 116.073C88.5493 116.219 88.5545 116.368 88.5587 116.517C87.9417 116.946 87.3667 117.49 86.5957 117.62C86.9487 117.205 87.3426 116.826 87.7039 116.418Z" fill="white"/>
<path d="M95.0293 116.53C95.2357 116.269 95.531 116.099 95.839 115.984C95.8757 116.029 95.9511 116.117 95.9888 116.161C95.9898 116.277 95.993 116.395 95.9961 116.514C95.3844 116.943 94.8104 117.48 94.0468 117.618C94.3411 117.226 94.7224 116.912 95.0293 116.53Z" fill="white"/>
<path d="M70.5931 116.577C70.8308 116.432 71.1021 116.38 71.3734 116.453C71.3839 116.671 71.3902 116.893 71.2676 117.085L71.2132 117.083C70.8863 117.511 70.3657 117.748 69.8378 117.799C69.8231 117.737 69.7949 117.612 69.7812 117.55C70.0672 117.238 70.3134 116.894 70.5931 116.577Z" fill="white"/>
<path d="M108.62 116.806C108.822 116.586 109.137 116.513 109.426 116.564C109.418 116.748 109.469 116.944 109.403 117.124C109.086 117.593 108.539 117.865 107.985 117.933C107.94 117.889 107.85 117.8 107.805 117.755C108.108 117.468 108.336 117.113 108.62 116.806Z" fill="white"/>
<path d="M110.663 117.08C110.893 116.735 111.276 116.456 111.713 116.564C111.713 116.644 111.714 116.802 111.714 116.881C111.749 116.884 111.817 116.889 111.852 116.892C111.47 117.465 110.868 117.953 110.141 117.919C110.125 117.557 110.484 117.353 110.663 117.08Z" fill="white"/>
<path d="M110.161 43.0338C110.371 42.8046 110.57 42.565 110.745 42.3076C110.759 42.4332 110.771 42.5598 110.784 42.6864L110.854 42.6812C110.866 42.8758 110.88 43.0704 110.9 43.264C111.006 43.5444 110.986 43.8489 110.994 44.1429L111.061 44.1544C111.077 44.597 111.089 45.0386 111.105 45.4812C111.181 46.0525 111.191 46.6416 111.106 47.2129C111.067 47.7372 111.135 48.2771 111.004 48.7908C110.969 49.1048 111.009 49.4323 110.904 49.7347C110.878 49.9596 110.863 50.1867 110.853 50.4127L110.785 50.419C110.778 50.645 110.783 50.8773 110.692 51.0876C110.67 51.2676 110.667 51.4538 110.595 51.6233C110.567 51.797 110.548 51.9739 110.491 52.1402C110.392 52.7084 110.232 53.263 110.08 53.8176C109.98 54.1681 109.885 54.5207 109.753 54.8608C109.721 54.9706 109.689 55.0795 109.646 55.1851C109.634 55.2364 109.609 55.34 109.597 55.3913C109.485 55.6707 109.378 55.9532 109.278 56.2367C109.221 56.3696 109.165 56.5036 109.11 56.6375C109.057 56.8154 108.981 56.9859 108.902 57.1533C108.752 57.4557 108.578 57.7466 108.456 58.0626C108.438 58.0679 108.4 58.0794 108.38 58.0846C108.321 58.3138 108.185 58.5115 108.066 58.7124C107.912 59.0096 107.732 59.291 107.553 59.5725C107.288 59.9994 106.998 60.4117 106.711 60.824C106.623 60.937 106.534 61.05 106.452 61.1672C105.317 62.6446 103.967 64.0007 102.327 64.911C101.731 65.2239 101.094 65.5085 100.411 65.5294C100.222 65.0251 100.17 64.482 100.002 63.9725C99.9865 63.8176 99.974 63.6617 99.9645 63.5068L99.8912 63.5037C99.8839 63.2819 99.8828 63.0548 99.7969 62.8466C99.776 62.6363 99.7749 62.4186 99.6932 62.2208C99.6702 61.931 99.6712 61.6349 99.5885 61.3545C99.5434 60.8752 99.5791 60.3876 99.4733 59.9157C99.4565 59.2764 99.4565 58.6371 99.4754 57.9988C99.5728 57.6242 99.5424 57.2339 99.5853 56.853C99.6849 56.4753 99.7027 56.0808 99.8137 55.7062C99.8462 55.6005 99.8755 55.4949 99.9027 55.3871C99.9541 55.2186 100.004 55.0491 100.067 54.8848C100.126 54.7038 100.199 54.5291 100.28 54.3575C100.337 54.211 100.402 54.0676 100.48 53.9306C100.526 53.8196 100.577 53.7098 100.631 53.601C101.101 52.7304 101.606 51.8766 102.203 51.0845C102.326 50.9202 102.453 50.7601 102.577 50.5958C102.842 50.2746 103.116 49.9596 103.402 49.6572C104.04 48.9625 104.812 48.4131 105.52 47.7958C107.105 46.2461 108.678 44.6797 110.161 43.0338Z" fill="#010101"/>
<path d="M115.121 65.1088C115.887 64.8179 116.702 64.6201 117.528 64.6463C119.172 64.6557 120.828 65.0042 122.288 65.7764C123.893 66.3686 125.5 66.9776 127.161 67.3961C124.549 69.2775 121.346 70.2548 118.149 70.4337C116.175 70.4337 114.146 70.1449 112.378 69.2241C111.828 68.9249 111.295 68.5607 110.898 68.07C110.846 67.9894 110.795 67.9099 110.742 67.8314C112.055 66.716 113.514 65.745 115.121 65.1088Z" fill="#010101"/>
<path d="M100.217 70.8689C100.73 69.9303 101.792 69.3255 102.865 69.3894C103.892 69.4218 104.841 70.0716 105.306 70.9767C105.359 71.1221 105.413 71.2686 105.467 71.4151C105.616 71.9174 105.552 72.4531 105.516 72.9679C105.429 73.1406 105.36 73.3226 105.3 73.5068C104.876 74.3073 104.088 74.934 103.178 75.0544C102.392 75.1893 101.573 74.9581 100.945 74.4778C100.646 74.2382 100.412 73.9337 100.215 73.6072C100.147 73.4346 100.077 73.263 100.004 73.0935C99.9724 72.9491 99.94 72.8057 99.896 72.6666C99.874 72.3788 99.874 72.09 99.8918 71.8033C99.9829 71.4852 100.058 71.1619 100.217 70.8689Z" fill="#010101"/>
<path d="M67.5001 77.8387C68.6523 77.0853 70.0863 76.7986 71.4449 76.9922C73.1439 77.212 74.6796 78.2897 75.505 79.7818C75.5574 79.8802 75.6076 79.9806 75.6579 80.0811C75.6872 80.1355 75.748 80.2453 75.7784 80.3008C75.7794 80.327 75.7836 80.3793 75.7857 80.4065C75.8517 80.5404 75.9156 80.6764 75.9795 80.8135C75.99 80.869 76.0099 80.9788 76.0193 81.0343C76.079 81.2017 76.1261 81.3733 76.1764 81.5439C76.1995 81.7239 76.2267 81.9049 76.2895 82.0775C76.3199 82.8759 76.4016 83.6962 76.2372 84.482C76.2183 84.6369 76.2026 84.7928 76.19 84.9487L76.1282 84.956C76.1041 85.1099 76.078 85.2637 76.0298 85.4123C75.9784 85.5577 75.9261 85.7021 75.8768 85.8486C75.8129 85.9762 75.7532 86.107 75.6956 86.2378C75.1352 87.4704 74.1097 88.476 72.8852 89.0494C70.829 89.9535 68.226 89.5454 66.6401 87.9214C66.1205 87.3742 65.6785 86.7506 65.3894 86.0516C65.3129 85.8768 65.2417 85.7011 65.1778 85.5232C65.1223 85.3537 65.0793 85.181 65.0291 85.0105C64.9997 84.8336 64.9725 84.6568 64.918 84.4852C64.8238 83.4441 64.8039 82.3789 65.0333 81.3524C65.0699 81.2436 65.1024 81.1347 65.1328 81.0249C65.182 80.8889 65.2312 80.7528 65.2847 80.6199C65.3999 80.282 65.5748 79.9691 65.7445 79.6573C66.218 78.9552 66.7805 78.297 67.5001 77.8387ZM67.2675 80.0015C67.0832 80.2893 66.9313 80.5948 66.7941 80.9066C66.7375 81.0877 66.6684 81.2635 66.594 81.4382C66.5731 81.546 66.5521 81.6537 66.5312 81.7626C66.3133 82.5714 66.2902 83.4472 66.4379 84.2665C66.4547 84.4245 66.4694 84.5846 66.4788 84.7457L66.5406 84.7395C66.5542 85.0711 66.7333 85.361 66.8025 85.6801L66.8601 85.6948C67.1251 86.4325 67.6614 87.0666 68.2815 87.5406C69.3782 88.3714 70.9317 88.543 72.1792 87.958C73.2518 87.4757 74.0427 86.5047 74.4564 85.4196C74.5078 85.2857 74.557 85.1507 74.6104 85.0178C74.6858 84.7206 74.7602 84.4214 74.756 84.1127L74.822 84.1116C74.8136 83.579 74.8974 83.0328 74.7623 82.5107C74.7393 82.0398 74.5989 81.5878 74.4606 81.1421C74.3622 80.8951 74.2805 80.6398 74.1453 80.4096C73.7148 79.5893 73.035 78.8882 72.1907 78.4927C71.4711 78.1432 70.6363 78.094 69.8569 78.2206C68.7843 78.3985 67.852 79.1027 67.2675 80.0015Z" fill="#010101"/>
<path d="M83.4736 77.6266C84.8814 77.2352 86.3615 77.0783 87.8196 77.185C87.8154 77.6025 87.8489 78.0189 87.8552 78.4364C86.0452 78.4061 84.1408 78.5463 82.534 79.4556C81.7002 79.9296 81.0298 80.6777 80.6286 81.5462C80.4851 81.8831 80.4013 82.2399 80.3081 82.5936C80.2766 83.0467 80.2787 83.5029 80.3102 83.957C80.3741 84.1265 80.3992 84.3055 80.4212 84.4854C80.4725 84.6215 80.5218 84.7585 80.5741 84.8956C80.6286 85.0672 80.7082 85.2294 80.7931 85.3884C81.4247 86.4819 82.5361 87.2175 83.7197 87.6015C84.7484 87.9405 85.8388 88.0525 86.9177 88.0671C86.9188 86.394 86.9062 84.7219 86.8989 83.0498C87.3891 83.0477 87.8793 83.0509 88.3706 83.0456C88.3465 85.1028 88.3423 87.1589 88.3622 89.216C86.7721 89.3416 85.1537 89.2934 83.5961 88.9293C82.0008 88.5683 80.4788 87.6622 79.5853 86.2684C79.5204 86.1303 79.4449 85.9985 79.3622 85.8719C79.2941 85.7254 79.2281 85.5789 79.1558 85.4355C79.0867 85.2273 79.0249 85.017 78.9505 84.8108C78.9243 84.6654 78.9065 84.52 78.8468 84.386C78.7651 83.6149 78.7641 82.8343 78.8468 82.0631C78.8919 81.9281 78.9306 81.79 78.961 81.6519C79.0312 81.4751 79.0909 81.294 79.1516 81.1151C79.2334 80.9801 79.2993 80.8378 79.3601 80.6934C80.2148 79.1417 81.7965 78.1079 83.4736 77.6266Z" fill="#010101"/>
<path d="M55.4388 77.2976C57.8617 77.306 60.2845 77.3269 62.7063 77.2935C62.7084 77.7057 62.7084 78.118 62.7105 78.5313C60.7789 78.4999 58.8463 78.5166 56.9147 78.5072C56.8927 79.2753 56.9514 80.0475 56.854 80.8113C56.8309 81.459 56.8487 82.1067 56.8351 82.7554C58.7793 82.7806 60.7234 82.7251 62.6675 82.7565C62.6592 83.1447 62.6571 83.5339 62.6738 83.9221C62.5596 83.9431 62.4444 83.9598 62.3292 83.9724C60.4961 83.9912 58.6609 83.9075 56.8288 83.9776C56.8728 85.4027 56.7859 86.8341 56.9074 88.2551C56.9095 88.5544 56.9085 88.8536 56.9189 89.1529C56.4235 89.1675 55.928 89.1748 55.4336 89.1497C55.4881 85.1997 55.4671 81.2487 55.4388 77.2976Z" fill="#010101"/>
<path d="M92.1094 77.2737C92.6049 77.2633 93.1004 77.2643 93.5969 77.2696C93.5602 80.8188 93.5707 84.367 93.5812 87.9163C95.5326 87.9267 97.483 87.9152 99.4345 87.9047C99.4293 88.3201 99.4282 88.7345 99.4366 89.1499C96.9949 89.1541 94.5532 89.1353 92.1115 89.1614C92.1346 85.1989 92.1513 81.2363 92.1094 77.2737Z" fill="#010101"/>
<path d="M101.952 77.2758C102.444 77.2633 102.936 77.2622 103.429 77.2769C103.421 77.9528 103.409 78.6288 103.42 79.3037L103.353 79.3058C103.354 81.6067 103.352 83.9087 103.346 86.2096L103.413 86.2159C103.403 87.1953 103.416 88.1747 103.43 89.1541C102.935 89.1667 102.44 89.174 101.945 89.1551C101.997 85.1957 101.981 81.2353 101.952 77.2758Z" fill="#010101"/>
<path d="M107.534 77.3041C110.039 77.3083 112.545 77.3114 115.05 77.3041C115.049 77.6996 115.047 78.0951 115.055 78.4917C114.518 78.5639 113.977 78.5001 113.438 78.5147C111.959 78.5241 110.479 78.4781 109.001 78.5367C109.02 79.8331 108.998 81.1296 108.999 82.4271C111.016 82.4375 113.032 82.4114 115.049 82.4218C115.047 82.8226 115.048 83.2244 115.049 83.6251C113.033 83.6482 111.016 83.6126 109 83.6189C108.995 84.8682 109.015 86.1186 108.998 87.368L109.069 87.3617C109.061 87.5594 109.059 87.7572 109.06 87.956C111.095 87.9822 113.131 87.9592 115.167 87.9623C115.158 88.3589 115.157 88.7554 115.164 89.153C112.619 89.1426 110.074 89.1541 107.529 89.1489C107.553 88.5545 107.557 87.9602 107.544 87.3669L107.613 87.3617C107.611 84.434 107.617 81.5073 107.604 78.5807L107.541 78.5639C107.548 78.1443 107.544 77.7237 107.534 77.3041Z" fill="#010101"/>
<path d="M71.6209 93.7026C72.0713 93.8878 72.5112 94.0961 72.9606 94.2855C72.9606 94.3336 72.9616 94.4278 72.9616 94.4748L72.8799 94.4885C72.8401 94.6506 72.7584 94.7982 72.6746 94.9426C72.5028 95.2921 72.3552 95.6551 72.1519 95.9889C72.0189 96.2976 71.8723 96.601 71.7172 96.9003C71.5402 97.2498 71.3716 97.6045 71.1945 97.954C71.0406 98.2763 70.8792 98.5954 70.7232 98.9166C70.3377 98.7586 69.9606 98.5818 69.5762 98.4248C69.6034 98.3045 69.6285 98.1821 69.7207 98.0932C69.7207 98.0649 69.7186 98.0094 69.7186 97.9812C69.8883 97.7259 69.9795 97.4308 70.1125 97.1567C70.2612 96.7967 70.433 96.4462 70.5839 96.0873C70.7106 95.7692 70.8677 95.4637 70.9861 95.1424C71.1265 94.8296 71.2951 94.5272 71.4061 94.2007C71.4836 94.0375 71.5591 93.8721 71.6209 93.7026Z" fill="#010101"/>
<path d="M78.5646 94.6169C80.2133 94.0257 82.1009 94.1011 83.6899 94.8429C84.7144 95.3222 85.588 96.0881 86.2311 97.0152C86.3421 97.1857 86.449 97.3605 86.5527 97.5373C86.6857 97.7853 86.8167 98.0343 86.9172 98.297C86.9706 98.4277 87.023 98.5585 87.0785 98.6893C87.1403 98.885 87.199 99.0817 87.2262 99.2868L87.288 99.2879C87.2996 99.449 87.3132 99.6133 87.3771 99.765C87.4012 99.9366 87.42 100.109 87.4399 100.284C87.5667 100.688 87.5101 101.119 87.53 101.538C87.5468 102.168 87.4912 102.8 87.3467 103.417C87.309 103.556 87.2765 103.698 87.2346 103.838C87.222 103.894 87.1979 104.004 87.1864 104.059C87.1299 104.191 87.0775 104.326 87.0251 104.461C86.9874 104.564 86.9497 104.667 86.9099 104.771C86.8607 104.883 86.8114 104.996 86.7643 105.111C86.7077 105.207 86.6522 105.304 86.5977 105.403C86.472 105.674 86.2866 105.91 86.1337 106.167C85.2653 107.296 84.0848 108.232 82.6959 108.618C80.957 109.095 79.0087 108.904 77.4542 107.966C76.4853 107.365 75.6641 106.512 75.1152 105.511C74.9623 105.237 74.8156 104.96 74.7151 104.663C74.6009 104.457 74.5244 104.234 74.4961 104.001L74.4448 104.002C74.4322 103.87 74.4019 103.743 74.3526 103.622C74.3275 103.467 74.3097 103.314 74.295 103.159L74.229 103.156C74.2123 102.793 74.2123 102.426 74.1232 102.072C74.1159 101.646 74.1054 101.22 74.1347 100.797C74.2259 100.512 74.2112 100.21 74.2248 99.9157L74.294 99.9115C74.3055 99.7587 74.3191 99.607 74.3348 99.4574C74.4364 99.1811 74.5014 98.8934 74.6114 98.6213C74.7067 98.3242 74.8554 98.0511 74.9822 97.7675C75.7552 96.3403 77.0153 95.1526 78.5646 94.6169ZM77.5915 97.0131C77.4239 97.1941 77.2615 97.3793 77.1127 97.5771C76.9829 97.7675 76.8561 97.9611 76.7367 98.1588C76.6351 98.3817 76.5387 98.6088 76.4088 98.818L76.413 98.907C76.3271 99.0357 76.2894 99.1874 76.235 99.3318C76.103 99.8278 75.9479 100.325 75.9658 100.846L75.8966 100.854C75.8998 101.328 75.883 101.803 75.9144 102.277C75.9961 102.692 76.0244 103.114 76.1375 103.524C76.1742 103.631 76.2077 103.741 76.2371 103.852C76.2894 103.984 76.3387 104.117 76.391 104.25C76.4623 104.436 76.5523 104.613 76.6393 104.793C76.744 104.974 76.8519 105.153 76.9567 105.335C77.404 105.967 77.9633 106.533 78.6546 106.895C79.853 107.579 81.375 107.638 82.634 107.082C83.6365 106.649 84.4263 105.831 84.9647 104.895C85.0485 104.712 85.1438 104.535 85.2276 104.353C85.2821 104.218 85.3366 104.085 85.3963 103.955C85.4654 103.715 85.5324 103.474 85.6173 103.241C85.6309 103.077 85.6424 102.912 85.6529 102.75L85.7252 102.749C85.7577 102.045 85.7545 101.341 85.7273 100.638L85.655 100.633C85.6456 100.444 85.6309 100.257 85.611 100.071C85.5597 99.9324 85.5241 99.7891 85.4947 99.6468C85.1889 98.4445 84.5384 97.2987 83.5359 96.5464C81.817 95.16 79.0831 95.3975 77.5915 97.0131Z" fill="#010101"/>
<path d="M105.189 96.6368C106.229 95.3362 107.789 94.4729 109.442 94.2762C110.797 94.1151 112.212 94.3306 113.418 94.9846C114.523 95.5643 115.436 96.4945 116.026 97.589C116.079 97.6821 116.132 97.7763 116.184 97.8715C116.275 98.0808 116.376 98.2869 116.454 98.5035C116.492 98.6102 116.531 98.7159 116.573 98.8237C116.636 99.0089 116.659 99.2046 116.69 99.4002C116.085 99.3981 115.482 99.4013 114.877 99.395C114.827 99.2004 114.759 99.011 114.679 98.8279C114.185 97.5367 113.178 96.4181 111.876 95.9138C110.482 95.4021 108.831 95.5998 107.635 96.4955C107.019 96.9863 106.471 97.5827 106.135 98.3005C106.054 98.4344 105.989 98.5767 105.935 98.7232C105.874 98.8551 105.816 98.989 105.756 99.1219C105.745 99.1878 105.724 99.3186 105.714 99.3835C105.089 99.4117 104.464 99.3929 103.84 99.3992C103.852 99.3071 103.866 99.2161 103.881 99.1271C103.919 99.0193 103.956 98.9126 103.992 98.8048C104.044 98.6709 104.098 98.5391 104.15 98.4062C104.265 98.0598 104.471 97.7543 104.616 97.4216L104.674 97.4132C104.721 97.3159 104.769 97.2186 104.819 97.1233C104.95 96.9674 105.072 96.8032 105.189 96.6368Z" fill="#010101"/>
<path d="M91.2865 94.6057C92.8912 94.5921 94.5096 94.4508 96.1028 94.7072C97.1503 94.9081 98.2261 95.3235 98.9164 96.1721C99.0023 96.2914 99.0892 96.4086 99.1762 96.5289C99.2568 96.6576 99.327 96.7926 99.3867 96.9338C99.702 97.615 99.7439 98.4071 99.6025 99.1364C99.5648 99.4325 99.4569 99.7109 99.3427 99.985C98.8357 100.98 97.9076 101.66 97.0508 102.334C97.5012 102.825 97.937 103.329 98.3863 103.823C98.6975 104.202 99.062 104.534 99.3919 104.897C100.246 105.827 101.132 106.726 102.024 107.62C101.586 107.987 101.165 108.384 100.674 108.679C100.475 108.448 100.248 108.242 100.059 108.001C98.5372 106.311 97.0424 104.598 95.5361 102.895C95.2554 102.612 95.0532 102.251 94.716 102.029C95.6723 101.604 96.6926 101.169 97.3462 100.313C97.4866 100.097 97.6332 99.8835 97.7222 99.6418C97.9296 99.0831 97.9579 98.4532 97.8218 97.8777C97.7903 97.7709 97.762 97.6642 97.7348 97.5585C97.6594 97.4214 97.584 97.2854 97.5065 97.1525C96.9576 96.4023 96.0065 96.0968 95.1161 96.0225C94.4028 95.9722 93.6831 95.9325 92.9708 96.0026C92.9447 100.157 92.9614 104.311 92.9719 108.464C92.4083 108.447 91.8448 108.461 91.2812 108.453C91.3231 103.838 91.3158 99.2212 91.2865 94.6057Z" fill="#010101"/>
<path d="M55.337 94.6045C57.2528 94.5679 59.197 94.5303 61.072 94.9907C63.147 95.4898 65.2085 96.6502 66.234 98.5891C66.2958 98.7314 66.3628 98.8716 66.4351 99.0087C66.5304 99.2943 66.6404 99.5758 66.7127 99.8688C66.7567 100.041 66.7829 100.217 66.8122 100.394C66.9463 101.318 66.9526 102.29 66.7158 103.201C66.6676 103.382 66.6121 103.561 66.5514 103.739C66.4487 103.983 66.3356 104.222 66.2246 104.462C65.9574 104.923 65.6401 105.352 65.2797 105.744C64.0468 107.06 62.33 107.822 60.5912 108.206C58.8681 108.596 57.0884 108.525 55.3359 108.46C55.3663 103.842 55.3757 99.2221 55.337 94.6045ZM57.036 95.9627C57.0014 99.6857 57.0234 103.409 57.036 107.132C58.7706 107.145 60.5514 106.918 62.1268 106.153C63.1554 105.633 64.0835 104.83 64.6104 103.796L64.668 103.778C64.8063 103.383 64.9906 103.003 65.0409 102.583C65.1729 101.96 65.1184 101.314 65.0786 100.684C65.0147 100.485 64.9833 100.28 64.933 100.079C64.8974 99.9724 64.8618 99.8667 64.8251 99.762C64.7308 99.5193 64.6408 99.2723 64.4952 99.0547C64.4449 98.9658 64.3967 98.8779 64.3475 98.7889C63.9117 98.1862 63.3649 97.6683 62.726 97.2822C61.0426 96.2149 58.9896 95.969 57.036 95.9627Z" fill="#010101"/>
<path d="M102.168 100.081C102.736 100.063 103.355 100.004 103.85 100.342C103.918 100.508 103.958 100.683 103.971 100.863L103.851 100.869C103.858 100.91 103.87 100.991 103.876 101.032C103.75 101.113 103.625 101.193 103.495 101.268C103.751 101.348 104.059 101.461 104.166 101.734C104.226 102.039 104.22 102.433 103.918 102.612C103.412 102.985 102.756 102.886 102.169 102.89C102.185 101.954 102.186 101.016 102.168 100.081ZM102.501 100.4C102.51 101.124 102.509 101.849 102.502 102.573C102.968 102.595 103.521 102.624 103.851 102.227C103.849 102.117 103.848 102.007 103.849 101.9C103.66 101.554 103.271 101.501 102.913 101.524C102.903 101.458 102.885 101.326 102.876 101.26C103.091 101.2 103.325 101.164 103.5 101.015C103.589 100.889 103.538 100.72 103.556 100.577C103.242 100.371 102.862 100.359 102.501 100.4Z" fill="#010101"/>
<path d="M104.995 100.071C105.575 100.058 106.251 100.004 106.68 100.482C106.699 100.704 106.706 100.926 106.704 101.15C106.561 101.318 106.405 101.476 106.227 101.607C106.26 101.68 106.293 101.753 106.329 101.828C106.36 101.852 106.423 101.902 106.453 101.927C106.706 102.19 106.971 102.44 107.236 102.69C107.159 102.738 107.006 102.834 106.93 102.882C106.486 102.483 106.142 101.987 105.695 101.592C105.894 101.497 106.088 101.39 106.269 101.265C106.361 101.078 106.378 100.874 106.369 100.67C106.098 100.388 105.698 100.361 105.33 100.396C105.341 101.226 105.331 102.057 105.336 102.889C105.221 102.891 105.107 102.894 104.994 102.898C105.013 101.955 105.01 101.014 104.995 100.071Z" fill="#010101"/>
<path d="M107.967 100.46C108.352 100.139 108.88 99.9669 109.374 100.124C109.75 100.198 110.018 100.492 110.237 100.786C110.29 101.004 110.348 101.22 110.407 101.438C110.372 102.055 110.005 102.699 109.366 102.845C108.668 103.06 107.886 102.653 107.639 101.972C107.597 101.646 107.603 101.319 107.634 100.994C107.73 100.807 107.841 100.628 107.967 100.46ZM108.47 100.519C108.225 100.632 108.095 100.877 108.003 101.117C107.941 101.324 107.945 101.54 107.96 101.754C108.021 101.882 108.073 102.014 108.127 102.148C108.387 102.489 108.852 102.683 109.271 102.541C109.565 102.463 109.762 102.219 109.928 101.979C109.934 101.908 109.946 101.767 109.952 101.696L110.028 101.694C110.021 101.57 110.016 101.446 110.011 101.323C109.96 101.186 109.913 101.049 109.865 100.912C109.607 100.434 108.938 100.215 108.47 100.519Z" fill="#010101"/>
<path d="M110.627 100.066C112.279 100.089 113.93 100.052 115.58 100.085C115.583 100.156 115.586 100.296 115.587 100.367C115.233 100.39 114.879 100.393 114.525 100.383C114.527 101.214 114.513 102.047 114.534 102.88C114.401 102.878 114.269 102.877 114.138 102.875C114.155 102.044 114.139 101.213 114.149 100.383C113.436 100.374 112.723 100.382 112.011 100.384C112.013 101.215 111.999 102.047 112.02 102.879C111.887 102.878 111.755 102.877 111.624 102.875C111.641 102.044 111.626 101.213 111.635 100.383C111.3 100.379 110.967 100.382 110.634 100.389C110.632 100.308 110.629 100.146 110.627 100.066Z" fill="#010101"/>
<path d="M115.915 100.988C116.118 100.462 116.637 100.074 117.207 100.07C117.699 100.04 118.18 100.301 118.449 100.708C118.503 100.842 118.56 100.978 118.621 101.111C118.637 101.461 118.681 101.843 118.489 102.159C118.145 102.889 117.112 103.12 116.463 102.665C116.202 102.506 116.048 102.236 115.912 101.974C115.872 101.646 115.873 101.315 115.915 100.988ZM116.272 101.122C116.205 101.342 116.225 101.574 116.225 101.801L116.29 101.813C116.327 102.114 116.539 102.359 116.809 102.487C117.31 102.744 117.957 102.484 118.185 101.979C118.215 101.868 118.25 101.758 118.287 101.651C118.288 101.54 118.291 101.431 118.293 101.322C118.239 101.186 118.191 101.051 118.143 100.916C117.976 100.653 117.722 100.438 117.406 100.394C116.905 100.304 116.412 100.643 116.272 101.122Z" fill="#010101"/>
<path d="M103.744 103.368C104.359 103.362 104.975 103.346 105.59 103.379C105.628 103.612 105.686 103.839 105.76 104.062C105.819 104.191 105.876 104.321 105.935 104.453C105.983 104.563 106.034 104.674 106.084 104.784C106.615 105.754 107.405 106.614 108.437 107.056C109.68 107.641 111.204 107.583 112.408 106.923C113.255 106.467 113.937 105.735 114.413 104.905C114.534 104.652 114.678 104.409 114.779 104.147C114.819 104.043 114.86 103.939 114.903 103.836C114.947 103.686 114.969 103.529 114.996 103.375C115.59 103.35 116.185 103.364 116.78 103.365C116.758 103.518 116.736 103.673 116.714 103.829C116.657 103.967 116.606 104.11 116.554 104.252C116.501 104.397 116.448 104.544 116.401 104.693C116.244 105.049 116.062 105.392 115.875 105.735C115.684 106.031 115.472 106.312 115.256 106.592C114.343 107.62 113.136 108.426 111.776 108.711C109.725 109.168 107.427 108.659 105.89 107.191C105.472 106.769 105.017 106.341 104.771 105.794L104.715 105.785C104.663 105.653 104.586 105.532 104.505 105.419C104.454 105.309 104.405 105.2 104.358 105.09C104.333 105.036 104.282 104.927 104.255 104.872C104.197 104.744 104.141 104.615 104.085 104.486C103.956 104.118 103.857 103.741 103.744 103.368Z" fill="#010101"/>
<path d="M57.6377 112.126C57.8828 111.725 58.2568 111.325 58.7606 111.313C59.3221 111.25 59.6897 111.783 59.9013 112.225C59.9537 112.388 60.0009 112.555 60.0595 112.718C60.0805 113.004 60.0805 113.291 60.0511 113.578C59.9925 113.743 59.9485 113.913 59.893 114.08C59.8416 114.193 59.7893 114.306 59.739 114.423C59.3242 115.07 58.6496 115.476 57.931 115.708C57.5833 115.728 57.2397 115.606 56.893 115.651C56.7484 115.985 56.5462 116.289 56.3713 116.607C56.189 116.95 55.9816 117.277 55.7962 117.617C55.7103 117.772 55.6224 117.925 55.5344 118.081C55.393 118.321 55.2599 118.568 55.1143 118.808C55.0871 118.871 55.0326 118.994 55.0054 119.056C54.9184 119.06 54.8315 119.065 54.7446 119.072C54.7435 119.029 54.7404 118.943 54.7383 118.9C54.8818 118.569 54.9677 118.219 55.0892 117.882C55.1992 117.561 55.5323 117.387 55.6349 117.063C55.5647 117.079 55.4254 117.114 55.3553 117.132C55.5019 116.891 55.5647 116.613 55.5857 116.335L55.6444 116.344C55.6967 115.92 55.8926 115.534 56.0162 115.129C56.1262 114.888 56.2215 114.642 56.3273 114.401C56.3525 114.346 56.4017 114.238 56.4268 114.185C56.5756 113.913 56.7159 113.636 56.8511 113.357C56.9401 113.244 57.0071 113.118 57.0522 112.983L57.1077 112.971C57.2397 112.665 57.4418 112.395 57.6377 112.126ZM58.2348 111.896C57.9226 112.253 57.6471 112.64 57.3675 113.023C57.3151 113.105 57.2638 113.188 57.2114 113.273C56.7432 113.993 56.3504 114.764 56.0592 115.573C55.9597 115.803 55.8874 116.043 55.8078 116.282C55.7931 116.396 55.7554 116.501 55.6936 116.597C55.6821 116.745 55.6569 117.044 55.6444 117.192C55.791 116.913 55.9858 116.666 56.1733 116.416C56.5452 115.801 56.9401 115.194 57.2114 114.525C57.2543 114.378 57.3999 114.324 57.5204 114.256C57.5497 114.357 57.6 114.446 57.6702 114.523C57.6241 114.589 57.578 114.657 57.5319 114.726C57.4775 114.824 57.423 114.924 57.3685 115.024C57.3224 115.091 57.2303 115.225 57.1852 115.292C57.3591 115.335 57.5298 115.419 57.7131 115.417C58.6276 115.242 59.4059 114.549 59.6939 113.666C59.9233 112.929 59.5965 112.065 58.9617 111.648C58.7093 111.637 58.4045 111.686 58.2348 111.896Z" fill="#010101"/>
<path d="M84.3004 112.606C84.4439 112.562 84.5948 112.577 84.7425 112.584C84.7865 112.648 84.8745 112.774 84.9185 112.837C84.7938 112.901 84.7079 113 84.6618 113.131C84.4858 113.069 84.3057 112.946 84.114 113.025C83.518 113.164 82.9502 113.389 82.3752 113.591C82.3794 113.777 82.3762 113.963 82.3762 114.152L82.3008 114.156C82.2893 114.312 82.2757 114.468 82.2589 114.625C82.1573 114.894 82.1081 115.182 81.9991 115.45C81.9625 115.555 81.9258 115.664 81.8881 115.77C81.7917 116.008 81.687 116.243 81.5623 116.468C81.5162 116.559 81.4712 116.65 81.4261 116.743C81.246 117.033 81.07 117.326 80.8668 117.6C81.6912 117.68 82.4768 116.973 83.2917 117.371C83.2079 117.489 83.1356 117.664 82.9544 117.628C82.1426 117.579 81.2847 117.745 80.6342 118.256C80.5777 118.429 80.5106 118.599 80.453 118.773C80.2362 118.783 80.1304 118.679 80.1461 118.467C80.1189 118.435 80.0634 118.372 80.0361 118.34C79.6224 118.421 79.174 118.654 78.7697 118.431C78.8556 118.333 78.9195 118.177 79.0735 118.178C79.4286 118.126 79.7889 118.075 80.1168 117.921C80.6657 117.758 80.7903 117.135 81.0438 116.696C81.093 116.594 81.1412 116.492 81.1884 116.39C81.2229 116.313 81.2606 116.24 81.3004 116.167C81.335 116.069 81.3706 115.971 81.4073 115.874C81.445 115.773 81.4848 115.673 81.5246 115.575C81.5801 115.393 81.6398 115.212 81.6964 115.031C81.7278 114.925 81.7582 114.819 81.7865 114.713C81.8661 114.407 81.9478 114.1 81.9897 113.786C81.2166 114.119 80.4928 114.56 79.8193 115.062C79.6831 115.182 79.4663 115.132 79.4139 114.954C79.4569 114.918 79.5428 114.844 79.5847 114.808C79.7512 114.573 80.0194 114.457 80.253 114.305C81.5267 113.579 82.8832 112.987 84.3004 112.606Z" fill="#010101"/>
<path d="M105.659 114.062C106.213 113.576 106.793 113.102 107.463 112.788C107.558 112.828 107.655 112.869 107.752 112.908C107.733 113.059 107.716 113.213 107.674 113.361C107.585 113.545 107.497 113.729 107.401 113.909C106.887 114.661 105.978 114.92 105.208 115.32C104.783 115.491 104.559 115.917 104.262 116.236C104.053 116.504 103.763 116.719 103.63 117.039C103.985 117.212 104.378 117.279 104.748 117.412C104.797 117.45 104.895 117.524 104.943 117.561C104.895 117.6 104.798 117.678 104.75 117.717C104.235 117.692 103.765 117.243 103.24 117.5C103.015 117.738 102.836 118.016 102.622 118.263C102.252 118.731 101.899 119.218 101.631 119.754C101.576 119.847 101.521 119.94 101.464 120.033C101.399 120.18 101.325 120.323 101.235 120.457C101.236 120.498 101.239 120.58 101.24 120.621C101.121 120.608 101.001 120.596 100.883 120.588C101.13 120.438 100.996 120.062 101.154 119.833C101.353 119.531 101.5 119.199 101.675 118.883C101.785 118.679 101.893 118.474 101.994 118.266C102.224 117.936 102.45 117.593 102.786 117.362C103.048 117.178 103.281 116.953 103.456 116.686C103.64 116.463 103.805 116.226 104.004 116.018C103.419 115.974 102.98 116.531 102.394 116.472C102.399 116.418 102.408 116.309 102.413 116.255C103.094 115.962 103.774 115.666 104.451 115.363C104.602 115.315 104.678 115.17 104.768 115.052C105.047 114.706 105.333 114.363 105.659 114.062ZM105.781 114.499C105.672 114.601 105.566 114.709 105.472 114.826C105.866 114.633 106.262 114.437 106.629 114.196C106.912 113.914 107.177 113.603 107.382 113.259C106.705 113.449 106.283 114.051 105.781 114.499Z" fill="#010101"/>
<path d="M69.4202 114.335C69.482 114.332 69.6046 114.324 69.6654 114.321C69.7858 114.443 69.9063 114.565 70.0278 114.686C70.0184 114.73 69.9985 114.817 69.989 114.861C69.7533 114.917 69.5156 114.863 69.3867 114.643C69.3982 114.539 69.4098 114.436 69.4202 114.335Z" fill="#010101"/>
<path d="M93.6929 114.273C93.9276 114.374 94.268 114.539 94.2167 114.854C93.7966 115.043 93.5505 114.641 93.6929 114.273Z" fill="#010101"/>
<path d="M85.6071 115.043C85.6249 114.94 85.6406 114.838 85.6574 114.736C85.7946 114.741 85.9318 114.746 86.0701 114.753C86.0407 114.846 86.0114 114.939 85.981 115.033C85.9454 115.241 85.8962 115.448 85.8344 115.651C86.2461 115.72 86.6629 115.769 87.0652 115.885L87.1448 116.008C86.6556 116.08 86.1643 116.033 85.6773 115.979C85.5579 116.255 85.3651 116.488 85.1891 116.728C84.8937 117.105 84.5418 117.433 84.1888 117.755C84.1741 117.822 84.1448 117.955 84.1312 118.022C83.995 118.032 83.8578 118.03 83.7227 118.021C83.7384 117.934 83.7698 117.761 83.7855 117.674C84.2401 117.116 84.7419 116.598 85.231 116.07C85.1389 116.023 85.0467 115.978 84.9555 115.933C84.7607 116.073 84.5659 116.222 84.3302 116.287C84.3428 116.115 84.3606 115.945 84.3826 115.775C84.7178 115.659 85.0655 115.571 85.4238 115.611L85.4206 115.513H85.5065C85.5212 115.351 85.5463 115.193 85.6071 115.043Z" fill="#010101"/>
<path d="M91.3754 115.596C91.5986 115.367 91.7557 114.939 92.138 115.006C91.939 115.675 91.3231 116.092 90.9386 116.653L90.9041 116.663C90.7082 116.992 90.2808 117.2 90.2871 117.624C90.8339 117.83 91.4153 117.751 91.9798 117.712L92.0741 117.92C91.4153 117.972 90.725 118.217 90.0818 117.956C89.9215 117.936 89.9153 117.694 89.7592 117.693C89.3967 117.749 89.0877 117.99 88.7222 118.04C88.4886 118.031 88.2686 117.944 88.0476 117.879C88.035 117.705 88.0256 117.534 88.0162 117.361C87.5553 117.537 87.1897 117.887 86.7414 118.085C86.4753 118.194 86.3014 117.95 86.1621 117.771C86.3328 117.658 86.2627 117.429 86.2428 117.259C86.2679 117.282 86.3161 117.327 86.3402 117.35C86.7948 116.631 87.461 116.055 88.2099 115.657C88.4299 115.522 88.7044 115.672 88.8259 115.871C88.8405 116.03 88.8929 116.177 89.0113 116.294C89.1055 116.833 88.6101 117.162 88.4069 117.605C88.8971 117.724 89.3789 117.523 89.8451 117.391C90.3122 116.759 90.8548 116.185 91.3754 115.596ZM87.7051 116.418C87.3437 116.826 86.9498 117.205 86.5968 117.62C87.3678 117.49 87.9428 116.946 88.5598 116.517C88.5556 116.368 88.5504 116.219 88.5483 116.073C88.2141 115.912 87.9428 116.225 87.7051 116.418Z" fill="#010101"/>
<path d="M59.3629 117.632C60.2815 116.798 61.1897 115.951 62.124 115.133C62.1921 115.154 62.3293 115.197 62.3974 115.218C62.3869 115.52 62.3691 115.823 62.3566 116.127L62.3021 116.133C62.0643 116.473 61.748 116.748 61.4557 117.04C61.5563 117.453 61.9638 117.603 62.2728 117.827C62.2728 117.89 62.2728 118.014 62.2717 118.077C61.6244 118.087 60.9037 117.561 61.0001 116.858C61.3363 116.564 61.7679 116.334 61.9816 115.928L62.0423 115.93C62.0434 115.862 62.0455 115.725 62.0465 115.657C61.7983 115.764 61.5689 115.934 61.6286 116.244L61.5699 116.237C61.4987 116.352 61.4096 116.455 61.308 116.546C60.7393 117.029 60.2113 117.561 59.6122 118.012C59.4687 118 59.3251 117.988 59.1816 117.981C59.3052 117.905 59.366 117.788 59.3629 117.632Z" fill="#010101"/>
<path d="M65.5277 116.691C65.7739 115.92 66.5585 115.574 67.2341 115.261C67.4845 115.141 67.7044 115.329 67.8196 115.534C67.8113 115.575 67.7945 115.657 67.7861 115.698C67.453 115.69 67.0854 115.607 66.7952 115.824C66.2882 116.075 65.974 116.58 65.8588 117.121C65.8546 117.168 65.8472 117.264 65.843 117.311C65.996 117.443 66.1479 117.575 66.2987 117.711C66.8622 117.707 67.4268 117.675 67.9904 117.693C68.0113 117.111 68.4827 116.76 68.8148 116.347C68.9122 116.348 69.0096 116.352 69.107 116.356C69.1091 116.839 68.5686 117.027 68.4125 117.444C68.3319 117.642 68.2512 117.842 68.203 118.053C68.1255 118.011 67.9715 117.928 67.894 117.886C67.3493 118.041 66.7669 118.174 66.2002 118.069C65.9027 118.018 65.6964 117.788 65.5288 117.557C65.4921 117.268 65.4942 116.978 65.5277 116.691Z" fill="#010101"/>
<path d="M107.078 115.365C107.164 115.224 107.293 115.132 107.464 115.091C107.449 115.205 107.419 115.433 107.404 115.548C106.797 116.24 106.18 116.926 105.608 117.649C105.667 117.701 105.724 117.755 105.784 117.81C106.324 117.942 106.881 117.923 107.424 117.82C107.425 117.883 107.428 118.008 107.429 118.069C106.757 118.127 106.047 118.369 105.398 118.073C105.079 117.937 105.319 117.575 105.351 117.339C105.938 116.692 106.501 116.022 107.078 115.365Z" fill="#010101"/>
<path d="M113.115 116.903C113.7 116.341 114.326 115.822 114.911 115.26C114.979 115.279 115.114 115.315 115.182 115.334C115.186 115.634 115.169 115.935 115.159 116.236C114.842 116.571 114.528 116.911 114.189 117.225C114.43 117.53 114.714 117.796 115.081 117.945C115.068 118.043 115.058 118.142 115.047 118.243C114.521 118.21 114.078 117.886 113.805 117.45C113.805 117.312 113.808 117.173 113.813 117.037C114.154 116.726 114.488 116.406 114.824 116.089C114.831 115.983 114.839 115.877 114.848 115.771C114.712 115.866 114.577 115.962 114.444 116.059C114.444 116.125 114.444 116.258 114.444 116.324C113.853 116.966 113.186 117.532 112.498 118.067C112.34 118.211 112.13 118.117 111.953 118.074C111.992 118.062 112.069 118.036 112.108 118.022C112.119 117.876 112.161 117.734 112.284 117.645C112.552 117.388 112.836 117.148 113.115 116.903Z" fill="#010101"/>
<path d="M74.6216 115.777C75.1778 115.593 75.82 115.271 76.3699 115.656C76.3175 115.693 76.2128 115.765 76.1604 115.802C75.7603 115.742 75.3905 115.891 75.0375 116.058C75.0396 116.093 75.0438 116.161 75.0459 116.195C75.2994 116.597 75.8189 116.641 76.1216 116.986C76.1248 117.16 76.13 117.336 76.1321 117.51C75.6126 117.855 74.9966 118.186 74.3566 118.116C74.1084 118.108 74.2498 117.814 74.3315 117.706C74.5525 117.714 74.7756 117.714 74.9977 117.701C75.2334 117.546 75.4858 117.419 75.7403 117.297C75.4816 116.84 74.8846 116.747 74.6216 116.289C74.6164 116.117 74.6164 115.946 74.6216 115.777Z" fill="#010101"/>
<path d="M93.7613 117.36C94.2463 116.6 94.9576 115.997 95.7631 115.597C95.8123 115.605 95.9129 115.623 95.9621 115.631C96.0229 115.666 96.1433 115.735 96.203 115.769C96.2271 115.867 96.2533 115.965 96.2826 116.062C96.4387 116.246 96.4659 116.482 96.445 116.717C96.2784 116.923 96.1297 117.142 95.9768 117.358C95.9338 117.439 95.893 117.521 95.8532 117.605C96.3308 117.745 96.7938 117.51 97.2547 117.408C97.4034 117.389 97.4768 117.252 97.5469 117.138C97.593 116.94 97.7407 116.787 97.8099 116.599C97.8381 116.541 97.8937 116.427 97.9219 116.371C97.9921 116.373 98.1314 116.376 98.2006 116.378C98.1985 116.453 98.1932 116.6 98.1911 116.673L98.1189 116.654C98.1073 116.823 98.0812 116.992 97.9764 117.133C98.4404 116.989 98.8354 116.675 99.3088 116.567C99.4796 116.517 99.5738 116.686 99.6608 116.796C99.6555 116.956 99.6545 117.118 99.6524 117.281C99.4701 117.505 99.4282 117.787 99.4387 118.069C99.3067 118.047 99.1758 118.026 99.0459 118.006C98.9485 117.633 99.0606 117.273 99.3759 117.049C98.739 117.071 98.2372 117.559 97.6318 117.702C97.548 117.687 97.3804 117.656 97.2966 117.64C96.909 117.747 96.5529 117.947 96.1643 118.043C95.9286 118.024 95.7055 117.945 95.4813 117.88C95.4719 117.706 95.4624 117.531 95.4541 117.361C94.9492 117.53 94.5805 117.978 94.0609 118.102C93.6555 118.14 93.5927 117.623 93.7613 117.36ZM95.0298 116.53C94.7229 116.912 94.3416 117.226 94.0473 117.618C94.8109 117.48 95.3849 116.943 95.9967 116.514C95.9935 116.395 95.9904 116.277 95.9893 116.161C95.9516 116.117 95.8762 116.029 95.8395 115.984C95.5316 116.099 95.2362 116.269 95.0298 116.53Z" fill="#010101"/>
<path d="M62.9654 116.848C63.3677 116.049 64.2853 115.609 65.1599 115.672C65.3359 115.668 65.405 115.848 65.4993 115.963C65.5025 116.01 65.5098 116.105 65.5129 116.153C64.8708 116.786 64.0213 117.154 63.1456 117.322C63.1812 117.345 63.2546 117.389 63.2912 117.412C63.3342 117.681 63.6578 117.744 63.8841 117.748C64.3712 117.713 64.853 117.624 65.3411 117.587L65.3296 117.802C64.6477 118.067 63.8286 118.287 63.1488 117.902C63.0419 117.693 62.9173 117.494 62.7549 117.324C62.6721 117.183 62.6826 117.018 62.6858 116.863C62.7559 116.859 62.8963 116.852 62.9654 116.848ZM63.5332 116.704C63.9249 116.617 64.3324 116.546 64.6854 116.345C64.8258 116.26 65.0091 116.194 65.0342 116.009C64.4644 116.059 63.9909 116.391 63.5332 116.704Z" fill="#010101"/>
<path d="M115.809 115.944C116.265 115.796 116.717 115.541 117.213 115.613C117.395 115.594 117.507 115.764 117.52 115.925C117.069 115.882 116.64 115.994 116.249 116.214C116.347 116.361 116.452 116.503 116.562 116.643C116.858 116.754 117.141 116.9 117.373 117.118C117.38 117.294 117.387 117.472 117.392 117.649C116.82 118.004 116.167 118.368 115.469 118.243C115.477 118.12 115.487 117.999 115.496 117.879C116.041 117.913 116.599 117.755 116.987 117.36C116.697 117.085 116.343 116.9 116.033 116.655C115.965 116.542 115.891 116.434 115.817 116.328C115.812 116.198 115.81 116.07 115.809 115.944Z" fill="#010101"/>
<path d="M71.8239 116.583C71.9852 116.247 72.2586 115.914 72.6618 115.905C72.7111 116.334 72.2994 116.579 72.1119 116.916C72.1486 116.962 72.2219 117.052 72.2586 117.097C72.9038 117.089 73.5019 116.777 73.9408 116.315C74.0194 116.341 74.1744 116.392 74.2519 116.417C74.1776 116.783 73.8507 117.014 73.6915 117.339C73.5805 117.568 73.5889 117.825 73.5637 118.073C73.4443 118.042 73.3228 118.018 73.2076 117.975C73.1594 117.854 73.1908 117.718 73.1783 117.592L73.2694 117.606C73.2694 117.518 73.2704 117.342 73.2704 117.254C72.7477 117.276 72.2146 117.637 71.7002 117.357C71.6992 117.216 71.6992 117.077 71.7002 116.939C71.7463 116.822 71.7882 116.703 71.8239 116.583Z" fill="#010101"/>
<path d="M69.4209 117.533C69.533 116.761 70.1908 116.184 70.9303 116.025C71.1388 116.056 71.4363 116.044 71.5305 116.276C71.6782 116.482 71.7736 116.749 71.6447 116.991C71.4635 117.659 70.7627 117.94 70.1678 118.136C69.8472 118.234 69.5131 118.112 69.3947 117.789C69.401 117.725 69.4136 117.597 69.4209 117.533ZM70.5941 116.577C70.3144 116.894 70.0682 117.238 69.7823 117.55C69.7959 117.612 69.8242 117.737 69.8388 117.799C70.3668 117.748 70.8874 117.511 71.2142 117.083L71.2687 117.086C71.3912 116.893 71.3849 116.671 71.3745 116.454C71.1032 116.38 70.8319 116.433 70.5941 116.577Z" fill="#010101"/>
<path d="M107.647 117.194C107.933 116.672 108.448 116.278 109.033 116.157C109.216 116.173 109.394 116.225 109.574 116.267C109.759 116.597 109.819 116.987 109.671 117.345C109.296 117.972 108.511 118.31 107.799 118.3C107.706 118.212 107.611 118.128 107.516 118.046C107.52 117.876 107.527 117.707 107.542 117.541C107.593 117.43 107.629 117.315 107.647 117.194ZM108.62 116.806C108.336 117.113 108.109 117.467 107.805 117.755C107.85 117.8 107.94 117.889 107.985 117.933C108.539 117.865 109.086 117.593 109.403 117.124C109.469 116.944 109.418 116.747 109.426 116.563C109.137 116.513 108.822 116.585 108.62 116.806Z" fill="#010101"/>
<path d="M109.963 117.132C110.232 116.651 110.716 116.324 111.236 116.17C111.476 116.146 111.733 116.198 111.913 116.372C112.057 116.672 112.113 117.04 111.936 117.341C111.671 117.852 111.111 118.087 110.595 118.262C110.369 118.329 110.068 118.346 109.902 118.149C109.73 117.946 109.838 117.667 109.843 117.432C109.885 117.333 109.925 117.232 109.963 117.132ZM110.664 117.08C110.485 117.353 110.127 117.558 110.142 117.92C110.869 117.953 111.472 117.465 111.853 116.892C111.818 116.889 111.75 116.884 111.716 116.882C111.716 116.802 111.715 116.644 111.715 116.565C111.277 116.456 110.894 116.735 110.664 117.08Z" fill="#010101"/>
<path d="M93.0766 116.328C93.1824 116.346 93.2871 116.366 93.3929 116.387C93.1918 116.905 92.6272 117.199 92.5298 117.772C92.4879 117.866 92.4376 117.957 92.381 118.043C92.3077 118.025 92.1621 117.99 92.0898 117.972C92.1579 117.761 92.2365 117.553 92.3161 117.348C92.4125 116.914 92.8168 116.661 93.0766 116.328Z" fill="#010101"/>
</svg>
