<svg width="174" height="174" viewBox="0 0 174 174" fill="none" xmlns="http://www.w3.org/2000/svg">
<path fill-rule="evenodd" clip-rule="evenodd" d="M31 41H142V152H31V41Z" fill="white"/>
<path fill-rule="evenodd" clip-rule="evenodd" d="M131.184 78.6134V81.7795H138.082V85.4944H131.184V89.5461H140.368V93.2667H126.426V74.8923H139.433V78.6129L131.184 78.6134ZM121.047 74.8923V93.2667H116.284V85.4944H107.178V93.2667H102.415V74.8923H107.178V81.7789H116.284V74.8923H121.047ZM87.47 74.4385C93.9922 74.4385 99.3154 78.7701 99.3154 84.0824C99.3154 89.3946 93.9922 93.7262 87.47 93.7262C80.9467 93.7262 75.6235 89.3946 75.6235 84.0824C75.6235 78.7701 80.9473 74.4385 87.47 74.4385ZM87.47 77.9351C90.9655 77.9351 93.8234 80.698 93.8234 84.0824C93.8234 87.4673 90.9655 90.2245 87.47 90.2245C83.9728 90.2245 81.1206 87.4673 81.1206 84.0824C81.1212 80.698 83.9734 77.9351 87.47 77.9351ZM56.9018 74.8923H65.9681C71.3869 74.8923 73.2135 77.851 73.2135 80.6082C73.2193 83.3654 71.9639 85.1022 69.4422 86.0437L75.9983 93.2667H69.4318C66.9718 90.1847 64.5117 87.097 62.0522 84.015H65.0329C65.7519 84.0144 66.4414 83.7285 66.9499 83.2201C67.4584 82.7117 67.7444 82.0223 67.7452 81.3033C67.7436 80.5844 67.4574 79.8954 66.9491 79.3871C66.4407 78.8788 65.7517 78.5925 65.0329 78.591H61.6595V93.2667H56.9023L56.9018 74.8923ZM44.4788 74.4385C47.4427 74.4385 50.155 75.3293 52.2344 76.7978V80.0479C49.4772 78.5737 46.8945 77.8677 44.4788 77.9351C40.9822 77.9351 38.1299 80.698 38.1299 84.0824C38.1299 87.4673 40.9822 90.2245 44.4788 90.2245C45.6276 90.2245 46.7091 89.9273 47.6391 89.4119V84.2286H52.5535V91.1268C50.4355 92.741 47.5942 93.7268 44.4788 93.7268C37.956 93.7268 32.6328 89.3952 32.6328 84.0829C32.6322 78.7701 37.956 74.4385 44.4788 74.4385Z" fill="#2761AB"/>
<path fill-rule="evenodd" clip-rule="evenodd" d="M74.9512 99.6384C78.7167 101.022 82.617 102.451 87.2227 102.451C91.8238 102.451 95.7235 101.022 99.489 99.6384C109.026 96.1355 112.042 96.1528 121.635 99.5146C125.406 100.832 129.306 102.199 133.924 102.199C135.285 102.199 136.586 102.075 137.83 101.863C137.288 102.621 136.704 103.349 136.081 104.043C135.363 104.105 134.644 104.137 133.924 104.137C128.998 104.137 124.93 102.714 121.002 101.335C117.556 100.131 114.222 98.9658 110.579 98.9209H110.573H110.534H110.54C106.92 98.9716 103.591 100.187 100.156 101.454C96.2291 102.893 92.1607 104.39 87.2233 104.39C82.2813 104.39 78.2128 102.893 74.2907 101.454C70.8499 100.187 67.5215 98.971 63.9016 98.9209H63.9074H63.8625C60.2202 98.9658 56.886 100.131 53.44 101.335C49.5173 102.715 45.4494 104.137 40.5178 104.137C39.7339 104.137 38.9504 104.1 38.17 104.026C37.5415 103.328 36.9539 102.595 36.4102 101.83C37.7657 102.075 39.1403 102.198 40.5178 102.2C45.1356 102.2 49.041 100.832 52.8066 99.5152C62.3986 96.1528 65.4138 96.1361 74.9512 99.6384ZM74.9512 106.721C78.7167 108.105 82.617 109.54 87.2227 109.54C91.8238 109.54 95.7235 108.106 99.489 106.721C109.026 103.219 112.042 103.241 121.635 106.604C124.397 107.567 127.233 108.559 130.371 109.024C129.603 109.558 128.82 110.07 128.023 110.56C125.547 110.017 123.249 109.209 121.002 108.425C117.556 107.214 114.222 106.048 110.579 106.009H110.573H110.534H110.54C106.92 106.054 103.591 107.275 100.156 108.537C96.2291 109.983 92.1607 111.473 87.2233 111.473C82.2813 111.473 78.2128 109.983 74.2907 108.537C70.8499 107.276 67.5215 106.054 63.9016 106.009H63.9074H63.8625C60.2202 106.048 56.886 107.215 53.44 108.425C51.1539 109.226 48.817 110.044 46.2896 110.588C45.486 110.096 44.6973 109.58 43.9246 109.041C47.1183 108.592 49.9987 107.584 52.8066 106.604C62.3986 103.241 65.4138 103.219 74.9512 106.721ZM74.9512 113.81C78.7167 115.193 82.617 116.623 87.2227 116.623C91.8238 116.623 95.7235 115.194 99.489 113.81C109.026 110.308 112.042 110.325 121.635 113.686C121.719 113.715 121.798 113.743 121.881 113.771C121.005 114.164 120.119 114.537 119.226 114.891C116.396 113.932 113.595 113.126 110.579 113.092H110.573H110.534H110.54C106.92 113.143 103.591 114.364 100.156 115.625C96.2291 117.064 92.1607 118.562 87.2233 118.562C82.2813 118.562 78.2128 117.064 74.2907 115.625C70.8499 114.364 67.5215 113.142 63.9016 113.092H63.9074H63.8625C60.8145 113.126 57.9841 113.949 55.1267 114.925C54.2306 114.572 53.343 114.199 52.4645 113.805L52.8066 113.686C62.3986 110.325 65.4138 110.307 74.9512 113.81Z" fill="#82C4CE"/>
</svg>
