<svg width="174" height="174" viewBox="0 0 174 174" fill="none" xmlns="http://www.w3.org/2000/svg">
<path d="M20 63H155V111H20V63ZM57.192 64.5C57.193 74.3529 57.193 84.2057 57.192 94.0575C58.151 94.0586 59.109 94.0575 60.068 94.0586C60.068 90.6536 60.068 87.2496 60.068 83.8457C62.6611 87.2486 65.2498 90.6546 67.8418 94.0586C69.0018 94.0575 70.1628 94.0586 71.3238 94.0575C68.4618 90.3118 65.5965 86.5682 62.7334 82.8236C65.3254 79.7154 67.9185 76.6093 70.5116 73.5021C69.3981 73.4979 68.2857 73.5011 67.1733 73.5C64.8049 76.4132 62.4375 79.3275 60.068 82.2407C60.068 76.3275 60.068 70.4132 60.068 64.5C59.109 64.5 58.151 64.4989 57.192 64.5ZM106.116 64.5C106.117 65.8168 106.117 67.1336 106.116 68.4504C107.287 68.4514 108.456 68.4504 109.627 68.4514C109.626 67.1336 109.626 65.8168 109.627 64.5C108.456 64.5 107.287 64.5 106.116 64.5ZM94.1161 68.9529C94.1139 70.4679 94.1161 71.9839 94.115 73.5C93.0123 73.5 91.9096 73.5 90.807 73.5C90.807 74.2543 90.807 75.0086 90.807 75.7629C91.9096 75.7639 93.0123 75.7629 94.115 75.7639C94.115 80.0089 94.115 84.2539 94.115 88.5C94.1064 89.7193 94.0632 91.0029 94.6215 92.1268C95.0697 93.0921 95.9748 93.7907 96.9824 94.1132C98.7471 94.6896 100.637 94.5289 102.457 94.38C102.459 93.5657 102.458 92.7525 102.458 91.9393C101.651 92.265 100.773 92.4032 99.906 92.3293C99.0906 92.2768 98.2255 92.0089 97.7028 91.3489C97.0904 90.5764 97.0159 89.5468 96.9921 88.6018C96.9878 84.3225 96.9921 80.0432 96.9911 75.7629C98.7547 75.7629 100.518 75.7639 102.282 75.7629C102.283 75.0086 102.282 74.2543 102.283 73.5C100.518 73.5 98.7547 73.5 96.9911 73.5C96.99 71.3979 96.9921 69.2957 96.99 67.1936C96.0309 67.7775 95.0762 68.3689 94.1161 68.9529ZM25.71 74.5607C24.4021 75.6246 23.7951 77.2971 23.6266 78.9236C24.7909 78.9246 25.9551 78.9225 27.1204 78.9257C27.1615 77.9979 27.249 76.9907 27.8548 76.2364C28.3992 75.5539 29.3031 75.2914 30.1477 75.2368C31.1445 75.1746 32.2278 75.2668 33.0604 75.8679C33.7678 76.3779 34.1253 77.2232 34.2841 78.0514C34.553 79.4775 34.4515 80.9346 34.472 82.3768C32.2504 82.41 29.9943 82.6018 27.8862 83.3411C26.453 83.8479 25.0684 84.6654 24.1882 85.9254C23.4441 86.9764 23.1234 88.2943 23.2173 89.5682C23.348 91.2482 24.3351 92.8361 25.7899 93.705C27.1496 94.5321 28.8463 94.7046 30.3831 94.3489C32.0409 93.9696 33.4914 92.91 34.4731 91.5461C34.4709 92.3839 34.472 93.2207 34.472 94.0586C35.431 94.0575 36.389 94.0586 37.348 94.0575C37.3448 89.2789 37.3513 84.4993 37.3448 79.7207C37.3027 78.0107 37.0284 76.1625 35.8544 74.8286C34.7409 73.5546 32.9805 73.0982 31.34 73.0511C29.383 72.9911 27.263 73.2782 25.71 74.5607ZM50.5435 73.5911C48.8641 74.3454 47.6361 75.8046 46.7149 77.3486C46.7192 76.0661 46.716 74.7825 46.717 73.5C45.758 73.5 44.8 73.5 43.841 73.5C43.841 80.3529 43.8421 87.2057 43.841 94.0575C44.799 94.0586 45.758 94.0586 46.717 94.0586C46.716 90.6343 46.717 87.2111 46.716 83.7879C46.717 82.9189 46.8099 82.05 47.0043 81.2025C47.3596 79.6221 48.1588 78.0054 49.6374 77.1921C50.6634 76.5975 51.8816 76.5771 53.035 76.6071C53.034 75.4114 53.0361 74.2168 53.034 73.0211C52.1786 73.0618 51.3232 73.23 50.5435 73.5911ZM79.0738 73.2182C77.4204 73.5182 75.8684 74.4204 74.8759 75.7789C73.5982 77.4975 73.1274 79.6596 72.974 81.7532C72.826 84.1511 72.9697 86.6207 73.8326 88.8868C74.4655 90.5529 75.5854 92.0636 77.1147 93.0182C78.8125 94.1057 80.8656 94.4957 82.8603 94.5225C84.4458 94.5321 86.0452 94.4111 87.581 94.0018C87.5799 93.2143 87.581 92.4279 87.581 91.6414C86.9643 91.8804 86.3196 92.0475 85.664 92.1332C84.2146 92.3196 82.6962 92.3679 81.3094 91.8418C79.6495 91.26 78.306 89.9743 77.5046 88.4368C76.3944 86.3346 76.0876 83.9196 76.0498 81.5754C80.0188 81.5764 83.9889 81.5754 87.959 81.5764C87.9774 80.2414 87.8596 78.8893 87.4492 77.6121C87.0021 76.1721 86.0949 74.8371 84.7827 74.0443C83.0958 73.0018 80.9908 72.8604 79.0738 73.2182ZM121.832 73.5032C120.43 74.1343 119.4 75.3632 118.699 76.6929C118.699 75.6289 118.698 74.5639 118.699 73.5C117.74 73.5 116.781 73.5 115.822 73.5C115.824 83.3529 115.823 93.2057 115.823 103.059C116.781 103.059 117.74 103.058 118.699 103.059C118.697 99.0589 118.702 95.0604 118.696 91.0618C119.216 92.1632 120.004 93.1736 121.077 93.7918C122.402 94.5675 124.034 94.6714 125.516 94.3629C126.949 94.0661 128.241 93.2218 129.126 92.0711C130.282 90.5871 130.852 88.74 131.123 86.9068C131.369 85.1989 131.377 83.4632 131.218 81.7479C131.038 79.9543 130.632 78.1511 129.759 76.5568C129.002 75.1543 127.788 73.9489 126.257 73.4143C124.84 72.9246 123.216 72.8754 121.832 73.5032ZM141.657 73.1518C140.458 73.3393 139.298 73.8043 138.33 74.535C137.116 75.4425 136.224 76.725 135.659 78.1157C134.912 79.9436 134.666 81.9354 134.683 83.8971C134.711 85.7914 134.939 87.7125 135.637 89.4879C136.155 90.8143 136.976 92.0464 138.111 92.9314C139.286 93.855 140.761 94.3468 142.245 94.4764C143.852 94.6232 145.521 94.44 146.99 93.7457C148.137 93.2111 149.123 92.3582 149.85 91.3318C151.096 89.5704 151.617 87.4082 151.758 85.2868C151.882 83.1343 151.732 80.9379 151.067 78.8743C150.501 77.1246 149.47 75.4671 147.923 74.4139C146.117 73.17 143.799 72.8421 141.657 73.1518ZM106.454 73.5C106.454 80.3529 106.454 87.2057 106.454 94.0586C107.412 94.0586 108.371 94.0586 109.329 94.0575C109.33 87.2057 109.329 80.3529 109.33 73.5C108.371 73.5 107.412 73.5 106.454 73.5ZM61.647 99.2754C60.8089 99.87 60.4514 100.875 60.0561 101.775C59.7138 101.781 59.3574 101.73 59.0269 101.839C58.705 101.944 58.7353 102.525 59.0949 102.554C59.3185 102.572 59.5442 102.551 59.7688 102.544C59.2623 103.982 58.7504 105.417 58.2417 106.854C58.0344 107.397 57.8691 107.978 57.4965 108.438C57.3518 108.632 57.1228 108.722 56.9025 108.799C56.9716 108.569 57.0354 108.283 56.828 108.1C56.4165 107.694 55.5936 108.054 55.6573 108.643C55.6648 109.328 56.4716 109.56 57.0397 109.478C57.8983 109.419 58.4718 108.692 58.9221 108.044C60.0151 106.346 60.5637 104.385 61.2873 102.52C61.6696 102.522 62.0541 102.56 62.4364 102.522C62.7896 102.488 62.8404 101.93 62.5293 101.801C62.1967 101.746 61.8554 101.801 61.5195 101.788C61.7787 101.115 61.9494 100.389 62.3792 99.7961C62.5099 99.5957 62.755 99.5657 62.971 99.5271C62.9095 99.7243 62.7972 99.9439 62.9116 100.146C63.0974 100.561 63.7486 100.596 63.9992 100.226C64.2703 99.8421 64.0878 99.2679 63.6795 99.0579C63.0391 98.7204 62.2237 98.8768 61.647 99.2754ZM68.1972 99.4779C67.6377 99.6493 67.5978 100.502 68.1151 100.75C68.5503 101.029 69.2005 100.707 69.1778 100.176C69.2512 99.6546 68.6702 99.2571 68.1972 99.4779ZM73.0755 101.875C72.8401 101.9 72.772 102.198 72.8876 102.374C72.9762 102.506 73.1544 102.499 73.2915 102.55C72.6997 103.864 72.1219 105.185 71.5322 106.501C71.6802 106.851 72.0765 106.746 72.3778 106.761C72.5668 106.765 72.8401 106.819 72.9243 106.591C73.2678 105.864 73.5885 105.124 73.9374 104.399C74.2614 103.729 74.7117 103.094 75.3468 102.683C75.3208 102.906 75.3511 103.197 75.6232 103.253C76.2734 103.43 76.7724 102.515 76.3317 102.042C75.9321 101.614 75.255 101.808 74.8327 102.103C74.8003 101.918 74.6826 101.674 74.4525 101.729C74 101.839 73.5334 101.817 73.0755 101.875ZM97.1822 101.828C97.0418 102.245 96.9219 102.671 96.7427 103.076C96.6292 103.347 96.9576 103.607 97.2124 103.493C97.4565 103.426 97.4673 103.128 97.5678 102.94C97.9641 103.148 98.4069 103.232 98.853 103.24C97.9296 104.055 97.0688 104.938 96.2491 105.855C96.0363 106.067 95.8786 106.496 96.1746 106.705C96.4532 106.89 96.7653 106.674 96.8841 106.41C97.5451 106.563 98.1888 106.783 98.8476 106.946C99.2623 107.058 99.6533 106.798 99.9427 106.53C100.31 106.2 100.522 105.703 100.483 105.211C100.46 104.92 100.216 104.65 99.9135 104.641C99.5398 104.6 99.177 104.949 99.2483 105.326C99.286 105.576 99.5377 105.695 99.7126 105.848C99.6619 105.858 99.5582 105.879 99.5074 105.889C98.9016 105.735 98.341 105.414 97.7071 105.357C98.5506 104.483 99.4696 103.683 100.396 102.897C100.657 102.672 100.972 102.384 100.884 102.001C100.868 101.757 100.589 101.58 100.361 101.678C100.15 101.723 100.101 101.95 100.07 102.129C99.3066 102.205 98.5452 102.024 97.8486 101.721C97.639 101.609 97.287 101.551 97.1822 101.828ZM66.3806 102.272C66.4368 102.452 66.6474 102.476 66.7975 102.541C66.3676 103.515 65.9022 104.475 65.4961 105.459C65.3049 105.885 65.3978 106.453 65.8255 106.7C66.5912 107.135 67.6798 106.739 68.0578 105.969C68.1712 105.655 67.7295 105.376 67.5038 105.627C67.2878 105.869 67.0426 106.099 66.7024 106.141C67.2457 104.779 67.8775 103.453 68.4585 102.107C68.479 101.895 68.2803 101.673 68.0589 101.743C67.6377 101.87 67.1982 101.851 66.7662 101.81C66.5156 101.762 66.3007 102.041 66.3806 102.272ZM81.2544 102.23C80.3288 102.828 79.441 103.666 79.2045 104.779C79.0522 105.41 79.2585 106.138 79.805 106.521C80.7954 107.241 82.3732 106.83 82.9046 105.744C83.0277 105.476 82.6918 105.177 82.438 105.332C82.1205 105.588 81.871 105.955 81.4563 106.066C81.1766 106.16 80.7554 106.121 80.6679 105.786C80.5448 105.27 80.6874 104.736 80.8958 104.262C81.817 104.349 82.8808 104.258 83.5591 103.56C83.9997 103.124 84.0429 102.266 83.4619 101.928C82.7502 101.544 81.8926 101.83 81.2544 102.23ZM88.0605 102.215C88.0832 102.433 88.3435 102.455 88.5055 102.529C87.9676 103.797 87.446 105.072 86.8984 106.335C86.7645 106.576 87.0345 106.839 87.2851 106.765C87.6145 106.709 88.1264 106.929 88.2819 106.517C88.6243 105.745 88.9515 104.965 89.2971 104.193C89.4894 103.743 89.7702 103.332 90.1298 102.996C90.3825 102.76 90.6828 102.47 91.0629 102.534C90.8998 103.229 90.5273 103.851 90.2572 104.508C90.0618 104.991 89.7648 105.447 89.7 105.971C89.6751 106.503 90.2778 106.796 90.7465 106.757C91.3405 106.726 91.9734 106.463 92.2984 105.948C92.4626 105.677 92.0879 105.346 91.8287 105.524C91.5759 105.694 91.3491 105.899 91.0802 106.046C91.3416 105.366 91.6645 104.712 91.9539 104.044C92.131 103.628 92.387 103.211 92.347 102.74C92.3265 102.31 92.0004 101.929 91.5889 101.805C91.0856 101.65 90.5391 101.778 90.105 102.057C90.0348 101.922 89.9581 101.713 89.7658 101.735C89.3382 101.803 88.9072 101.865 88.4742 101.8C88.2441 101.755 87.9795 101.975 88.0605 102.215ZM106.456 102.257C105.625 102.809 104.835 103.541 104.52 104.51C104.302 105.162 104.388 105.972 104.945 106.434C105.912 107.27 107.599 106.872 108.151 105.747C108.268 105.484 107.961 105.194 107.704 105.319C107.381 105.568 107.138 105.942 106.727 106.059C106.452 106.152 106.035 106.14 105.926 105.816C105.777 105.296 105.936 104.746 106.141 104.263C107.071 104.348 108.155 104.259 108.827 103.535C109.27 103.085 109.272 102.196 108.654 101.896C107.927 101.555 107.09 101.852 106.456 102.257Z" fill="white"/>
<path d="M77.7721 76.1678C78.6534 75.4006 79.8771 75.1585 81.0197 75.2303C82.0241 75.2753 83.0631 75.6128 83.7543 76.3671C84.5113 77.1803 84.7857 78.3128 84.8353 79.3917C81.9723 79.3938 79.1092 79.3928 76.2461 79.3928C76.4038 78.2024 76.8325 76.9735 77.7721 76.1678Z" fill="white"/>
<path d="M123.197 75.2838C124.094 75.0888 125.073 75.3363 125.769 75.9299C126.635 76.6552 127.131 77.7074 127.476 78.7563C128.035 80.5188 128.198 82.3799 128.202 84.2195C128.168 86.1074 127.923 88.0316 127.141 89.7695C126.681 90.7702 125.966 91.7516 124.896 92.1577C123.871 92.5563 122.673 92.2949 121.835 91.6113C120.658 90.6631 119.971 89.2606 119.475 87.8688C118.823 85.9166 118.463 83.8038 118.874 81.7627C119.203 80.0699 119.794 78.392 120.824 76.9884C121.413 76.202 122.208 75.4959 123.197 75.2838Z" fill="white"/>
<path d="M142.207 75.2901C143.531 75.0812 144.979 75.3158 146.053 76.1516C147.217 77.0483 147.845 78.4487 148.199 79.833C148.674 81.7508 148.74 83.7491 148.616 85.713C148.489 87.2751 148.196 88.8844 147.339 90.2301C146.732 91.1933 145.752 91.9251 144.631 92.1833C143.342 92.4833 141.899 92.4019 140.757 91.6894C139.806 91.1033 139.156 90.1412 138.738 89.1298C138.142 87.6758 137.926 86.1008 137.841 84.5441C137.75 82.668 137.842 80.7501 138.434 78.9523C138.815 77.8112 139.444 76.6958 140.455 75.993C140.975 75.6287 141.581 75.393 142.207 75.2901Z" fill="white"/>
<path d="M31.077 84.8273C32.197 84.6398 33.3353 84.5627 34.4704 84.5605C34.5416 86.3155 34.3084 88.1455 33.399 89.683C32.8342 90.6495 31.9205 91.4402 30.8178 91.7252C29.5693 92.0584 28.0724 91.9041 27.1372 90.943C25.934 89.7098 26.1133 87.5252 27.365 86.3873C28.3738 85.4563 29.7508 85.0652 31.077 84.8273Z" fill="white"/>
<path d="M81.293 103.578C81.6353 103.127 81.9971 102.495 82.644 102.506C82.4853 103.113 81.9032 103.514 81.293 103.578Z" fill="white"/>
<path d="M106.541 103.58C106.875 103.121 107.237 102.533 107.867 102.482C107.778 103.114 107.137 103.507 106.541 103.58Z" fill="white"/>
<path d="M57.1916 64.5C58.1506 64.4989 59.1086 64.5 60.0676 64.5C60.0676 70.4132 60.0676 76.3275 60.0676 82.2407C62.4372 79.3275 64.8045 76.4132 67.173 73.5C68.2854 73.5011 69.3978 73.4978 70.5112 73.5021C67.9182 76.6093 65.3251 79.7153 62.7331 82.8236C65.5962 86.5682 68.4614 90.3118 71.3234 94.0575C70.1624 94.0586 69.0014 94.0575 67.8415 94.0586C65.2495 90.6546 62.6607 87.2486 60.0676 83.8457C60.0676 87.2496 60.0676 90.6536 60.0676 94.0586C59.1086 94.0575 58.1506 94.0586 57.1916 94.0575C57.1927 84.2057 57.1927 74.3528 57.1916 64.5Z" fill="#050505"/>
<path d="M106.117 64.5C107.288 64.5 108.458 64.5 109.628 64.5C109.627 65.8168 109.627 67.1336 109.628 68.4514C108.458 68.4504 107.288 68.4514 106.117 68.4504C106.118 67.1336 106.118 65.8168 106.117 64.5Z" fill="#050505"/>
<path d="M94.1161 68.9529C95.0762 68.3689 96.0309 67.7775 96.99 67.1936C96.9921 69.2957 96.99 71.3979 96.991 73.5C98.7547 73.5 100.518 73.5 102.283 73.5C102.282 74.2543 102.283 75.0086 102.282 75.7629C100.518 75.7639 98.7547 75.7629 96.991 75.7629C96.9921 80.0432 96.9878 84.3225 96.9921 88.6018C97.0159 89.5468 97.0904 90.5764 97.7028 91.3489C98.2255 92.0089 99.0906 92.2768 99.906 92.3293C100.773 92.4032 101.651 92.265 102.458 91.9393C102.458 92.7525 102.459 93.5657 102.457 94.38C100.637 94.5289 98.7471 94.6896 96.9824 94.1132C95.9748 93.7907 95.0697 93.0921 94.6215 92.1268C94.0632 91.0029 94.1064 89.7193 94.115 88.5C94.115 84.2539 94.115 80.0089 94.115 75.7639C93.0123 75.7629 91.9096 75.7639 90.807 75.7629C90.807 75.0086 90.807 74.2543 90.807 73.5C91.9096 73.5 93.0123 73.5 94.115 73.5C94.1161 71.9839 94.1139 70.4679 94.1161 68.9529Z" fill="#050505"/>
<path d="M25.71 74.5607C27.263 73.2782 29.383 72.9911 31.34 73.0511C32.9805 73.0982 34.7409 73.5546 35.8544 74.8286C37.0284 76.1625 37.3027 78.0107 37.3448 79.7207C37.3513 84.4993 37.3448 89.2789 37.348 94.0575C36.389 94.0586 35.431 94.0575 34.472 94.0586C34.472 93.2207 34.4709 92.3839 34.4731 91.5461C33.4914 92.91 32.0409 93.9696 30.3831 94.3489C28.8463 94.7046 27.1496 94.5321 25.7899 93.705C24.3351 92.8361 23.348 91.2482 23.2173 89.5682C23.1234 88.2943 23.4441 86.9764 24.1882 85.9254C25.0684 84.6654 26.453 83.8479 27.8862 83.3411C29.9943 82.6018 32.2504 82.41 34.472 82.3768C34.4515 80.9346 34.553 79.4775 34.2841 78.0514C34.1253 77.2232 33.7678 76.3779 33.0604 75.8679C32.2278 75.2668 31.1445 75.1746 30.1477 75.2368C29.3031 75.2914 28.3992 75.5539 27.8548 76.2364C27.249 76.9907 27.1615 77.9979 27.1204 78.9257C25.9551 78.9225 24.7909 78.9246 23.6266 78.9236C23.7951 77.2971 24.4021 75.6246 25.71 74.5607ZM31.0776 84.8271C29.7513 85.065 28.3743 85.4561 27.3656 86.3871C26.1139 87.525 25.9346 89.7096 27.1377 90.9429C28.073 91.9039 29.5699 92.0582 30.8184 91.725C31.921 91.44 32.8347 90.6493 33.3996 89.6829C34.3089 88.1454 34.5422 86.3154 34.4709 84.5604C33.3358 84.5625 32.1975 84.6396 31.0776 84.8271Z" fill="#050505"/>
<path d="M50.5425 73.591C51.3223 73.2299 52.1776 73.0617 53.033 73.021C53.0352 74.2167 53.033 75.4114 53.0341 76.6071C51.8806 76.5771 50.6624 76.5974 49.6364 77.1921C48.1579 78.0053 47.3587 79.6221 47.0034 81.2024C46.809 82.0499 46.7161 82.9189 46.715 83.7878C46.7161 87.211 46.715 90.6342 46.7161 94.0585C45.757 94.0585 44.798 94.0585 43.84 94.0574C43.8411 87.2056 43.84 80.3528 43.84 73.4999C44.7991 73.4999 45.757 73.4999 46.7161 73.4999C46.715 74.7824 46.7182 76.066 46.7139 77.3485C47.6352 75.8046 48.8631 74.3453 50.5425 73.591Z" fill="#050505"/>
<path d="M79.0746 73.218C80.9916 72.8602 83.0965 73.0016 84.7835 74.0441C86.0957 74.837 87.0029 76.172 87.45 77.612C87.8604 78.8891 87.9781 80.2412 87.9598 81.5762C83.9897 81.5752 80.0196 81.5762 76.0506 81.5752C76.0884 83.9195 76.3951 86.3345 77.5054 88.4366C78.3067 89.9741 79.6503 91.2598 81.3102 91.8416C82.6969 92.3677 84.2154 92.3195 85.6648 92.133C86.3203 92.0473 86.9651 91.8802 87.5818 91.6412C87.5818 92.4277 87.5807 93.2141 87.5818 94.0016C86.046 94.4109 84.4465 94.532 82.8611 94.5223C80.8663 94.4955 78.8133 94.1055 77.1155 93.018C75.5862 92.0634 74.4663 90.5527 73.8334 88.8866C72.9705 86.6205 72.8268 84.1509 72.9748 81.753C73.1281 79.6595 73.599 77.4973 74.8767 75.7787C75.8692 74.4202 77.4211 73.518 79.0746 73.218ZM77.7721 76.1677C76.8325 76.9734 76.4038 78.2023 76.2461 79.3927C79.1092 79.3927 81.9723 79.3937 84.8353 79.3916C84.7857 78.3127 84.5113 77.1802 83.7543 76.367C83.0631 75.6127 82.0241 75.2752 81.0197 75.2302C79.8771 75.1584 78.6534 75.4005 77.7721 76.1677Z" fill="#050505"/>
<path d="M121.831 73.5032C123.214 72.8754 124.839 72.9246 126.255 73.4143C127.787 73.9489 129.001 75.1543 129.758 76.5568C130.631 78.1511 131.037 79.9543 131.217 81.7479C131.376 83.4632 131.367 85.1989 131.122 86.9068C130.851 88.74 130.281 90.5871 129.125 92.0711C128.239 93.2218 126.948 94.0661 125.515 94.3629C124.033 94.6714 122.401 94.5675 121.076 93.7918C120.002 93.1736 119.215 92.1632 118.694 91.0618C118.701 95.0604 118.695 99.0589 118.698 103.059C117.739 103.057 116.78 103.059 115.822 103.059C115.822 93.2057 115.823 83.3529 115.821 73.5C116.78 73.5 117.739 73.5 118.698 73.5C118.697 74.5639 118.698 75.6289 118.698 76.6929C119.399 75.3632 120.429 74.1343 121.831 73.5032ZM123.195 75.2839C122.205 75.4961 121.411 76.2021 120.822 76.9886C119.792 78.3921 119.201 80.07 118.872 81.7629C118.461 83.8039 118.821 85.9168 119.473 87.8689C119.969 89.2607 120.656 90.6632 121.833 91.6114C122.671 92.295 123.869 92.5564 124.894 92.1579C125.964 91.7518 126.679 90.7704 127.139 89.7696C127.921 88.0318 128.166 86.1075 128.199 84.2196C128.196 82.38 128.033 80.5189 127.474 78.7564C127.129 77.7075 126.632 76.6554 125.767 75.93C125.071 75.3364 124.092 75.0889 123.195 75.2839Z" fill="#050505"/>
<path d="M141.656 73.1516C143.799 72.8419 146.117 73.1698 147.922 74.4137C149.47 75.4669 150.5 77.1244 151.066 78.8741C151.732 80.9376 151.882 83.1341 151.757 85.2866C151.617 87.408 151.095 89.5701 149.849 91.3316C149.122 92.358 148.136 93.2109 146.989 93.7455C145.52 94.4398 143.852 94.623 142.245 94.4762C140.761 94.3466 139.286 93.8548 138.111 92.9312C136.976 92.0462 136.155 90.8141 135.636 89.4876C134.939 87.7123 134.711 85.7912 134.683 83.8969C134.665 81.9351 134.912 79.9434 135.659 78.1155C136.224 76.7248 137.116 75.4423 138.33 74.5348C139.298 73.8041 140.457 73.3391 141.656 73.1516ZM142.207 75.2901C141.581 75.393 140.975 75.6287 140.455 75.993C139.444 76.6959 138.815 77.8112 138.434 78.9523C137.842 80.7501 137.75 82.668 137.841 84.5441C137.926 86.1009 138.142 87.6759 138.738 89.1298C139.156 90.1412 139.806 91.1034 140.757 91.6894C141.899 92.4019 143.342 92.4834 144.631 92.1834C145.752 91.9251 146.732 91.1934 147.339 90.2301C148.196 88.8844 148.489 87.2751 148.616 85.713C148.74 83.7491 148.674 81.7509 148.199 79.833C147.845 78.4487 147.217 77.0484 146.053 76.1516C144.979 75.3159 143.531 75.0812 142.207 75.2901Z" fill="#050505"/>
<path d="M106.453 73.5C107.411 73.5 108.37 73.5 109.329 73.5C109.328 80.3529 109.329 87.2057 109.328 94.0575C108.37 94.0586 107.411 94.0586 106.453 94.0586C106.453 87.2057 106.453 80.3529 106.453 73.5Z" fill="#050505"/>
<path d="M61.6457 99.2751C62.2224 98.8766 63.0378 98.7201 63.6783 99.0576C64.0865 99.2676 64.269 99.8419 63.998 100.226C63.7474 100.596 63.0962 100.561 62.9104 100.146C62.7959 99.9437 62.9082 99.7241 62.9698 99.5269C62.7538 99.5655 62.5086 99.5955 62.378 99.7959C61.9481 100.388 61.7775 101.115 61.5183 101.788C61.8542 101.801 62.1954 101.746 62.5281 101.801C62.8391 101.93 62.7884 102.487 62.4352 102.522C62.0529 102.56 61.6684 102.522 61.2861 102.519C60.5625 104.385 60.0138 106.346 58.9209 108.044C58.4705 108.692 57.897 109.418 57.0384 109.477C56.4704 109.56 55.6636 109.327 55.656 108.643C55.5923 108.053 56.4153 107.693 56.8268 108.099C57.0341 108.283 56.9704 108.569 56.9013 108.799C57.1216 108.722 57.3506 108.632 57.4953 108.438C57.8679 107.977 58.0331 107.397 58.2405 106.853C58.7492 105.417 59.2611 103.982 59.7676 102.544C59.543 102.551 59.3172 102.572 59.0937 102.554C58.734 102.525 58.7038 101.944 59.0256 101.839C59.3561 101.73 59.7125 101.781 60.0549 101.775C60.4502 100.875 60.8076 99.8698 61.6457 99.2751Z" fill="#050505"/>
<path d="M68.1963 99.4778C68.6694 99.2571 69.2504 99.6546 69.177 100.176C69.1996 100.707 68.5495 101.029 68.1142 100.75C67.5969 100.502 67.6369 99.6492 68.1963 99.4778Z" fill="#050505"/>
<path d="M73.0748 101.875C73.5327 101.817 73.9992 101.839 74.4518 101.729C74.6818 101.674 74.7995 101.918 74.8319 102.103C75.2542 101.808 75.9314 101.614 76.331 102.042C76.7716 102.515 76.2726 103.43 75.6225 103.253C75.3503 103.197 75.3201 102.907 75.346 102.683C74.711 103.094 74.2606 103.729 73.9366 104.399C73.5878 105.124 73.267 105.864 72.9236 106.591C72.8393 106.819 72.5661 106.765 72.3771 106.762C72.0758 106.747 71.6794 106.852 71.5314 106.501C72.1211 105.185 72.6989 103.864 73.2908 102.55C73.1536 102.499 72.9754 102.506 72.8868 102.374C72.7713 102.198 72.8393 101.9 73.0748 101.875Z" fill="#050505"/>
<path d="M97.1825 101.827C97.2872 101.551 97.6393 101.609 97.8488 101.721C98.5454 102.023 99.3068 102.205 100.07 102.128C100.102 101.95 100.15 101.722 100.361 101.677C100.589 101.58 100.868 101.757 100.885 102.001C100.972 102.383 100.657 102.672 100.397 102.897C99.4699 103.683 98.5508 104.482 97.7073 105.357C98.3413 105.413 98.9018 105.735 99.5077 105.889C99.5585 105.878 99.6621 105.858 99.7129 105.847C99.5379 105.695 99.2863 105.576 99.2485 105.326C99.1772 104.948 99.5401 104.6 99.9138 104.641C100.216 104.65 100.46 104.92 100.483 105.211C100.522 105.703 100.31 106.2 99.9429 106.53C99.6535 106.798 99.2625 107.058 98.8478 106.946C98.189 106.783 97.5453 106.563 96.8844 106.41C96.7656 106.673 96.4535 106.89 96.1748 106.705C95.8789 106.496 96.0366 106.067 96.2493 105.855C97.0691 104.938 97.9298 104.055 98.8532 103.24C98.4072 103.232 97.9644 103.147 97.568 102.94C97.4676 103.128 97.4568 103.426 97.2127 103.492C96.9578 103.607 96.6295 103.347 96.7429 103.076C96.9222 102.671 97.0421 102.245 97.1825 101.827Z" fill="#050505"/>
<path d="M66.3797 102.272C66.2998 102.041 66.5147 101.762 66.7653 101.811C67.1973 101.851 67.6369 101.871 68.0581 101.743C68.2795 101.673 68.4782 101.895 68.4577 102.107C67.8766 103.453 67.2448 104.779 66.7016 106.141C67.0418 106.099 67.2869 105.869 67.5029 105.627C67.7287 105.376 68.1704 105.655 68.057 105.969C67.679 106.739 66.5903 107.136 65.8246 106.701C65.3969 106.453 65.3041 105.885 65.4952 105.459C65.9013 104.475 66.3668 103.515 66.7966 102.541C66.6465 102.476 66.4359 102.452 66.3797 102.272Z" fill="#050505"/>
<path d="M81.255 102.23C81.8932 101.83 82.7508 101.544 83.4625 101.928C84.0435 102.266 84.0003 103.124 83.5597 103.56C82.8814 104.258 81.8176 104.349 80.8964 104.262C80.688 104.736 80.5454 105.27 80.6685 105.786C80.756 106.121 81.1772 106.16 81.4569 106.066C81.8716 105.955 82.1211 105.588 82.4386 105.332C82.6924 105.177 83.0283 105.476 82.9052 105.744C82.3738 106.83 80.796 107.241 79.8056 106.521C79.2591 106.138 79.0528 105.41 79.2051 104.779C79.4416 103.666 80.3294 102.828 81.255 102.23ZM81.2928 103.578C81.903 103.514 82.4851 103.113 82.6438 102.506C81.9969 102.495 81.6351 103.127 81.2928 103.578Z" fill="#050505"/>
<path d="M88.0611 102.216C87.9801 101.976 88.2447 101.755 88.4747 101.8C88.9078 101.865 89.3387 101.803 89.7664 101.736C89.9586 101.713 90.0353 101.922 90.1055 102.057C90.5397 101.778 91.0862 101.65 91.5894 101.805C92.0009 101.929 92.3271 102.31 92.3476 102.741C92.3876 103.211 92.1316 103.628 91.9545 104.044C91.665 104.712 91.3421 105.367 91.0808 106.046C91.3497 105.899 91.5765 105.694 91.8292 105.524C92.0884 105.346 92.4632 105.677 92.299 105.948C91.9739 106.463 91.341 106.726 90.747 106.757C90.2783 106.796 89.6757 106.503 89.7005 105.971C89.7653 105.447 90.0623 104.992 90.2578 104.508C90.5278 103.852 90.9004 103.229 91.0635 102.534C90.6833 102.471 90.3831 102.76 90.1304 102.997C89.7707 103.332 89.4899 103.743 89.2977 104.193C88.9521 104.965 88.6248 105.745 88.2825 106.517C88.127 106.929 87.615 106.709 87.2856 106.765C87.0351 106.839 86.7651 106.576 86.899 106.335C87.4466 105.072 87.9682 103.797 88.506 102.529C88.344 102.456 88.0838 102.433 88.0611 102.216Z" fill="#050505"/>
<path d="M106.455 102.257C107.089 101.852 107.926 101.555 108.653 101.896C109.271 102.196 109.269 103.085 108.826 103.535C108.154 104.258 107.07 104.347 106.14 104.263C105.935 104.746 105.776 105.296 105.925 105.816C106.034 106.14 106.451 106.152 106.726 106.058C107.137 105.942 107.38 105.568 107.703 105.319C107.96 105.194 108.268 105.484 108.15 105.747C107.598 106.872 105.911 107.27 104.944 106.433C104.387 105.972 104.301 105.162 104.519 104.51C104.834 103.541 105.624 102.809 106.455 102.257ZM106.541 103.58C107.137 103.507 107.777 103.114 107.867 102.482C107.236 102.533 106.874 103.121 106.541 103.58Z" fill="#050505"/>
</svg>
