<svg width="174" height="174" viewBox="0 0 174 174" fill="none" xmlns="http://www.w3.org/2000/svg">
<path d="M135.152 91.9317C135.152 88.4817 137.269 87.1271 141.777 87.1271C143.153 87.1271 144.148 87.1271 145.312 87.1271V86.3651C145.312 84.947 144.55 84.2909 141.862 84.2909C140.147 84.2909 137.861 84.2909 136.147 84.5872V81.497C137.861 81.2007 140.105 81.1372 141.819 81.1372C147.132 81.1372 149.312 82.9151 149.312 86.344V96.8209H147.344C147.344 96.8209 142.835 96.8209 141.311 96.8209C137.121 96.8209 135.152 95.424 135.152 91.9317ZM141.777 90.0903C139.914 90.0903 138.941 90.3866 138.941 91.8682C138.941 93.244 139.745 93.6461 141.311 93.6461C142.941 93.6461 143.788 93.6461 145.418 93.6461V90.1114C144.359 90.1538 143.259 90.0903 141.777 90.0903Z" fill="#EF7D00"/>
<path d="M46.1719 91.9317C46.1719 88.4817 48.2884 87.1271 52.7967 87.1271C54.1725 87.1271 55.1673 87.1271 56.3314 87.1271V86.3651C56.3314 84.947 55.5694 84.2909 52.8814 84.2909C51.167 84.2909 48.8811 84.2909 47.1667 84.5872V81.497C48.8811 81.2007 51.1246 81.1372 52.8391 81.1372C58.1516 81.1372 60.3317 82.9151 60.3317 86.344V96.8209H58.3633C58.3633 96.8209 53.855 96.8209 52.3311 96.8209C48.1403 96.8209 46.1719 95.424 46.1719 91.9317ZM52.8602 90.0903C50.9976 90.0903 50.024 90.3866 50.024 91.8682C50.024 93.244 50.8283 93.6461 52.3946 93.6461C54.0243 93.6461 54.871 93.6461 56.5007 93.6461V90.1114C55.4213 90.1538 54.2571 90.0903 52.8602 90.0903Z" fill="#EF7D00"/>
<path d="M63.7812 96.8209V81.1795H66.8079L67.3159 82.132C68.734 81.0102 70.7024 81.1795 72.2263 81.1795V84.3755C70.1944 84.3755 69.0938 84.2274 67.6757 86.3439V96.8209H63.7812Z" fill="#EF7D00"/>
<path d="M74.4707 75.5283H78.4287V81.2007C79.741 81.2007 80.7992 81.2007 82.0692 81.2007C86.9373 81.2007 89.3502 83.1691 89.3502 88.6934C89.3502 94.8102 86.7256 96.8421 81.413 96.8421C79.2965 96.8421 77.0106 96.8421 74.4707 96.8421V75.5283ZM78.4075 93.6461C79.7198 93.6461 80.3759 93.6461 81.54 93.6461C84.1222 93.6461 85.3922 92.6302 85.3922 88.9473C85.3922 85.7513 84.2704 84.693 82.0057 84.693C80.6934 84.693 79.6775 84.693 78.3652 84.693V93.6461H78.4075Z" fill="#EF7D00"/>
<path d="M91.1074 88.9899C91.1074 82.9153 93.732 81.0527 99.0022 81.0527C104.272 81.0527 106.897 83.0211 106.897 88.9899C106.897 94.7046 104.272 96.927 99.0022 96.927C93.7955 96.927 91.1074 94.8104 91.1074 88.9899ZM99.0022 93.8368C101.627 93.8368 102.96 92.9267 102.96 88.9264C102.96 84.9684 101.648 84.1641 99.0022 84.1641C96.3777 84.1641 95.0442 84.9684 95.0442 88.9264C95.0654 92.9267 96.3777 93.8368 99.0022 93.8368Z" fill="#EF7D00"/>
<path d="M109.648 96.8211V81.1797H112.675L113.183 83.1481C115.046 81.8358 116.972 81.1797 118.898 81.1797C122.496 81.1797 124.316 83.1058 124.316 87.0002V96.8211H120.358V86.9579C120.358 85.2435 119.49 84.3757 117.776 84.3757C116.4 84.3757 114.982 85.0318 113.585 86.3441V96.8211H109.648Z" fill="#EF7D00"/>
<path d="M131.956 75.5283V78.6608H127.998V75.5283H131.956ZM131.956 81.2007V96.8421H127.998V81.2007H131.956Z" fill="#EF7D00"/>
<path d="M29.4086 96.8207C29.4086 96.8207 28.1387 96.3551 28.1387 94.9582C28.1387 93.4977 29.4086 93.2437 29.4086 93.2437C29.4086 93.2437 32.8586 93.2437 33.2608 93.2014C33.6629 93.1591 33.9592 92.9474 34.319 92.7358C34.6154 92.5241 34.827 92.2278 34.9328 91.868C35.0387 91.4658 35.081 90.9579 35.081 90.3017V81.2852C35.081 81.2852 36.9436 81.2852 37.3669 81.2852C38.4252 81.2852 38.9966 82.0471 38.9966 82.8514C38.9966 83.6557 38.9966 84.2272 38.9966 84.8833V91.868C38.9966 91.9738 38.9966 92.122 38.9966 92.2701C38.9966 92.4818 38.9543 92.7358 38.8908 93.0321C38.8485 93.3284 38.7427 93.6882 38.6368 93.9845C38.531 94.2809 38.3405 94.6407 38.0865 95.0005C37.8325 95.3603 37.5362 95.6566 37.2187 95.9106C36.8589 96.1646 36.4144 96.3763 35.9065 96.5668C35.3562 96.7149 34.7424 96.8207 34.0862 96.8207C32.8586 96.8207 29.8108 96.8207 29.4086 96.8207Z" fill="#706F6F"/>
<path d="M31.8849 81.2852C31.8849 81.2852 33.1549 81.7508 33.1549 83.1477C33.1549 84.6082 31.8849 84.8621 31.8849 84.8621C31.8849 84.8621 28.4349 84.8622 28.0328 84.9045C27.6306 84.9468 27.3343 85.1585 26.9745 85.3701C26.6782 85.5818 26.4665 85.8781 26.3607 86.2379C26.2549 86.6401 26.2125 87.148 26.2125 87.8042V96.8207C26.2125 96.8207 24.3499 96.8207 23.9266 96.8207C22.8683 96.8207 22.2969 96.0588 22.2969 95.2545C22.2969 94.4502 22.2969 93.8787 22.2969 93.2226V86.2379C22.2969 86.1321 22.2969 85.9839 22.2969 85.8358C22.2969 85.6241 22.3392 85.3701 22.4027 85.0738C22.4662 84.7775 22.5509 84.4177 22.6567 84.1214C22.7625 83.825 22.953 83.4652 23.207 83.1054C23.461 82.7456 23.7573 82.4493 24.0748 82.1953C24.4346 81.9413 24.8791 81.7296 25.3871 81.5391C25.9374 81.391 26.5512 81.2852 27.2073 81.2852C28.4561 81.2852 31.5463 81.2852 31.8849 81.2852Z" fill="#9D9C9C"/>
<path d="M32.1399 91.5717H29.2191C28.6688 91.5717 28.2031 91.1061 28.2031 90.5558V87.7196C28.2031 87.1693 28.6688 86.7036 29.2191 86.7036H32.1611C32.7114 86.7036 33.1771 87.1693 33.1771 87.7196V90.5558C33.1559 91.1061 32.7114 91.5717 32.1399 91.5717Z" fill="#EF7D00"/>
</svg>
