<svg width="174" height="174" viewBox="0 0 174 174" fill="none" xmlns="http://www.w3.org/2000/svg">
<path d="M143 56H32V118H143V56Z" fill="#1D1D1B"/>
<path d="M100.757 81.3407C101.111 84.9963 103.736 87.8848 107.499 87.8891C109.066 87.9098 110.59 87.3708 111.801 86.3677C111.859 86.8083 112.077 87.2115 112.413 87.4999C112.749 87.7883 113.179 87.9413 113.62 87.9296C114.061 87.9179 114.482 87.7423 114.803 87.4365C115.123 87.1307 115.32 86.7164 115.355 86.2734H115.389V74.9465H115.363C115.361 74.5047 115.197 74.0792 114.903 73.7507C114.61 73.4223 114.207 73.2137 113.771 73.1645C113.335 73.1154 112.896 73.2291 112.538 73.4841C112.179 73.7391 111.926 74.1177 111.827 74.548C110.615 73.5258 109.079 72.974 107.499 72.9923C103.668 72.9923 101.115 75.8937 100.757 79.6264V69.9967C100.757 69.4625 100.547 68.9501 100.171 68.5724C99.7963 68.1946 99.2876 67.9824 98.7571 67.9824C98.2266 67.9824 97.7178 68.1946 97.3427 68.5724C96.9676 68.9501 96.7569 69.4625 96.7569 69.9967V76.7551C96.5696 76.423 96.3546 76.1076 96.1142 75.8122C95.4732 75.0196 94.6585 74.3873 93.734 73.965C92.8095 73.5426 91.8005 73.3417 90.786 73.378C88.9324 73.3742 87.1442 74.0681 85.7726 75.3237C85.7912 75.2233 85.8011 75.1215 85.8024 75.0194C85.8013 74.5412 85.6122 74.083 85.2764 73.7449C84.9406 73.4067 84.4856 73.2163 84.0107 73.2152H83.8618H83.2915V70.5152H83.2659C83.2778 70.2712 83.2402 70.0272 83.1556 69.7982C83.071 69.5692 82.9411 69.3599 82.7738 69.183C82.6065 69.0061 82.4052 68.8652 82.1822 68.7689C81.9591 68.6727 81.719 68.6231 81.4764 68.6231C81.2337 68.6231 80.9936 68.6727 80.7706 68.7689C80.5476 68.8652 80.3463 69.0061 80.179 69.183C80.0116 69.3599 79.8817 69.5692 79.7971 69.7982C79.7125 70.0272 79.675 70.2712 79.6868 70.5152H79.6528V73.2152H76.2141V70.5152C76.2141 70.0367 76.0253 69.5778 75.6893 69.2394C75.3533 68.9011 74.8976 68.711 74.4224 68.711C73.9472 68.711 73.4915 68.9011 73.1555 69.2394C72.8194 69.5778 72.6307 70.0367 72.6307 70.5152H72.5966V73.2152H69.9155C69.5283 73.221 69.1535 73.3527 68.8467 73.5905C68.5399 73.8284 68.3177 74.1597 68.2132 74.5351C67.0064 73.5197 65.4787 72.9725 63.9063 72.9923C59.7654 72.9923 57.1097 76.2965 57.1097 80.4964C57.1048 81.4165 57.2485 82.3313 57.5353 83.2049C57.4787 83.1234 57.4146 83.0473 57.3438 82.9778C57.1544 82.7861 56.9292 82.6341 56.6813 82.5303C56.4333 82.4265 56.1675 82.3731 55.899 82.3731C55.6305 82.3731 55.3646 82.4265 55.1166 82.5303C54.8687 82.6341 54.6435 82.7861 54.4541 82.9778L54.369 83.0506C53.9141 83.4701 53.3505 83.7512 52.7434 83.8613C52.1364 83.9714 51.5108 83.9061 50.9391 83.6729C50.3674 83.4397 49.8731 83.0482 49.5133 82.5436C49.1535 82.0391 48.943 81.4423 48.9063 80.8222C48.8695 80.2022 49.0079 79.5844 49.3055 79.0404C49.6031 78.4963 50.0477 78.0483 50.5878 77.7482C51.1278 77.4482 51.7413 77.3084 52.357 77.345C52.9728 77.3816 53.5656 77.5931 54.0668 77.955L54.169 78.0408C54.3621 78.2352 54.5913 78.3894 54.8436 78.4947C55.0959 78.5999 55.3663 78.6541 55.6394 78.6541C55.9124 78.6541 56.1828 78.5999 56.4351 78.4947C56.6874 78.3894 56.9167 78.2352 57.1097 78.0408C57.3028 77.8463 57.456 77.6155 57.5605 77.3614C57.665 77.1074 57.7188 76.8351 57.7188 76.5601C57.7188 76.2851 57.665 76.0128 57.5605 75.7587C57.456 75.5047 57.3028 75.2738 57.1097 75.0794L57.0544 75.028C55.9737 74.0646 54.6374 73.4395 53.2093 73.2291C51.7812 73.0188 50.3231 73.2323 49.0136 73.8435C47.7041 74.4548 46.6 75.4373 45.8365 76.6707C45.073 77.9041 44.6831 79.3349 44.7147 80.788C44.7462 82.2411 45.1978 83.6534 46.0142 84.852C46.8306 86.0506 47.9763 86.9835 49.3111 87.5365C50.6458 88.0895 52.1118 88.2386 53.5294 87.9656C54.947 87.6925 56.2549 87.0092 57.2927 85.9991L57.3608 85.9049C57.5758 85.6694 57.7364 85.389 57.8313 85.0838C57.9262 84.7786 57.953 84.4561 57.9098 84.1392C58.4402 85.2762 59.2836 86.236 60.3398 86.9046C61.396 87.5731 62.6205 87.9222 63.868 87.9105C65.4572 87.9316 67.001 87.3764 68.2174 86.3463C68.3038 86.786 68.5495 87.1775 68.9068 87.4447C69.2642 87.7119 69.7074 87.8357 70.1504 87.7918C70.5933 87.748 71.0042 87.5397 71.303 87.2075C71.6018 86.8753 71.7671 86.443 71.7668 85.9949C71.7668 85.9263 71.7668 85.8534 71.7668 85.7892V76.8236H72.5583V85.9006H72.5966C72.5966 85.9006 72.5966 85.9477 72.5966 85.9734C72.598 86.3954 72.7461 86.8036 73.0154 87.1269C73.2846 87.4503 73.6579 87.6684 74.0703 87.7433C74.4827 87.8182 74.9081 87.7452 75.2726 87.5369C75.637 87.3287 75.9175 86.9983 76.0651 86.6034V89.0419H73.3244C72.8656 89.065 72.4331 89.2647 72.1163 89.5996C71.7995 89.9346 71.6226 90.3793 71.6221 90.8419H71.5795V102.173H71.6178C71.6178 102.65 71.8061 103.108 72.1413 103.446C72.4765 103.783 72.9312 103.973 73.4052 103.973C73.8793 103.973 74.3339 103.783 74.6691 103.446C75.0044 103.108 75.1927 102.65 75.1927 102.173H75.2225V93.0661H76.0736V102.327H76.1204C76.1765 102.762 76.3877 103.161 76.7146 103.451C77.0416 103.74 77.462 103.899 77.8972 103.899C78.3325 103.899 78.7529 103.74 79.0798 103.451C79.4068 103.161 79.618 102.762 79.674 102.327H79.7123V93.0747H81.0827C81.5522 93.0688 82.0046 92.8958 82.3595 92.5861C81.7447 93.8028 81.4308 95.151 81.4445 96.5161C81.4445 100.557 84.1682 103.9 88.2537 103.909C89.8505 103.926 91.4002 103.365 92.6202 102.327H92.65C92.6879 102.778 92.8924 103.198 93.223 103.504C93.5536 103.81 93.9863 103.979 94.4353 103.979C94.8843 103.979 95.317 103.81 95.6476 103.504C95.9783 103.198 96.1828 102.778 96.2206 102.327H96.2632V91.0005H96.2376C96.2369 90.5526 96.0709 90.1211 95.7717 89.7897C95.4726 89.4584 95.0618 89.2509 94.6192 89.2076C94.1765 89.1643 93.7337 89.2883 93.3769 89.5555C93.02 89.8227 92.7746 90.214 92.6883 90.6533C91.4626 89.5655 89.8789 88.9759 88.2452 88.9991C87.2313 88.9775 86.2268 89.1994 85.315 89.6466C84.4032 90.0938 83.6104 90.7533 83.0021 91.5704C83.0473 91.4028 83.0702 91.2299 83.0702 91.0562C83.0691 90.5223 82.858 90.0106 82.4831 89.6331C82.1082 89.2556 81.6001 89.0431 81.07 89.0419H79.6996V86.3034C79.7855 86.7414 80.0295 87.1318 80.3846 87.399C80.7397 87.6663 81.1806 87.7915 81.6221 87.7505C82.0635 87.7095 82.4742 87.5051 82.7747 87.1768C83.0751 86.8486 83.2441 86.4198 83.2489 85.9734V85.9006H83.2745V76.8236H83.8447C83.8943 76.8279 83.9441 76.8279 83.9937 76.8236C84.1818 76.8246 84.3687 76.7942 84.5469 76.7336C83.5324 78.2606 83.1072 80.1084 83.3515 81.9291C83.5957 83.7497 84.4926 85.4177 85.8731 86.6188C87.2537 87.8199 89.0227 88.4713 90.847 88.4503C92.6713 88.4293 94.4251 87.7374 95.778 86.5049L95.8759 86.4234C96.2517 86.0449 96.4628 85.5316 96.4628 84.9963C96.4628 84.4611 96.2517 83.9477 95.8759 83.5692C95.4822 83.2048 94.9707 82.9966 94.4361 82.9832C93.9016 82.9698 93.3804 83.1521 92.9692 83.4964C92.6895 83.7561 92.3607 83.9564 92.0024 84.0852C91.6441 84.2141 91.2636 84.2689 90.8838 84.2463C89.9135 84.1735 89.3943 83.9121 89.0964 83.4964L96.0291 80.4278C96.3004 80.297 96.5434 80.1135 96.7441 79.8879V101.856C96.7441 101.882 96.7441 101.907 96.7441 101.933C96.7678 102.452 96.9892 102.941 97.3621 103.3C97.735 103.659 98.2308 103.859 98.7465 103.859C99.2621 103.859 99.7579 103.659 100.131 103.3C100.504 102.941 100.725 102.452 100.749 101.933C100.749 101.907 100.749 101.882 100.749 101.856L100.757 81.3407ZM108.179 77.2351C108.82 77.2359 109.446 77.4279 109.978 77.7868C110.51 78.1457 110.924 78.6553 111.169 79.2513C111.413 79.8473 111.477 80.5029 111.351 81.1353C111.226 81.7677 110.917 82.3484 110.464 82.8041C110.011 83.2597 109.434 83.5699 108.805 83.6954C108.177 83.8209 107.526 83.7561 106.935 83.5091C106.343 83.2621 105.838 82.8441 105.482 82.3079C105.126 81.7717 104.937 81.1413 104.937 80.4964C104.937 80.0678 105.02 79.6433 105.183 79.2474C105.346 78.8514 105.585 78.4917 105.887 78.1888C106.188 77.8859 106.545 77.6457 106.939 77.4821C107.332 77.3184 107.754 77.2345 108.179 77.2351ZM64.5532 83.7578C63.9126 83.7578 63.2864 83.5665 62.7538 83.2081C62.2213 82.8498 61.8061 82.3404 61.561 81.7445C61.3159 81.1486 61.2518 80.4928 61.3767 79.8602C61.5017 79.2275 61.8101 78.6464 62.2631 78.1903C62.716 77.7342 63.2931 77.4236 63.9213 77.2977C64.5496 77.1719 65.2008 77.2365 65.7925 77.4833C66.3843 77.7302 66.8901 78.1482 67.246 78.6845C67.6019 79.2208 67.7918 79.8514 67.7918 80.4964C67.7924 80.9249 67.709 81.3492 67.5464 81.7452C67.3839 82.1411 67.1453 82.5008 66.8445 82.8038C66.5436 83.1068 66.1864 83.347 65.7932 83.5107C65.4 83.6744 64.9786 83.7583 64.5532 83.7578ZM88.9134 93.2504C89.5538 93.2504 90.1798 93.4416 90.7123 93.7998C91.2448 94.1579 91.6599 94.667 91.9051 95.2627C92.1504 95.8584 92.2148 96.5139 92.0902 97.1464C91.9655 97.779 91.6575 98.3601 91.205 98.8164C90.7525 99.2727 90.1758 99.5836 89.5478 99.7099C88.9199 99.8363 88.2688 99.7723 87.677 99.5261C87.0851 99.2799 86.579 98.8626 86.2226 98.3268C85.8662 97.791 85.6756 97.1609 85.6747 96.5161C85.6747 95.6507 86.0158 94.8207 86.6231 94.2084C87.2303 93.5961 88.0541 93.2515 88.9134 93.2504ZM79.64 85.5363C79.5579 85.1528 79.354 84.8068 79.0591 84.5505C78.7643 84.2942 78.3945 84.1416 78.0058 84.116C77.6171 84.0903 77.2307 84.1929 76.9051 84.4082C76.5794 84.6235 76.3324 84.9398 76.2013 85.3092V76.8236H79.64V85.5363ZM87.7516 80.3121C87.8381 79.8413 88.0263 79.3954 88.3028 79.0059C88.5793 78.6164 88.9374 78.2928 89.3517 78.0579C90.2455 77.6293 91.6244 77.4579 92.5181 78.3236L87.7516 80.3121Z" fill="white"/>
<path d="M128.73 79.5237C128.743 78.6787 128.589 77.8394 128.276 77.055C127.964 76.2706 127.499 75.5568 126.91 74.9552C126.32 74.3536 125.618 73.8762 124.843 73.551C124.068 73.2258 123.237 73.0592 122.398 73.061C121.555 73.065 120.721 73.2362 119.944 73.5649C119.166 73.8937 118.461 74.3735 117.868 74.9769C117.275 75.5803 116.806 76.2955 116.488 77.0816C116.17 77.8676 116.009 78.7092 116.014 79.558V85.8793C116.009 86.1453 116.058 86.4095 116.157 86.6562C116.256 86.9029 116.403 87.1271 116.589 87.3154C116.776 87.5037 116.998 87.6523 117.243 87.7524C117.488 87.8524 117.75 87.9019 118.014 87.8978C118.546 87.8978 119.056 87.6852 119.432 87.3066C119.807 86.9281 120.019 86.4147 120.019 85.8793V79.6909C120.019 79.0544 120.27 78.4439 120.717 77.9939C121.164 77.5438 121.77 77.2909 122.402 77.2909C123.034 77.2909 123.64 77.5438 124.087 77.9939C124.534 78.4439 124.785 79.0544 124.785 79.6909V85.8793C124.785 86.4135 124.996 86.9259 125.371 87.3036C125.746 87.6813 126.255 87.8935 126.785 87.8935C127.316 87.8935 127.825 87.6813 128.2 87.3036C128.575 86.9259 128.786 86.4135 128.786 85.8793L128.73 79.5237Z" fill="white"/>
<path d="M119.93 91.1122C119.929 90.6354 119.76 90.1745 119.453 89.8115C119.146 89.4485 118.721 89.2069 118.254 89.1298C117.786 89.0526 117.307 89.1449 116.901 89.3902C116.495 89.6355 116.188 90.0179 116.036 90.4693C114.841 89.5033 113.351 88.9839 111.819 88.9994C107.703 88.9994 105.039 92.3593 105.039 96.5078C105.039 100.549 107.763 103.892 111.819 103.9C113.363 103.92 114.867 103.401 116.074 102.43C116.204 102.901 116.498 103.308 116.902 103.576C117.307 103.844 117.795 103.956 118.275 103.889C118.755 103.823 119.195 103.583 119.512 103.215C119.83 102.846 120.004 102.374 120.002 101.886C120.002 101.73 119.982 101.574 119.943 101.423L119.93 91.1122ZM112.491 99.7734C111.85 99.7734 111.224 99.582 110.691 99.2235C110.159 98.8649 109.743 98.3553 109.498 97.7591C109.253 97.1629 109.19 96.507 109.315 95.8742C109.44 95.2415 109.749 94.6603 110.202 94.2044C110.656 93.7485 111.233 93.4382 111.862 93.3128C112.49 93.1875 113.142 93.2527 113.733 93.5002C114.325 93.7477 114.831 94.1664 115.186 94.7033C115.541 95.2401 115.73 95.8711 115.73 96.5163C115.73 96.9444 115.646 97.3683 115.483 97.7637C115.32 98.1592 115.082 98.5184 114.781 98.8209C114.48 99.1234 114.123 99.3633 113.73 99.5267C113.337 99.6901 112.916 99.774 112.491 99.7734Z" fill="white"/>
<path d="M103.216 89.1963C102.981 89.1957 102.748 89.242 102.53 89.3325C102.312 89.423 102.115 89.5558 101.948 89.7235C101.782 89.8911 101.65 90.0903 101.56 90.3094C101.47 90.5286 101.424 90.7634 101.425 91.0005H101.391V102.327H101.433C101.464 102.782 101.666 103.208 101.997 103.519C102.328 103.83 102.764 104.003 103.216 104.003C103.669 104.003 104.105 103.83 104.436 103.519C104.767 103.208 104.968 102.782 105 102.327H105.034V91.0005H105.008C105.008 90.522 104.819 90.0631 104.483 89.7247C104.147 89.3864 103.692 89.1963 103.216 89.1963Z" fill="white"/>
</svg>
