<svg width="174" height="174" viewBox="0 0 174 174" fill="none" xmlns="http://www.w3.org/2000/svg">
<path d="M54.2196 78.2242C54.2057 78.2506 54.1642 79.1473 54.1088 80.2418L54.0257 82.2198L53.3334 82.2858L52.6411 82.3517V84.9891L53.3334 85.055L54.0257 85.1209L54.1227 87.8506C54.2196 90.7121 54.2888 91.0418 54.9673 91.7539C55.6042 92.4132 56.3657 92.611 58.3042 92.5978C60.4504 92.5978 60.4642 92.5978 60.4642 91.1737C60.4642 89.8286 60.4365 89.8022 59.5088 89.8022C59.0796 89.8022 58.6504 89.7495 58.5534 89.6967C58.235 89.4989 58.1104 88.7077 58.1104 86.9407C58.1104 84.9363 57.9996 85.0814 59.5642 85.0286L60.395 84.9891V82.3517L59.4257 82.3121C58.8996 82.2858 58.3873 82.2066 58.2904 82.1275C58.1657 82.0352 58.1104 81.5341 58.1104 80.3869C58.1104 78 58.2765 78.1978 56.0888 78.1978C55.0642 78.1978 54.2196 78.211 54.2196 78.2242ZM89.7488 78.7517C89.7073 79.0682 89.6796 79.7011 89.7073 80.1759L89.7488 81.033L91.7288 81.0726L93.695 81.1121V78.1978H89.8319L89.7488 78.7517ZM110.338 85.2132L110.38 92.2418L112.083 92.2814C113.093 92.2945 113.883 92.255 114.049 92.1759C114.326 92.044 114.326 91.8858 114.326 85.5297C114.326 81.9561 114.284 78.8308 114.243 78.6066L114.16 78.1978H110.31L110.338 85.2132ZM143.984 79.6088L144.026 81.033L145.881 81.0726C147.127 81.0989 147.792 81.0594 147.916 80.9539C148.124 80.7956 148.18 79.5956 148.027 78.6858L147.93 78.1978H143.943L143.984 79.6088ZM29.795 82.1407C27.8704 82.5627 27.1365 83.1033 26.7211 84.422C26.5688 84.8836 26.4719 85.2924 26.4996 85.3451C26.5273 85.411 27.3857 85.4506 28.4104 85.4506H30.2657L30.5565 85.055C30.958 84.5143 31.5257 84.2638 32.3288 84.2638C33.395 84.2638 34.1704 85.0286 33.6027 85.5165C33.3534 85.7275 32.3011 86.0572 31.2488 86.2418C29.7119 86.5055 28.9365 86.677 28.5073 86.8484C28.258 86.9539 27.9673 87.033 27.8565 87.033C27.7457 87.033 27.3857 87.2836 27.0396 87.5869C25.8211 88.7209 25.8627 90.5275 27.1504 91.6088C27.7734 92.1231 29.0888 92.5715 30.0027 92.5715C30.7642 92.5715 32.398 92.1363 33.0765 91.7671C33.7688 91.3715 33.8796 91.3978 33.8796 91.8726C33.8796 92.0308 33.9627 92.1759 34.0596 92.1759C35.6242 92.2286 37.5488 92.1627 37.6457 92.0704C37.7288 91.9913 37.7704 90.4748 37.7288 88.2066C37.6873 84.7649 37.6596 84.422 37.4104 84C36.5242 82.4967 35.5273 82.088 32.495 81.9693C31.2488 81.9165 30.6673 81.9561 29.795 82.1407ZM33.7965 87.3759C33.838 87.4945 33.8796 87.9956 33.8796 88.4967C33.8796 89.3011 33.838 89.4462 33.5057 89.8022C32.758 90.5934 31.2765 90.4616 30.9719 89.5913C30.8057 89.1297 30.8888 88.4176 31.138 88.1143C31.3319 87.8902 32.4673 87.4286 32.8273 87.4286C32.9796 87.4286 33.215 87.3627 33.3257 87.2967C33.6165 87.1253 33.6996 87.1385 33.7965 87.3759ZM46.2857 82.2198C45.9119 82.3253 45.2611 82.655 44.818 82.9978C44.375 83.3143 43.9734 83.5517 43.9319 83.5121C43.8904 83.4594 43.8488 83.1693 43.8488 82.8528V82.2726L42.0211 82.3121L40.1796 82.3517V92.2418L42.035 92.2814C43.2811 92.3077 43.9457 92.2682 44.0704 92.1627C44.2227 92.044 44.2642 91.4242 44.2642 89.0902C44.2642 86.5451 44.2919 86.1231 44.4996 85.8462C45.1642 84.9363 46.0227 84.7913 46.7011 85.4638L47.1027 85.8594L47.1719 89.0506L47.2411 92.2418L49.0965 92.2814C50.3427 92.3077 51.0073 92.2682 51.1319 92.1627C51.2842 92.044 51.3257 91.3583 51.3257 88.6154C51.3257 85.5429 51.298 85.1341 51.035 84.3297C50.4257 82.4308 48.598 81.6264 46.2857 82.2198ZM66.418 82.2198C65.4073 82.4308 64.9504 82.6418 64.2027 83.1956C63.4688 83.7495 63.178 84.0528 62.8596 84.5935C62.3611 85.4374 62.1257 86.2945 62.1257 87.2967C62.1257 90.4088 64.6042 92.5715 68.1488 92.5715C69.9488 92.5715 71.6242 91.9781 72.635 90.9759C73.715 89.9341 74.1719 88.8264 74.1719 87.3231C74.1719 85.7011 73.6319 84.4088 72.5657 83.4462C71.2504 82.2594 68.6196 81.7319 66.418 82.2198ZM68.9934 84.9363C69.8104 85.411 70.018 85.8989 70.018 87.3363C70.018 88.5627 70.0042 88.6154 69.5611 89.1693C69.215 89.5913 68.9796 89.7495 68.6334 89.8022C67.7057 89.9341 67.2211 89.7759 66.7365 89.1693C66.2934 88.6154 66.2796 88.5627 66.2796 87.3231C66.2796 85.8858 66.4457 85.4902 67.2765 84.9627C67.858 84.5935 68.4119 84.5803 68.9934 84.9363ZM82.2719 82.2198C81.4827 82.4572 81.0119 82.7209 80.6104 83.1429C80.1811 83.5781 79.8211 83.4989 79.8488 82.9847C79.9042 82.2462 79.9734 82.2726 78.0211 82.3121L76.1796 82.3517L76.138 87.1517C76.1104 90.5803 76.1519 92.0044 76.2627 92.1231C76.4704 92.3737 79.7104 92.3869 79.9596 92.1495C80.0704 92.044 80.1257 91.266 80.1257 89.4989C80.1257 86.6242 80.2504 85.9385 80.8596 85.411C81.6627 84.7385 82.618 85.0154 83.0196 86.0176C83.1165 86.2418 83.1719 87.5341 83.1719 89.1956C83.1719 91.1869 83.2134 92.0308 83.338 92.1495C83.5319 92.3341 86.7304 92.3737 87.0211 92.1891C87.1734 92.0967 87.2011 91.3319 87.1596 88.1407C87.1042 84.422 87.0765 84.1715 86.7996 83.6836C86.6473 83.4066 86.315 83.011 86.0657 82.8C85.2488 82.1011 83.5042 81.8374 82.2719 82.2198ZM100.064 82.2198C99.178 82.4044 98.0842 82.9319 97.5304 83.4462C96.5334 84.3561 95.7719 86.0176 95.7719 87.2967C95.7719 89.1033 96.9488 90.9627 98.6657 91.8989C100.313 92.7825 103.29 92.7561 105.146 91.8594C105.99 91.4374 106.918 90.5143 107.375 89.6176C107.79 88.8 107.818 88.6682 107.818 87.2967C107.818 85.9517 107.79 85.7803 107.389 84.9891C107.153 84.5143 106.738 83.9077 106.461 83.6176C105.173 82.3121 102.432 81.7187 100.064 82.2198ZM102.667 84.9099C103.512 85.3319 103.733 85.833 103.733 87.3627C103.733 88.4572 103.692 88.7341 103.457 89.0242C102.986 89.6176 102.598 89.8154 101.864 89.8286C100.59 89.8286 99.9257 88.9847 99.9257 87.3495C99.9257 86.1363 100.175 85.5693 100.937 85.0418C101.587 84.5935 101.961 84.5671 102.667 84.9099ZM136.258 82.2066C135.953 82.2858 135.344 82.6022 134.929 82.9055C134.292 83.3671 134.14 83.4198 134.07 83.2484C134.015 83.1297 134.015 82.9451 134.057 82.8264C134.209 82.3385 133.96 82.2726 132.104 82.3121L130.318 82.3517L130.277 89.1693L130.249 96H134.403V93.8506C134.403 92.6638 134.444 91.6484 134.5 91.6088C134.541 91.5561 134.777 91.6616 135.012 91.833C135.69 92.3077 136.784 92.5978 137.698 92.5319C138.723 92.466 139.401 92.2022 140.163 91.5956C141.367 90.633 141.88 89.3803 141.88 87.4154C141.88 85.5165 141.353 84.1451 140.218 83.0638C139.235 82.1275 137.767 81.811 136.258 82.2066ZM136.798 85.0418C136.978 85.1077 137.283 85.3847 137.449 85.6484C137.878 86.3209 137.892 88.2594 137.463 88.9187C136.84 89.8814 135.483 89.8022 134.749 88.7869C134.264 88.1011 134.25 86.5715 134.721 85.7803C135.178 85.0022 135.94 84.7385 136.798 85.0418ZM89.7765 82.3781C89.7211 82.4176 89.6796 84.6198 89.6796 87.244C89.6796 91.8989 89.6934 92.044 89.9565 92.1759C90.1227 92.255 90.9119 92.2945 91.9227 92.2814L93.6257 92.2418L93.6673 87.2572L93.695 82.2858H91.7842C90.7319 82.2858 89.818 82.3253 89.7765 82.3781ZM116.873 82.4704C116.832 82.5759 116.818 84.4088 116.846 86.5451L116.887 90.4088L117.275 90.9759C117.483 91.2792 117.815 91.6616 118.009 91.8198C118.881 92.5451 120.584 92.7825 121.803 92.3473C122.426 92.1231 123.437 91.477 123.644 91.1605C123.824 90.8836 124.018 91.0945 124.018 91.5693C124.018 91.7934 124.087 92.0572 124.184 92.1495C124.433 92.3869 127.535 92.3605 127.743 92.1231C127.853 92.0044 127.895 90.5803 127.867 87.1517L127.826 82.3517H123.949L123.866 85.1869C123.824 86.7429 123.713 88.2198 123.63 88.4572C123.381 89.1693 122.966 89.4198 122.163 89.3803C121.609 89.3539 121.429 89.2748 121.193 88.9715C120.917 88.6286 120.903 88.3913 120.833 85.477L120.764 82.3517L118.853 82.3121C117.275 82.2858 116.943 82.3121 116.873 82.4704ZM143.984 87.2572L144.026 92.2418L145.798 92.2814C146.864 92.2945 147.667 92.255 147.833 92.1759C148.11 92.0308 148.11 91.9121 148.083 87.1913L148.041 82.3517L145.992 82.3121L143.957 82.2726L143.984 87.2572Z" fill="black"/>
</svg>
