<svg width="174" height="174" viewBox="0 0 174 174" fill="none" xmlns="http://www.w3.org/2000/svg">
<path d="M108.312 107.261H112.479V108.672H112.532C113.383 107.519 114.667 106.906 116.21 106.906C120.406 106.906 122.178 110.201 122.178 113.638C122.178 116.814 120.326 119.829 116.546 119.829C114.898 119.829 113.638 119.264 112.738 118.157H112.685V123.57H108.312V107.261ZM112.531 113.238C112.531 115.38 113.201 116.767 115.179 116.767C117.135 116.767 117.804 114.911 117.804 113.238C117.804 111.684 117.135 109.968 115.207 109.968C114.024 109.968 112.531 110.718 112.531 113.238ZM104.097 119.475H99.8515V117.806H99.798C98.9734 119.049 97.2761 119.829 95.733 119.829C91.9007 119.829 90.7945 117.806 90.7945 114.605V107.261H95.1679V114.346C95.1679 115.968 95.9381 116.533 97.3287 116.533C98.2817 116.533 99.7213 115.968 99.7213 113.804V107.261H104.095V119.475H104.097ZM80.1997 106.906C84.3413 106.906 87.2465 109.709 87.2465 113.379C87.2465 117.049 84.3413 119.828 80.1997 119.828C76.0581 119.828 73.1761 117.049 73.1761 113.379C73.1761 109.709 76.0581 106.906 80.1997 106.906ZM80.1997 116.767C82.2313 116.767 82.8749 114.934 82.8749 113.379C82.8749 111.826 82.2313 109.968 80.1997 109.968C78.1672 109.968 77.5495 111.826 77.5495 113.379C77.5495 114.934 78.1672 116.767 80.1997 116.767ZM62.1873 107.261H66.4315V109.403H66.4849C67.1277 107.848 68.6199 107.025 70.4964 107.025C70.8316 107.025 71.1917 107.043 71.526 107.124V110.771C70.96 110.632 70.4465 110.536 69.8537 110.536C67.6928 110.536 66.5616 111.9 66.5616 113.434V119.48H62.1882V107.266L62.1873 107.261ZM57.9441 117.992C57.9441 119.99 57.534 123.759 51.2806 123.759C48.1694 123.759 45.2366 123.122 44.7223 119.851H49.0948C49.1955 120.394 49.429 120.722 49.8391 120.911C50.2269 121.097 50.768 121.17 51.4348 121.17C53.519 121.17 53.7258 119.829 53.7258 118.321V117.171H53.6723C52.8745 118.298 51.5373 118.958 50.1217 118.958C46.0826 118.958 44.2578 116.32 44.2578 112.884C44.2578 109.637 46.3411 106.906 50.1217 106.906C51.7174 106.906 52.9271 107.542 53.6981 108.788H53.7516V107.261H57.9441V117.992ZM51.1789 109.968C49.249 109.968 48.6312 111.52 48.6312 113.026C48.6312 114.46 49.3515 115.896 51.1522 115.896C53.0046 115.896 53.8033 114.579 53.8033 113.049C53.8033 111.497 53.133 109.968 51.1789 109.968Z" fill="#B6B5B5"/>
<path d="M116.207 58.2272V53.7434H118.745V53.6993C116.777 53.0114 115.846 51.8018 115.846 49.8813C115.846 49.6685 115.89 49.4557 115.908 49.2411H120.891C120.838 49.5722 120.745 49.9299 120.745 50.261C120.745 52.2777 121.7 53.2966 124.408 53.2966H128.743V58.2298H116.199L116.207 58.2272ZM119.542 69.222C120.928 69.7597 122.261 69.0568 122.738 67.841C123.031 67.1125 122.96 66.3179 122.4 65.7201L124.136 61.3273C126.721 63.2478 126.522 66.5298 125.457 69.2264C123.991 72.9349 120.713 74.9754 116.789 73.4514C112.958 71.9645 111.636 68.165 113.097 64.4565C114.792 60.1715 118.803 58.749 123.013 60.4576L119.542 69.222ZM118.833 64.1316C117.76 63.7175 116.428 64.295 115.997 65.3766C115.455 66.7461 115.926 67.8224 117.179 68.3081L118.833 64.1316ZM116.619 82.2114L115.369 81.1103C115.74 82.9875 115.404 84.1142 114.337 85.3036C111.828 88.1097 108.423 87.662 105.774 85.3389C102.653 82.6034 102.167 79.1051 104.152 76.8853C105.196 75.7127 106.215 75.1494 107.841 75.1856L103.377 71.2713L106.678 67.5779L119.59 78.8905L116.619 82.2132V82.2114ZM111.794 78.4208C110.752 77.5096 109.303 76.8738 108.207 78.1003C107.111 79.3241 107.997 80.6997 109.04 81.6127C110.03 82.4754 111.391 83.233 112.474 82.0277C113.615 80.7474 112.888 79.3797 111.794 78.4208ZM88.4116 87.2373L92.4053 85.0766L93.3458 86.7825C93.6105 84.938 94.2916 83.6498 95.9505 82.7527C98.8486 81.1845 101.144 82.1275 102.799 85.127L106.402 91.661L102.035 94.0256L98.8531 88.2598C98.2576 87.1799 97.4339 86.3817 96.1939 87.0536C94.8496 87.7785 94.9637 88.8249 95.733 90.2217L98.7978 95.7774L94.4271 98.1429L88.4116 87.2373ZM73.3963 84.0303L78.3473 83.4935L79.0293 89.6708C79.8904 88.3119 80.9369 87.5287 82.6039 87.3494C85.8871 86.9918 87.645 88.7322 88.0203 92.129L88.8395 99.53L83.8903 100.069L83.1673 93.5382C83.0318 92.3117 82.5781 91.2645 81.1741 91.4155C79.6506 91.5815 79.3529 92.5934 79.5285 94.173L80.2238 100.465L75.2745 101.003L73.3963 84.0303ZM62.6687 95.9443C62.6687 97.4144 63.8169 98.3892 65.1362 98.3892C65.926 98.3892 66.6409 98.0299 67.0011 97.297H71.7658C70.9038 100.38 67.7445 101.4 64.8224 101.4C60.8002 101.4 57.6882 99.123 57.6882 94.9509C57.6882 90.869 60.7744 88.2633 64.7983 88.2633C69.4418 88.2633 72.2454 91.4385 72.1714 95.9443H62.6687ZM67.1918 93.4322C67.1918 92.2932 66.164 91.2734 64.9918 91.2734C63.5058 91.2734 62.6687 92.1051 62.6687 93.4322H67.1918ZM44.2578 101.043V97.7491L49.9309 92.2217H44.7615V88.6191H56.0596V92.0592L50.5772 97.4383H56.3252V101.043H44.2578Z" fill="#ED1C24"/>
</svg>
