<svg width="174" height="174" viewBox="0 0 174 174" fill="none" xmlns="http://www.w3.org/2000/svg">
<path fill-rule="evenodd" clip-rule="evenodd" d="M150.409 93.3157H152.758V85.8997H154.808V84.1574H152.758V83.0194C152.758 82.3079 153.003 81.6142 153.792 81.6142C154.3 81.6142 154.597 81.8099 154.808 81.9342L155.001 79.9604C154.545 79.854 153.879 79.7646 153.284 79.7646C151.426 79.7646 150.409 81.0456 150.409 82.8773V84.1574H148.674V85.8997H150.409V93.3157ZM143.347 93.3157H145.694V85.8997H147.746V84.1574H145.694V83.0194C145.694 82.3079 145.941 81.6142 146.729 81.6142C147.237 81.6142 147.535 81.8099 147.746 81.9342L147.938 79.9604C147.483 79.854 146.817 79.7646 146.221 79.7646C144.363 79.7646 143.347 81.0456 143.347 82.8773V84.1574H141.612V85.8997H143.347V93.3157ZM134.254 88.5136C134.254 90.026 134.728 91.6798 136.516 91.6798C138.32 91.6798 138.793 90.0439 138.793 88.5136C138.793 87.11 138.057 85.7933 136.516 85.7933C134.991 85.7933 134.254 87.1449 134.254 88.5136ZM131.801 88.7979C131.801 85.7754 133.852 83.9438 136.516 83.9438C139.196 83.9438 141.247 85.7754 141.247 88.7979C141.247 91.4305 139.512 93.5294 136.516 93.5294C133.537 93.5294 131.801 91.4305 131.801 88.7979ZM122.024 93.3157H124.372V88.8344C124.372 87.6607 124.74 85.7933 126.44 85.7933C127.947 85.7933 127.965 87.3049 127.965 88.4251V93.3157H130.313V87.5364C130.313 85.4733 129.384 83.9438 127.246 83.9438C126.019 83.9438 125.004 84.5132 124.407 85.4018H124.372V79.9783H122.024V93.3157ZM111.668 93.3157H114.016V88.8344C114.016 87.6607 114.384 85.7933 116.084 85.7933C117.591 85.7933 117.609 87.3049 117.609 88.4251V93.3157H119.957V87.5364C119.957 85.4733 119.028 83.9438 116.89 83.9438C115.664 83.9438 114.665 84.3532 113.928 85.4018H113.894V84.1574H111.668V93.3157ZM109.514 92.7999C108.655 93.28 107.673 93.5285 106.412 93.5285C103.434 93.5285 101.698 91.7854 101.698 88.7808C101.698 86.1312 103.082 83.9438 105.886 83.9438C109.233 83.9438 110.179 86.2742 110.179 89.4745H103.94C104.046 90.9504 105.063 91.7854 106.517 91.7854C107.656 91.7854 108.638 91.359 109.514 90.8619V92.7999ZM107.938 87.8378C107.866 86.6819 107.34 85.6861 106.026 85.6861C104.712 85.6861 104.046 86.6121 103.94 87.8378H107.938ZM97.8094 93.3157H100.158V79.9783H97.8094V93.3157ZM87.401 93.3157H89.7494V88.8344C89.7494 87.6607 90.1184 85.7933 91.8176 85.7933C93.3247 85.7933 93.3416 87.3049 93.3416 88.4251V93.3157H95.6907V87.5364C95.6907 85.4733 94.7615 83.9438 92.6244 83.9438C91.3966 83.9438 90.3801 84.5132 89.7854 85.4018H89.7494V79.9783H87.401V93.3157ZM78.9209 88.5136C78.9209 90.026 79.3939 91.6798 81.1812 91.6798C82.9869 91.6798 83.4591 90.0439 83.4591 88.5136C83.4591 87.11 82.7235 85.7933 81.1812 85.7933C79.6572 85.7933 78.9209 87.1449 78.9209 88.5136ZM76.4669 88.7979C76.4669 85.7754 78.5183 83.9438 81.1812 83.9438C83.8625 83.9438 85.9131 85.7754 85.9131 88.7979C85.9131 91.4305 84.1771 93.5294 81.1812 93.5294C78.2021 93.5294 76.4669 91.4305 76.4669 88.7979ZM78.3766 82.4857H80.4096V80.4226H78.3766V82.4857ZM81.988 82.4849H84.021V80.4218H81.988V82.4849ZM61.0625 80.9034H64.9876L67.8971 90.3103H67.9323L70.8425 80.9034H74.7668V93.3157H72.4193V83.0722H72.3841L69.0888 93.3157H66.7413L63.4469 83.0722L63.4117 83.1079V93.3157H61.0625V80.9034Z" fill="#131413"/>
<path fill-rule="evenodd" clip-rule="evenodd" d="M25.2758 74.7654C24.5981 75.2502 23.9628 75.7915 23.3756 76.3804H44.419C43.8318 75.7915 43.1957 75.2502 42.5188 74.7654H25.2758ZM40.6226 73.6118C38.6022 72.5808 36.3174 72 33.8973 72C31.4772 72 29.1924 72.5808 27.172 73.6118H40.6226ZM20.7833 89.8485L20.8273 88.2988C20.7865 87.8712 20.7648 87.438 20.7648 87C20.7648 84.0878 21.6997 81.3966 23.2843 79.212H44.5111C46.0941 81.3966 47.029 84.0878 47.029 87C47.029 89.9719 46.0548 92.7156 44.4118 94.9235L43.8879 95.7617L44.2227 94.4145L44.2211 80.9714H41.3892L30.9541 96.8459H33.6682L41.7938 84.5363L42.0253 83.7643L42.0237 97.3872V99.5734C46.0997 96.8967 48.7938 92.2654 48.7938 87C48.7938 83.4182 47.5473 80.1292 45.466 77.5502H22.3278C20.2481 80.1292 19 83.4182 19 87C19 89.2911 19.5111 91.4627 20.4228 93.4045L28.6509 80.9731H26.0072L21.4906 87.847L20.7833 89.8485ZM21.0052 94.5202C23.5831 98.9926 28.3913 102 33.8973 102C36.2053 102 38.3915 101.471 40.3414 100.528L40.343 100.483V88.365L38.1456 91.7225V99.5161C36.8133 99.9743 35.3842 100.223 33.8973 100.223C30.785 100.223 27.9259 99.1329 25.6748 97.3114C24.8032 96.5741 24.0301 95.7456 23.39 94.8646L30.1666 84.5452L30.4838 83.7022V89.8308L32.6812 86.4982V80.9731H29.9607L21.0052 94.5202ZM28.8744 94.1959L29.178 93.49L37.4029 80.9722H40.1427L29.6418 96.8459H26.6529V91.5337L28.8744 88.1601V94.1959Z" fill="#C31231"/>
</svg>
